<svg width="200" height="64" viewBox="0 0 200 64" fill="none" xmlns="http://www.w3.org/2000/svg">
<rect x="2" y="2" width="196" height="60" rx="14" fill="#16A75C"/>
<rect x="2" y="2" width="196" height="60" rx="14" stroke="url(#paint0_diamond_2026_1150)" stroke-width="4"/>
<path d="M34.9736 24.184C35.3363 23.9707 35.8803 23.768 36.6056 23.576C37.3523 23.384 38.099 23.288 38.8456 23.288C39.9123 23.288 40.851 23.448 41.6616 23.768C42.4936 24.0667 43.027 24.5467 43.2616 25.208C43.6456 26.3173 44.0616 27.608 44.5096 29.08C44.9576 30.552 45.4056 32.0773 45.8536 33.656C46.3016 35.2133 46.739 36.76 47.1656 38.296C47.5923 39.8107 47.9656 41.1547 48.2856 42.328C48.0296 42.6267 47.6456 42.8613 47.1336 43.032C46.6216 43.224 46.0136 43.32 45.3096 43.32C44.7976 43.32 44.3603 43.2773 43.9976 43.192C43.6563 43.1067 43.3683 42.9787 43.1336 42.808C42.9203 42.6373 42.739 42.4133 42.5896 42.136C42.4616 41.8587 42.3443 41.5387 42.2376 41.176L41.6616 38.968H35.8696C35.699 39.608 35.5283 40.2693 35.3576 40.952C35.187 41.6347 35.0163 42.296 34.8456 42.936C34.547 43.0427 34.227 43.128 33.8856 43.192C33.5656 43.2773 33.171 43.32 32.7016 43.32C31.6136 43.32 30.803 43.1387 30.2696 42.776C29.7576 42.392 29.5016 41.8693 29.5016 41.208C29.5016 40.9093 29.5443 40.6107 29.6296 40.312C29.715 40.0133 29.811 39.6613 29.9176 39.256C30.067 38.68 30.2696 37.9653 30.5256 37.112C30.803 36.2587 31.1016 35.3413 31.4216 34.36C31.7416 33.3573 32.083 32.3333 32.4456 31.288C32.8083 30.2427 33.1496 29.2613 33.4696 28.344C33.7896 27.4053 34.0776 26.5733 34.3336 25.848C34.611 25.1227 34.8243 24.568 34.9736 24.184ZM38.8136 28.312C38.515 29.208 38.1736 30.2107 37.7896 31.32C37.427 32.408 37.0963 33.5173 36.7976 34.648H40.7656C40.467 33.496 40.1576 32.376 39.8376 31.288C39.539 30.1787 39.2616 29.1867 39.0056 28.312H38.8136ZM59.6466 42.872C59.412 42.936 59.0493 43 58.5586 43.064C58.068 43.128 57.588 43.16 57.1186 43.16C56.1373 43.16 55.4013 43 54.9106 42.68C54.42 42.3387 54.1746 41.6347 54.1746 40.568V36.248C53.6413 35.4587 53.0653 34.584 52.4466 33.624C51.828 32.664 51.22 31.6827 50.6226 30.68C50.0253 29.6773 49.4706 28.696 48.9586 27.736C48.4466 26.7547 48.0306 25.8587 47.7106 25.048C47.988 24.664 48.3613 24.312 48.8306 23.992C49.3213 23.672 49.9186 23.512 50.6226 23.512C51.4546 23.512 52.1266 23.6827 52.6386 24.024C53.172 24.3653 53.6733 25.0053 54.1426 25.944L56.7986 31.288H56.9906C57.2893 30.6267 57.5453 30.0293 57.7586 29.496C57.9933 28.9413 58.2173 28.3973 58.4306 27.864C58.644 27.3093 58.868 26.744 59.1026 26.168C59.3373 25.5707 59.604 24.888 59.9026 24.12C60.2866 23.928 60.7133 23.7787 61.1826 23.672C61.652 23.5653 62.1 23.512 62.5266 23.512C63.2733 23.512 63.9026 23.7147 64.4146 24.12C64.948 24.504 65.2146 25.0907 65.2146 25.88C65.2146 26.136 65.1613 26.4453 65.0546 26.808C64.948 27.1707 64.7026 27.7253 64.3186 28.472C63.9346 29.1973 63.3693 30.1893 62.6226 31.448C61.8973 32.7067 60.9053 34.3493 59.6466 36.376V42.872ZM66.4169 33.272C66.4169 31.608 66.6729 30.136 67.1849 28.856C67.7182 27.576 68.4329 26.5093 69.3289 25.656C70.2462 24.7813 71.3129 24.12 72.5289 23.672C73.7662 23.224 75.0995 23 76.5289 23C77.9582 23 79.2809 23.224 80.4969 23.672C81.7342 24.12 82.8115 24.7813 83.7289 25.656C84.6462 26.5093 85.3609 27.576 85.8729 28.856C86.4062 30.136 86.6729 31.608 86.6729 33.272C86.6729 34.936 86.4169 36.4187 85.9049 37.72C85.3929 39 84.6782 40.0773 83.7609 40.952C82.8649 41.8053 81.7982 42.456 80.5609 42.904C79.3235 43.352 77.9795 43.576 76.5289 43.576C75.0782 43.576 73.7342 43.352 72.4969 42.904C71.2595 42.4347 70.1929 41.7627 69.2969 40.888C68.4009 40.0133 67.6969 38.936 67.1849 37.656C66.6729 36.376 66.4169 34.9147 66.4169 33.272ZM72.1769 33.272C72.1769 35.2133 72.5715 36.664 73.3609 37.624C74.1502 38.584 75.2062 39.064 76.5289 39.064C77.8729 39.064 78.9395 38.584 79.7289 37.624C80.5182 36.664 80.9129 35.2133 80.9129 33.272C80.9129 31.352 80.5182 29.912 79.7289 28.952C78.9609 27.992 77.9049 27.512 76.5609 27.512C75.2382 27.512 74.1715 27.992 73.3609 28.952C72.5715 29.8907 72.1769 31.3307 72.1769 33.272ZM109.691 38.232C109.414 38.4667 109.051 38.6587 108.603 38.808C108.176 38.936 107.675 39 107.099 39C106.331 39 105.691 38.904 105.179 38.712C104.688 38.52 104.368 38.1893 104.219 37.72C103.622 35.8427 103.131 34.328 102.747 33.176C102.363 32.0027 102.064 30.9787 101.851 30.104H101.691C101.627 31.3627 101.574 32.5147 101.531 33.56C101.51 34.584 101.488 35.5867 101.467 36.568C101.467 37.5493 101.446 38.5413 101.403 39.544C101.382 40.5467 101.339 41.656 101.275 42.872C100.998 42.9787 100.635 43.064 100.187 43.128C99.7391 43.2133 99.2911 43.256 98.8431 43.256C97.9045 43.256 97.1685 43.1067 96.6351 42.808C96.1231 42.5093 95.8671 41.9653 95.8671 41.176L96.7951 24.856C96.9658 24.5787 97.3391 24.28 97.9151 23.96C98.4911 23.64 99.3018 23.48 100.347 23.48C101.478 23.48 102.363 23.6613 103.003 24.024C103.643 24.3653 104.112 24.9307 104.411 25.72C104.603 26.232 104.806 26.8187 105.019 27.48C105.254 28.1413 105.478 28.824 105.691 29.528C105.926 30.232 106.15 30.936 106.363 31.64C106.576 32.3227 106.768 32.9413 106.939 33.496H107.099C107.611 31.704 108.123 29.976 108.635 28.312C109.147 26.6267 109.616 25.2187 110.043 24.088C110.363 23.9173 110.768 23.7787 111.259 23.672C111.771 23.544 112.336 23.48 112.955 23.48C114 23.48 114.854 23.64 115.515 23.96C116.176 24.2587 116.56 24.696 116.667 25.272C116.752 25.6987 116.838 26.36 116.923 27.256C117.03 28.1307 117.136 29.1227 117.243 30.232C117.35 31.3413 117.456 32.5147 117.563 33.752C117.67 34.9893 117.766 36.184 117.851 37.336C117.958 38.4667 118.043 39.512 118.107 40.472C118.171 41.4107 118.214 42.136 118.235 42.648C117.872 42.8613 117.488 43.0107 117.083 43.096C116.699 43.2027 116.198 43.256 115.579 43.256C114.768 43.256 114.086 43.1173 113.531 42.84C112.976 42.5627 112.678 42.0187 112.635 41.208C112.507 38.8827 112.422 36.792 112.379 34.936C112.358 33.08 112.315 31.5227 112.251 30.264H112.091C111.878 31.096 111.568 32.1413 111.163 33.4C110.758 34.6587 110.267 36.2693 109.691 38.232ZM125.911 24.184C126.274 23.9707 126.818 23.768 127.543 23.576C128.29 23.384 129.036 23.288 129.783 23.288C130.85 23.288 131.788 23.448 132.599 23.768C133.431 24.0667 133.964 24.5467 134.199 25.208C134.583 26.3173 134.999 27.608 135.447 29.08C135.895 30.552 136.343 32.0773 136.791 33.656C137.239 35.2133 137.676 36.76 138.103 38.296C138.53 39.8107 138.903 41.1547 139.223 42.328C138.967 42.6267 138.583 42.8613 138.071 43.032C137.559 43.224 136.951 43.32 136.247 43.32C135.735 43.32 135.298 43.2773 134.935 43.192C134.594 43.1067 134.306 42.9787 134.071 42.808C133.858 42.6373 133.676 42.4133 133.527 42.136C133.399 41.8587 133.282 41.5387 133.175 41.176L132.599 38.968H126.807C126.636 39.608 126.466 40.2693 126.295 40.952C126.124 41.6347 125.954 42.296 125.783 42.936C125.484 43.0427 125.164 43.128 124.823 43.192C124.503 43.2773 124.108 43.32 123.639 43.32C122.551 43.32 121.74 43.1387 121.207 42.776C120.695 42.392 120.439 41.8693 120.439 41.208C120.439 40.9093 120.482 40.6107 120.567 40.312C120.652 40.0133 120.748 39.6613 120.855 39.256C121.004 38.68 121.207 37.9653 121.463 37.112C121.74 36.2587 122.039 35.3413 122.359 34.36C122.679 33.3573 123.02 32.3333 123.383 31.288C123.746 30.2427 124.087 29.2613 124.407 28.344C124.727 27.4053 125.015 26.5733 125.271 25.848C125.548 25.1227 125.762 24.568 125.911 24.184ZM129.751 28.312C129.452 29.208 129.111 30.2107 128.727 31.32C128.364 32.408 128.034 33.5173 127.735 34.648H131.703C131.404 33.496 131.095 32.376 130.775 31.288C130.476 30.1787 130.199 29.1867 129.943 28.312H129.751ZM147.446 42.872C147.211 42.936 146.838 43 146.326 43.064C145.835 43.128 145.344 43.16 144.854 43.16C144.363 43.16 143.926 43.1173 143.542 43.032C143.179 42.968 142.87 42.84 142.614 42.648C142.358 42.456 142.166 42.1893 142.038 41.848C141.91 41.5067 141.846 41.0587 141.846 40.504V23.608C142.08 23.5653 142.454 23.512 142.966 23.448C143.478 23.3627 143.968 23.32 144.438 23.32C144.928 23.32 145.355 23.3627 145.718 23.448C146.102 23.512 146.422 23.64 146.678 23.832C146.934 24.024 147.126 24.2907 147.254 24.632C147.382 24.9733 147.446 25.4213 147.446 25.976V42.872ZM169.164 42.328C168.865 42.6267 168.428 42.8507 167.852 43C167.297 43.1707 166.625 43.256 165.836 43.256C165.046 43.256 164.3 43.1387 163.596 42.904C162.892 42.6693 162.316 42.104 161.868 41.208L158.7 34.744C158.38 34.0827 158.092 33.464 157.836 32.888C157.58 32.2907 157.302 31.608 157.004 30.84L156.812 30.872C156.897 32.024 156.94 33.1973 156.94 34.392C156.961 35.5867 156.972 36.76 156.972 37.912V42.872C156.737 42.936 156.374 43 155.884 43.064C155.414 43.128 154.945 43.16 154.476 43.16C154.006 43.16 153.59 43.128 153.228 43.064C152.865 43 152.566 42.872 152.332 42.68C152.097 42.488 151.916 42.232 151.788 41.912C151.66 41.5707 151.596 41.1333 151.596 40.6V24.6C151.894 24.1733 152.353 23.8533 152.972 23.64C153.59 23.4267 154.252 23.32 154.956 23.32C155.745 23.32 156.492 23.448 157.196 23.704C157.921 23.9387 158.497 24.4933 158.924 25.368L162.124 31.832C162.444 32.4933 162.732 33.1227 162.988 33.72C163.244 34.296 163.521 34.968 163.82 35.736L163.98 35.704C163.894 34.552 163.841 33.4 163.82 32.248C163.798 31.096 163.788 29.944 163.788 28.792V23.608C164.022 23.544 164.374 23.48 164.844 23.416C165.334 23.352 165.814 23.32 166.284 23.32C167.222 23.32 167.937 23.4907 168.428 23.832C168.918 24.152 169.164 24.8347 169.164 25.88V42.328Z" fill="white"/>
<defs>
<radialGradient id="paint0_diamond_2026_1150" cx="0" cy="0" r="1" gradientUnits="userSpaceOnUse" gradientTransform="translate(98 29.5) rotate(29.6768) scale(156.532 50.0902)">
<stop stop-color="#9BDBB3"/>
<stop offset="1" stop-color="#008444"/>
</radialGradient>
</defs>
</svg>
