<svg width="40" height="40" viewBox="0 0 40 40" fill="none" xmlns="http://www.w3.org/2000/svg">
<rect x="1.5" y="1.5" width="37" height="37" rx="6.5" fill="#FF9500"/>
<rect x="1.5" y="1.5" width="37" height="37" rx="6.5" stroke="url(#paint0_linear_2012_23947)" stroke-width="3"/>
<path d="M16.0841 17.6244L20.8414 12.8671C21.2131 12.4953 21.4062 12.0412 21.4062 11.5217C21.4062 11.0022 21.2131 10.548 20.8414 10.1763L20.836 10.1709L20.8304 10.1658C20.4567 9.82319 20.006 9.65 19.496 9.65C18.9857 9.65 18.5415 9.82384 18.1891 10.1763L18.4342 10.4214L18.1891 10.1763L10.1763 18.1891C9.99072 18.3747 9.85065 18.5847 9.7667 18.8197C9.68801 19.0401 9.65 19.2728 9.65 19.5153C9.65 19.7578 9.688 19.9905 9.7667 20.2108C9.85065 20.4459 9.99072 20.6559 10.1763 20.8414L18.6514 29.3165C19.0233 29.6884 19.4746 29.8779 19.9885 29.8619C20.4847 29.8464 20.9239 29.6651 21.2927 29.327L21.2983 29.3219L21.3037 29.3165C21.6707 28.9495 21.8717 28.5069 21.8875 28.0013C21.9036 27.4875 21.7141 27.0361 21.3422 26.6642L16.0841 21.4062H28.9591C29.4838 21.4062 29.9402 21.2249 30.3045 20.8607C30.6687 20.4965 30.85 20.04 30.85 19.5153C30.85 18.9905 30.6687 18.5341 30.3045 18.1699C29.9402 17.8057 29.4838 17.6244 28.9591 17.6244H16.0841Z" fill="white" stroke="white" stroke-width="0.7"/>
<defs>
<linearGradient id="paint0_linear_2012_23947" x1="41.2596" y1="37.9764" x2="17.6449" y2="18.1907" gradientUnits="userSpaceOnUse">
<stop stop-color="#FFD026"/>
<stop offset="0.948" stop-color="#FF7500"/>
</linearGradient>
</defs>
</svg>
