<svg width="352" height="48" viewBox="0 0 352 48" fill="none" xmlns="http://www.w3.org/2000/svg">
<rect x="1.5" y="1.5" width="349" height="45" rx="6.5" fill="url(#paint0_linear_2016_32935)"/>
<rect x="1.5" y="1.5" width="349" height="45" rx="6.5" stroke="url(#paint1_linear_2016_32935)" stroke-width="3"/>
<path d="M129.483 18.2C128.779 18.2 128.163 19.072 127.635 20.816C127.107 22.544 126.843 24.08 126.843 25.424C126.843 28.24 127.579 29.648 129.051 29.648C129.467 29.648 129.827 29.472 130.131 29.12C130.451 28.752 130.675 28.376 130.803 27.992C130.947 27.608 131.115 27.08 131.307 26.408L134.355 26.648C133.939 28.616 133.315 30.12 132.483 31.16C131.667 32.2 130.523 32.72 129.051 32.72C127.323 32.72 125.987 32.072 125.043 30.776C124.115 29.464 123.651 27.8 123.651 25.784C123.651 23.432 124.115 21.144 125.043 18.92C125.491 17.816 126.115 16.912 126.915 16.208C127.731 15.488 128.659 15.128 129.699 15.128C130.979 15.128 131.907 15.552 132.483 16.4C132.771 16.816 133.003 17.24 133.179 17.672C133.371 18.104 133.507 18.656 133.587 19.328C133.731 20.4 133.819 21.552 133.851 22.784L130.755 22.496C130.755 20.432 130.563 19.136 130.179 18.608C130.003 18.336 129.771 18.2 129.483 18.2ZM137.989 27.68C137.989 29.488 138.389 30.392 139.189 30.392C139.541 30.392 139.837 29.888 140.077 28.88C140.317 27.856 140.437 26.88 140.437 25.952C140.437 23.904 140.101 22.88 139.429 22.88C138.997 22.88 138.645 23.432 138.373 24.536C138.117 25.624 137.989 26.672 137.989 27.68ZM135.181 27.464C135.181 25.976 135.485 24.52 136.093 23.096C136.413 22.376 136.861 21.792 137.437 21.344C138.029 20.88 138.685 20.648 139.405 20.648C140.125 20.648 140.741 20.816 141.253 21.152C141.781 21.472 142.181 21.904 142.453 22.448C142.981 23.52 143.245 24.688 143.245 25.952C143.245 27.696 142.885 29.248 142.165 30.608C141.461 31.952 140.469 32.624 139.189 32.624C136.517 32.624 135.181 30.904 135.181 27.464ZM150.761 20.696C151.529 20.696 152.097 21.12 152.465 21.968C152.849 22.816 153.041 23.824 153.041 24.992C153.041 26.144 152.913 27.288 152.657 28.424C152.417 29.56 152.025 30.528 151.481 31.328C150.953 32.112 150.345 32.504 149.657 32.504C148.649 32.504 147.817 32.056 147.161 31.16C147.161 31.384 147.177 31.704 147.209 32.12L145.097 31.904C145.001 29.984 144.953 27.408 144.953 24.176C144.953 20.928 145.041 17.672 145.217 14.408L147.953 14.648C147.761 17.8 147.665 20.664 147.665 23.24C148.737 21.544 149.769 20.696 150.761 20.696ZM147.665 27.344L147.689 29.216C147.881 29.488 148.049 29.68 148.193 29.792C148.337 29.888 148.553 29.936 148.841 29.936C149.241 29.936 149.593 29.496 149.897 28.616C150.201 27.72 150.353 26.872 150.353 26.072C150.353 25.272 150.305 24.696 150.209 24.344C150.129 23.992 149.945 23.816 149.657 23.816C149.049 23.816 148.385 24.992 147.665 27.344ZM154.881 24.92C155.121 23.672 155.577 22.616 156.249 21.752C156.921 20.872 157.801 20.432 158.889 20.432C159.977 20.432 160.777 20.888 161.289 21.8C161.817 22.696 162.081 23.976 162.081 25.64C162.081 27.304 161.985 29.6 161.793 32.528L159.777 32.36L159.585 31.592C158.833 32.024 158.065 32.24 157.281 32.24C156.497 32.24 155.849 31.984 155.337 31.472C154.825 30.944 154.569 30.192 154.569 29.216C154.569 28.24 155.049 27.4 156.009 26.696C156.985 25.992 158.105 25.624 159.369 25.592V24.944C159.369 23.68 159.065 23.048 158.457 23.048C158.153 23.048 157.873 23.264 157.617 23.696C157.377 24.112 157.201 24.592 157.089 25.136L154.881 24.92ZM157.017 29.36C157.017 29.872 157.321 30.128 157.929 30.128C158.345 30.128 158.785 30.032 159.249 29.84L159.297 27.824C158.545 27.888 157.977 28.08 157.593 28.4C157.209 28.704 157.017 29.024 157.017 29.36ZM170.981 31.856C170.773 28.56 170.669 25.544 170.669 22.808C170.669 20.056 170.757 17.56 170.933 15.32L174.125 15.608C173.885 18.36 173.765 20.992 173.765 23.504C173.765 26.016 173.805 27.864 173.885 29.048C174.461 28.968 175.877 28.808 178.133 28.568L178.613 31.352C177.413 31.496 175.717 31.736 173.525 32.072L170.981 31.856ZM179.35 24.92C179.59 23.672 180.046 22.616 180.718 21.752C181.39 20.872 182.27 20.432 183.358 20.432C184.446 20.432 185.246 20.888 185.758 21.8C186.286 22.696 186.55 23.976 186.55 25.64C186.55 27.304 186.454 29.6 186.262 32.528L184.246 32.36L184.054 31.592C183.302 32.024 182.534 32.24 181.75 32.24C180.966 32.24 180.318 31.984 179.806 31.472C179.294 30.944 179.038 30.192 179.038 29.216C179.038 28.24 179.518 27.4 180.478 26.696C181.454 25.992 182.574 25.624 183.838 25.592V24.944C183.838 23.68 183.534 23.048 182.926 23.048C182.622 23.048 182.342 23.264 182.086 23.696C181.846 24.112 181.67 24.592 181.558 25.136L179.35 24.92ZM181.486 29.36C181.486 29.872 181.79 30.128 182.398 30.128C182.814 30.128 183.254 30.032 183.718 29.84L183.766 27.824C183.014 27.888 182.446 28.08 182.062 28.4C181.678 28.704 181.486 29.024 181.486 29.36ZM192.23 35.216C192.726 35.216 193.126 34.704 193.43 33.68C193.734 32.672 193.886 31.416 193.886 29.912C193.038 31.432 192.158 32.192 191.246 32.192C190.35 32.192 189.622 31.888 189.062 31.28C188.518 30.656 188.246 29.72 188.246 28.472C188.246 27.208 188.462 25.96 188.894 24.728C189.326 23.48 189.854 22.488 190.478 21.752C191.118 21 191.726 20.624 192.302 20.624C193.31 20.624 194.238 21.032 195.086 21.848L196.766 22.088C196.558 23.128 196.454 24.728 196.454 26.888C196.454 29.032 196.39 30.616 196.262 31.64C196.15 32.648 195.958 33.64 195.686 34.616C195.414 35.592 195.014 36.368 194.486 36.944C193.958 37.52 193.262 37.808 192.398 37.808C191.534 37.808 190.71 37.456 189.926 36.752C189.142 36.064 188.51 35.232 188.03 34.256L190.046 33.392C190.67 34.608 191.398 35.216 192.23 35.216ZM192.902 23.072C192.502 23.072 192.094 23.648 191.678 24.8C191.278 25.952 191.078 27.176 191.078 28.472C191.078 28.968 191.142 29.344 191.27 29.6C191.414 29.856 191.566 29.984 191.726 29.984C191.902 29.984 192.126 29.824 192.398 29.504C192.67 29.184 192.958 28.672 193.262 27.968C193.582 27.264 193.814 26.488 193.958 25.64L194.006 23.816C193.542 23.32 193.174 23.072 192.902 23.072ZM198.957 20.552L201.693 20.816V32.336L198.957 32.072V20.552ZM199.149 16.328L201.837 16.64L201.597 19.328L198.909 18.992L199.149 16.328Z" fill="white"/>
<path d="M220 34.2815C218.75 34.2815 217.579 34.044 216.488 33.569C215.396 33.094 214.446 32.4523 213.638 31.644C212.829 30.8357 212.188 29.8857 211.713 28.794C211.238 27.7023 211 26.5315 211 25.2815C211 24.9982 211.096 24.7607 211.287 24.569C211.479 24.3773 211.717 24.2815 212 24.2815C212.283 24.2815 212.521 24.3773 212.712 24.569C212.904 24.7607 213 24.9982 213 25.2815C213 27.2315 213.679 28.8857 215.037 30.244C216.396 31.6023 218.05 32.2815 220 32.2815C221.95 32.2815 223.604 31.6023 224.963 30.244C226.321 28.8857 227 27.2315 227 25.2815C227 23.3315 226.321 21.6773 224.963 20.319C223.604 18.9607 221.95 18.2815 220 18.2815H219.85L220.7 19.1315C220.9 19.3315 220.996 19.5648 220.988 19.8315C220.979 20.0982 220.883 20.3315 220.7 20.5315C220.5 20.7315 220.262 20.8357 219.988 20.844C219.713 20.8523 219.475 20.7565 219.275 20.5565L216.7 17.9815C216.5 17.7815 216.4 17.5482 216.4 17.2815C216.4 17.0148 216.5 16.7815 216.7 16.5815L219.275 14.0065C219.475 13.8065 219.713 13.7107 219.988 13.719C220.262 13.7273 220.5 13.8315 220.7 14.0315C220.883 14.2315 220.979 14.4648 220.988 14.7315C220.996 14.9982 220.9 15.2315 220.7 15.4315L219.85 16.2815H220C221.25 16.2815 222.421 16.519 223.512 16.994C224.604 17.469 225.554 18.1107 226.363 18.919C227.171 19.7273 227.812 20.6773 228.288 21.769C228.763 22.8607 229 24.0315 229 25.2815C229 26.5315 228.763 27.7023 228.288 28.794C227.812 29.8857 227.171 30.8357 226.363 31.644C225.554 32.4523 224.604 33.094 223.512 33.569C222.421 34.044 221.25 34.2815 220 34.2815Z" fill="white" stroke="white" stroke-width="2"/>
<defs>
<linearGradient id="paint0_linear_2016_32935" x1="153.498" y1="28.9072" x2="159.893" y2="-11.2188" gradientUnits="userSpaceOnUse">
<stop stop-color="#E53935"/>
<stop offset="0.948" stop-color="#C62828"/>
</linearGradient>
<linearGradient id="paint1_linear_2016_32935" x1="363.084" y1="45.5717" x2="353.957" y2="-10.5071" gradientUnits="userSpaceOnUse">
<stop stop-color="#EF5350"/>
<stop offset="0.948" stop-color="#B71B1C"/>
</linearGradient>
</defs>
</svg>
