<svg width="40" height="40" viewBox="0 0 40 40" fill="none" xmlns="http://www.w3.org/2000/svg">
<rect x="1.5" y="1.5" width="37" height="37" rx="6.5" fill="#1565C0"/>
<rect x="1.5" y="1.5" width="37" height="37" rx="6.5" stroke="url(#paint0_linear_2058_27500)" stroke-width="3"/>
<path d="M11.6799 26.9429V17.6857C11.6799 17.36 11.7528 17.0514 11.8985 16.76C12.0442 16.4686 12.2456 16.2286 12.5028 16.04L18.6742 11.4114C19.0342 11.1371 19.4456 11 19.9085 11C20.3714 11 20.7828 11.1371 21.1428 11.4114L27.3142 16.04C27.5714 16.2286 27.7728 16.4686 27.9185 16.76C28.0642 17.0514 28.1371 17.36 28.1371 17.6857V26.9429C28.1371 27.5086 27.9356 27.9929 27.5328 28.3957C27.1299 28.7986 26.6456 29 26.0799 29H22.9942C22.7028 29 22.4585 28.9014 22.2614 28.7043C22.0642 28.5071 21.9656 28.2629 21.9656 27.9714V22.8286C21.9656 22.5371 21.8671 22.2929 21.6699 22.0957C21.4728 21.8986 21.2285 21.8 20.9371 21.8H18.8799C18.5885 21.8 18.3442 21.8986 18.1471 22.0957C17.9499 22.2929 17.8514 22.5371 17.8514 22.8286V27.9714C17.8514 28.2629 17.7528 28.5071 17.5556 28.7043C17.3585 28.9014 17.1142 29 16.8228 29H13.7371C13.1714 29 12.6871 28.7986 12.2842 28.3957C11.8814 27.9929 11.6799 27.5086 11.6799 26.9429Z" fill="white"/>
<defs>
<linearGradient id="paint0_linear_2058_27500" x1="47.1799" y1="8" x2="16.1482" y2="27.9066" gradientUnits="userSpaceOnUse">
<stop stop-color="#1E88E5"/>
<stop offset="0.948" stop-color="#0D47A1"/>
</linearGradient>
</defs>
</svg>
