<svg width="104" height="48" viewBox="0 0 104 48" fill="none" xmlns="http://www.w3.org/2000/svg">
<rect x="1.5" y="1.5" width="100.457" height="45" rx="6.5" fill="#1565C0"/>
<rect x="1.5" y="1.5" width="100.457" height="45" rx="6.5" stroke="url(#paint0_linear_2016_33045)" stroke-width="3"/>
<path d="M21.2615 19.976L21.2855 22.736L24.8855 22.52C24.8855 20.024 24.9255 17.376 25.0055 14.576L28.1735 14.864C28.0295 17.408 27.9575 20.168 27.9575 23.144C27.9575 26.104 28.0455 29.08 28.2215 32.072L25.1495 31.808C25.0055 30.432 24.9175 28.224 24.8855 25.184L21.3575 25.4C21.4055 27.672 21.4775 29.984 21.5735 32.336L18.3095 32.048C18.1335 28.672 18.0455 25.568 18.0455 22.736C18.0455 19.904 18.1095 17.456 18.2375 15.392L21.4055 15.68C21.3095 17.104 21.2615 18.536 21.2615 19.976ZM32.759 27.68C32.759 29.488 33.159 30.392 33.959 30.392C34.311 30.392 34.607 29.888 34.847 28.88C35.087 27.856 35.207 26.88 35.207 25.952C35.207 23.904 34.871 22.88 34.199 22.88C33.767 22.88 33.415 23.432 33.143 24.536C32.887 25.624 32.759 26.672 32.759 27.68ZM29.951 27.464C29.951 25.976 30.255 24.52 30.863 23.096C31.183 22.376 31.631 21.792 32.207 21.344C32.799 20.88 33.455 20.648 34.175 20.648C34.895 20.648 35.511 20.816 36.023 21.152C36.551 21.472 36.951 21.904 37.223 22.448C37.751 23.52 38.015 24.688 38.015 25.952C38.015 27.696 37.655 29.248 36.935 30.608C36.231 31.952 35.239 32.624 33.959 32.624C31.287 32.624 29.951 30.904 29.951 27.464ZM44.7149 21.296C45.6909 21.296 46.4349 21.632 46.9469 22.304C47.7789 21.088 48.6029 20.48 49.4189 20.48C51.6429 20.48 52.7549 22.152 52.7549 25.496C52.7549 27.384 52.5949 29.672 52.2749 32.36L49.4909 32.12C49.7949 29.128 49.9469 26.848 49.9469 25.28C49.9469 23.712 49.6909 22.928 49.1789 22.928C48.9549 22.928 48.6909 23.288 48.3869 24.008C48.0829 24.728 47.8829 25.528 47.7869 26.408C47.7549 28.408 47.6909 30.192 47.5949 31.76L44.7869 31.496C44.9149 29.24 44.9789 27.384 44.9789 25.928C44.9789 24.472 44.7789 23.744 44.3789 23.744C44.1229 23.744 43.7869 24.192 43.3709 25.088C42.9709 25.968 42.6829 26.896 42.5069 27.872C42.5229 29.344 42.5949 30.864 42.7229 32.432L39.9149 32.168C39.7389 29.912 39.6509 27.856 39.6509 26C39.6509 24.144 39.6989 22.408 39.7949 20.792L41.7869 20.936C41.8829 21.368 42.0189 22.152 42.1949 23.288C43.0429 21.96 43.8829 21.296 44.7149 21.296ZM58.166 30.272C58.774 30.272 59.422 29.688 60.11 28.52L61.934 29.6C61.63 30.128 61.334 30.576 61.046 30.944C60.774 31.312 60.358 31.664 59.798 32C59.238 32.336 58.614 32.504 57.926 32.504C56.918 32.504 56.07 32.08 55.382 31.232C54.694 30.368 54.35 29.208 54.35 27.752C54.35 26.088 54.646 24.536 55.238 23.096C55.558 22.344 56.014 21.736 56.606 21.272C57.214 20.792 57.83 20.552 58.454 20.552C59.094 20.552 59.606 20.656 59.99 20.864C60.374 21.056 60.678 21.28 60.902 21.536C61.142 21.776 61.35 22.136 61.526 22.616C61.702 23.096 61.822 23.488 61.886 23.792C61.966 24.096 62.03 24.536 62.078 25.112C62.142 25.88 62.174 26.576 62.174 27.2C60.894 27.552 59.238 27.872 57.206 28.16C57.254 28.8 57.366 29.312 57.542 29.696C57.718 30.08 57.926 30.272 58.166 30.272ZM58.694 22.904C58.342 22.904 58.022 23.256 57.734 23.96C57.462 24.664 57.302 25.48 57.254 26.408C58.102 26.232 58.838 26.064 59.462 25.904C59.462 23.904 59.206 22.904 58.694 22.904Z" fill="white"/>
<path d="M71 30.9429V21.6857C71 21.36 71.0729 21.0514 71.2186 20.76C71.3643 20.4686 71.5657 20.2286 71.8229 20.04L77.9943 15.4114C78.3543 15.1371 78.7657 15 79.2286 15C79.6914 15 80.1029 15.1371 80.4629 15.4114L86.6343 20.04C86.8914 20.2286 87.0929 20.4686 87.2386 20.76C87.3843 21.0514 87.4571 21.36 87.4571 21.6857V30.9429C87.4571 31.5086 87.2557 31.9929 86.8529 32.3957C86.45 32.7986 85.9657 33 85.4 33H82.3143C82.0229 33 81.7786 32.9014 81.5814 32.7043C81.3843 32.5071 81.2857 32.2629 81.2857 31.9714V26.8286C81.2857 26.5371 81.1871 26.2929 80.99 26.0957C80.7929 25.8986 80.5486 25.8 80.2571 25.8H78.2C77.9086 25.8 77.6643 25.8986 77.4671 26.0957C77.27 26.2929 77.1714 26.5371 77.1714 26.8286V31.9714C77.1714 32.2629 77.0729 32.5071 76.8757 32.7043C76.6786 32.9014 76.4343 33 76.1429 33H73.0571C72.4914 33 72.0071 32.7986 71.6043 32.3957C71.2014 31.9929 71 31.5086 71 30.9429Z" fill="white"/>
<defs>
<linearGradient id="paint0_linear_2016_33045" x1="122.028" y1="9.6" x2="83.1192" y2="63.3965" gradientUnits="userSpaceOnUse">
<stop stop-color="#1E88E5"/>
<stop offset="0.948" stop-color="#0D47A1"/>
</linearGradient>
</defs>
</svg>
