<svg width="200" height="40" viewBox="0 0 200 40" fill="none" xmlns="http://www.w3.org/2000/svg">
<rect x="1" y="1" width="198" height="38" rx="15" fill="#16A75C"/>
<rect x="1" y="1" width="198" height="38" rx="15" stroke="url(#paint0_diamond_2015_32232)" stroke-width="2"/>
<path d="M79.8078 15.304C79.9251 15.2827 80.1118 15.256 80.3678 15.224C80.6238 15.1813 80.8691 15.16 81.1038 15.16C81.3491 15.16 81.5625 15.1813 81.7438 15.224C81.9358 15.256 82.0958 15.32 82.2238 15.416C82.3518 15.512 82.4478 15.6453 82.5118 15.816C82.5758 15.9867 82.6078 16.2107 82.6078 16.488V22.408C82.6078 23.3573 82.3358 24.072 81.7918 24.552C81.2478 25.0213 80.4478 25.256 79.3918 25.256C78.8371 25.256 78.3891 25.1707 78.0478 25C77.8025 24.8827 77.6211 24.7227 77.5038 24.52C77.3971 24.3173 77.3438 24.088 77.3438 23.832C77.3438 23.6187 77.3705 23.432 77.4238 23.272C77.4878 23.112 77.5625 22.984 77.6478 22.888C77.8505 22.9307 78.0211 22.9627 78.1598 22.984C78.3091 22.9947 78.4691 23 78.6398 23C79.0558 23 79.3545 22.8987 79.5358 22.696C79.7171 22.4827 79.8078 22.1733 79.8078 21.768V15.304ZM87.7616 23.272C87.9429 23.272 88.1402 23.256 88.3536 23.224C88.5776 23.1813 88.7429 23.128 88.8496 23.064V21.784L87.6976 21.88C87.3989 21.9013 87.1536 21.9653 86.9616 22.072C86.7696 22.1787 86.6736 22.3387 86.6736 22.552C86.6736 22.7653 86.7536 22.9413 86.9136 23.08C87.0842 23.208 87.3669 23.272 87.7616 23.272ZM87.6336 16.984C88.2096 16.984 88.7322 17.0427 89.2016 17.16C89.6816 17.2773 90.0869 17.4587 90.4176 17.704C90.7589 17.9387 91.0202 18.2427 91.2016 18.616C91.3829 18.9787 91.4736 19.4107 91.4736 19.912V23.496C91.4736 23.7733 91.3936 24.0027 91.2336 24.184C91.0842 24.3547 90.9029 24.504 90.6896 24.632C89.9962 25.048 89.0202 25.256 87.7616 25.256C87.1962 25.256 86.6842 25.2027 86.2256 25.096C85.7776 24.9893 85.3882 24.8293 85.0576 24.616C84.7376 24.4027 84.4869 24.1307 84.3056 23.8C84.1349 23.4693 84.0496 23.0853 84.0496 22.648C84.0496 21.912 84.2682 21.3467 84.7056 20.952C85.1429 20.5573 85.8202 20.312 86.7376 20.216L88.8336 19.992V19.88C88.8336 19.5707 88.6949 19.352 88.4176 19.224C88.1509 19.0853 87.7616 19.016 87.2496 19.016C86.8442 19.016 86.4496 19.0587 86.0656 19.144C85.6816 19.2293 85.3349 19.336 85.0256 19.464C84.8869 19.368 84.7696 19.224 84.6736 19.032C84.5776 18.8293 84.5296 18.6213 84.5296 18.408C84.5296 18.1307 84.5936 17.912 84.7216 17.752C84.8602 17.5813 85.0682 17.4373 85.3456 17.32C85.6549 17.2027 86.0176 17.1173 86.4336 17.064C86.8602 17.0107 87.2602 16.984 87.6336 16.984ZM97.4593 24.76C97.31 24.888 97.1073 24.9893 96.8513 25.064C96.5953 25.1493 96.2913 25.192 95.9393 25.192C95.502 25.192 95.1233 25.128 94.8033 25C94.4833 24.8827 94.27 24.712 94.1633 24.488C94.046 24.232 93.9073 23.8267 93.7473 23.272C93.598 22.7173 93.4486 22.1093 93.2993 21.448C93.15 20.7867 93.006 20.1147 92.8673 19.432C92.7393 18.7493 92.638 18.1467 92.5633 17.624C92.7126 17.4747 92.91 17.3467 93.1553 17.24C93.4113 17.1227 93.6886 17.064 93.9873 17.064C94.3606 17.064 94.6646 17.1493 94.8993 17.32C95.1446 17.48 95.294 17.7627 95.3473 18.168C95.454 18.9787 95.5446 19.6507 95.6193 20.184C95.694 20.7067 95.7526 21.1387 95.7953 21.48C95.8486 21.8107 95.886 22.0667 95.9073 22.248C95.9393 22.4187 95.966 22.5573 95.9873 22.664H96.0513C96.0833 22.4933 96.1366 22.248 96.2113 21.928C96.2966 21.5973 96.3926 21.224 96.4993 20.808C96.606 20.392 96.718 19.944 96.8353 19.464C96.9526 18.9733 97.07 18.488 97.1873 18.008C97.4006 17.8907 97.6086 17.8 97.8113 17.736C98.0246 17.672 98.286 17.64 98.5953 17.64C98.9686 17.64 99.2886 17.6987 99.5553 17.816C99.822 17.9333 99.9926 18.1147 100.067 18.36C100.195 18.8293 100.318 19.288 100.435 19.736C100.553 20.1733 100.659 20.584 100.755 20.968C100.851 21.3413 100.937 21.6773 101.011 21.976C101.086 22.264 101.139 22.4933 101.171 22.664H101.251C101.369 21.8427 101.481 20.9893 101.587 20.104C101.705 19.2187 101.811 18.3173 101.907 17.4C102.099 17.2827 102.302 17.1973 102.515 17.144C102.729 17.0907 102.942 17.064 103.155 17.064C103.529 17.064 103.838 17.144 104.083 17.304C104.329 17.464 104.451 17.7413 104.451 18.136C104.451 18.3067 104.425 18.5627 104.371 18.904C104.318 19.2453 104.249 19.6293 104.163 20.056C104.078 20.4827 103.977 20.9307 103.859 21.4C103.753 21.8693 103.641 22.3227 103.523 22.76C103.417 23.1973 103.31 23.592 103.203 23.944C103.107 24.296 103.022 24.568 102.947 24.76C102.798 24.888 102.569 24.9893 102.259 25.064C101.95 25.1493 101.619 25.192 101.267 25.192C100.371 25.192 99.8433 24.968 99.6833 24.52C99.6193 24.328 99.5393 24.088 99.4433 23.8C99.3473 23.5013 99.246 23.176 99.1393 22.824C99.0326 22.472 98.9313 22.1093 98.8353 21.736C98.7393 21.352 98.6593 20.984 98.5953 20.632C98.5206 21.0053 98.43 21.3947 98.3233 21.8C98.2166 22.1947 98.1046 22.584 97.9873 22.968C97.8806 23.3413 97.7793 23.688 97.6833 24.008C97.5873 24.3173 97.5126 24.568 97.4593 24.76ZM109.012 23.272C109.193 23.272 109.39 23.256 109.604 23.224C109.828 23.1813 109.993 23.128 110.1 23.064V21.784L108.948 21.88C108.649 21.9013 108.404 21.9653 108.212 22.072C108.02 22.1787 107.924 22.3387 107.924 22.552C107.924 22.7653 108.004 22.9413 108.164 23.08C108.334 23.208 108.617 23.272 109.012 23.272ZM108.884 16.984C109.46 16.984 109.982 17.0427 110.452 17.16C110.932 17.2773 111.337 17.4587 111.668 17.704C112.009 17.9387 112.27 18.2427 112.452 18.616C112.633 18.9787 112.724 19.4107 112.724 19.912V23.496C112.724 23.7733 112.644 24.0027 112.484 24.184C112.334 24.3547 112.153 24.504 111.94 24.632C111.246 25.048 110.27 25.256 109.012 25.256C108.446 25.256 107.934 25.2027 107.476 25.096C107.028 24.9893 106.638 24.8293 106.308 24.616C105.988 24.4027 105.737 24.1307 105.556 23.8C105.385 23.4693 105.3 23.0853 105.3 22.648C105.3 21.912 105.518 21.3467 105.956 20.952C106.393 20.5573 107.07 20.312 107.988 20.216L110.084 19.992V19.88C110.084 19.5707 109.945 19.352 109.668 19.224C109.401 19.0853 109.012 19.016 108.5 19.016C108.094 19.016 107.7 19.0587 107.316 19.144C106.932 19.2293 106.585 19.336 106.276 19.464C106.137 19.368 106.02 19.224 105.924 19.032C105.828 18.8293 105.78 18.6213 105.78 18.408C105.78 18.1307 105.844 17.912 105.972 17.752C106.11 17.5813 106.318 17.4373 106.596 17.32C106.905 17.2027 107.268 17.1173 107.684 17.064C108.11 17.0107 108.51 16.984 108.884 16.984ZM114.419 14.584C114.525 14.552 114.696 14.52 114.931 14.488C115.165 14.4453 115.405 14.424 115.651 14.424C115.885 14.424 116.093 14.44 116.275 14.472C116.467 14.504 116.627 14.568 116.755 14.664C116.883 14.76 116.979 14.8933 117.043 15.064C117.107 15.224 117.139 15.4373 117.139 15.704V17.272C117.405 17.1653 117.656 17.0907 117.891 17.048C118.136 17.0053 118.403 16.984 118.691 16.984C119.203 16.984 119.688 17.0747 120.147 17.256C120.605 17.4373 121.011 17.704 121.363 18.056C121.715 18.3973 121.992 18.824 122.195 19.336C122.397 19.848 122.499 20.44 122.499 21.112C122.499 21.8053 122.392 22.4133 122.179 22.936C121.976 23.448 121.688 23.8747 121.315 24.216C120.941 24.5573 120.483 24.8187 119.939 25C119.405 25.1707 118.813 25.256 118.163 25.256C117.459 25.256 116.861 25.1707 116.371 25C115.88 24.84 115.464 24.6373 115.123 24.392C114.653 24.0613 114.419 23.6347 114.419 23.112V14.584ZM118.163 23.112C118.653 23.112 119.032 22.9467 119.299 22.616C119.576 22.2747 119.715 21.7733 119.715 21.112C119.715 20.44 119.576 19.9387 119.299 19.608C119.021 19.2773 118.648 19.112 118.179 19.112C117.965 19.112 117.779 19.1333 117.619 19.176C117.469 19.2187 117.304 19.2827 117.123 19.368V22.856C117.24 22.9307 117.379 22.9947 117.539 23.048C117.709 23.0907 117.917 23.112 118.163 23.112Z" fill="white"/>
<defs>
<radialGradient id="paint0_diamond_2015_32232" cx="0" cy="0" r="1" gradientUnits="userSpaceOnUse" gradientTransform="translate(98 18.4375) rotate(19.6038) scale(144.368 33.9441)">
<stop stop-color="#9BDBB3"/>
<stop offset="1" stop-color="#008444"/>
</radialGradient>
</defs>
</svg>
