<svg width="40" height="40" viewBox="0 0 40 40" fill="none" xmlns="http://www.w3.org/2000/svg">
<rect x="1.5" y="1.5" width="37" height="37" rx="6.5" fill="url(#paint0_linear_2026_1146)"/>
<rect x="1.5" y="1.5" width="37" height="37" rx="6.5" stroke="url(#paint1_linear_2026_1146)" stroke-width="3"/>
<path d="M28.7986 28.7661C28.314 29.2507 27.7163 29.5 27.0326 29.5H21.0326C20.6233 29.5 20.2566 29.3561 19.9665 29.0661C19.6765 28.776 19.5326 28.4093 19.5326 28C19.5326 27.5907 19.6765 27.224 19.9665 26.9339C20.2566 26.6439 20.6233 26.5 21.0326 26.5H26.0326V13.5H21.0326C20.6233 13.5 20.2566 13.3561 19.9665 13.0661C19.6765 12.776 19.5326 12.4092 19.5326 12C19.5326 11.5908 19.6765 11.224 19.9665 10.9339C20.2566 10.6439 20.6233 10.5 21.0326 10.5H27.0326C27.7163 10.5 28.314 10.7493 28.7986 11.2339C29.2833 11.7186 29.5326 12.3163 29.5326 13V27C29.5326 27.6837 29.2833 28.2814 28.7986 28.7661Z" fill="white" stroke="white"/>
<path d="M22.0326 21.5H16.0647L17.0611 22.4965C17.3404 22.7757 17.4829 23.1286 17.4949 23.5224C17.5071 23.9256 17.3739 24.2903 17.1012 24.5879L17.0938 24.5959L17.0861 24.6036C16.7989 24.8908 16.4415 25.05 16.0352 25.0623C15.6181 25.0749 15.2484 24.923 14.954 24.6286L11.379 21.0536C11.0916 20.7661 10.9326 20.408 10.9326 20C10.9326 19.5921 11.0916 19.2339 11.379 18.9465L14.954 15.3715C15.2517 15.0738 15.6266 14.9254 16.0473 14.9377C16.4588 14.9498 16.8221 15.1077 17.1012 15.4121C17.3674 15.7026 17.5076 16.0559 17.5076 16.45C17.5076 16.8451 17.3662 17.1985 17.0861 17.4786L16.0647 18.5H22.0326C22.4418 18.5 22.8086 18.6439 23.0986 18.934L22.8121 19.2205L23.0986 18.934C23.3887 19.224 23.5326 19.5908 23.5326 20C23.5326 20.4093 23.3887 20.776 23.0986 21.0661C22.8086 21.3561 22.4418 21.5 22.0326 21.5Z" fill="white" stroke="white"/>
<defs>
<linearGradient id="paint0_linear_2026_1146" x1="17.443" y1="24.0893" x2="34.3804" y2="9.59747" gradientUnits="userSpaceOnUse">
<stop stop-color="#E53935"/>
<stop offset="0.948" stop-color="#C62828"/>
</linearGradient>
<linearGradient id="paint1_linear_2026_1146" x1="41.2596" y1="37.9764" x2="17.6449" y2="18.1907" gradientUnits="userSpaceOnUse">
<stop stop-color="#EF5350"/>
<stop offset="0.948" stop-color="#B71B1C"/>
</linearGradient>
</defs>
</svg>
