<svg width="99" height="48" viewBox="0 0 99 48" fill="none" xmlns="http://www.w3.org/2000/svg">
<rect x="2" y="1.5" width="95.5" height="45" rx="6.5" fill="#1565C0"/>
<rect x="2" y="1.5" width="95.5" height="45" rx="6.5" stroke="url(#paint0_linear_2016_32927)" stroke-width="3"/>
<path d="M28.7031 15.104L28.7271 26.264C28.7271 28.104 28.6631 30.08 28.5351 32.192L25.8471 31.928C23.7831 27.24 22.0951 23.728 20.7831 21.392C20.7991 23.76 20.8071 27.536 20.8071 32.72L17.9991 32.408C17.9511 31.416 17.9271 30.456 17.9271 29.528C17.9271 25.656 18.1431 21.144 18.5751 15.992L21.7671 16.304C23.3511 20.672 24.7751 23.992 26.0391 26.264C25.9431 21.432 25.8311 17.624 25.7031 14.84L28.7031 15.104ZM34.1738 30.272C34.7818 30.272 35.4298 29.688 36.1178 28.52L37.9418 29.6C37.6378 30.128 37.3418 30.576 37.0538 30.944C36.7818 31.312 36.3658 31.664 35.8058 32C35.2458 32.336 34.6218 32.504 33.9338 32.504C32.9258 32.504 32.0778 32.08 31.3898 31.232C30.7018 30.368 30.3578 29.208 30.3578 27.752C30.3578 26.088 30.6538 24.536 31.2458 23.096C31.5658 22.344 32.0218 21.736 32.6138 21.272C33.2218 20.792 33.8378 20.552 34.4618 20.552C35.1018 20.552 35.6138 20.656 35.9978 20.864C36.3818 21.056 36.6858 21.28 36.9098 21.536C37.1498 21.776 37.3578 22.136 37.5338 22.616C37.7098 23.096 37.8298 23.488 37.8938 23.792C37.9738 24.096 38.0378 24.536 38.0858 25.112C38.1498 25.88 38.1818 26.576 38.1818 27.2C36.9018 27.552 35.2458 27.872 33.2138 28.16C33.2618 28.8 33.3738 29.312 33.5498 29.696C33.7258 30.08 33.9338 30.272 34.1738 30.272ZM34.7018 22.904C34.3498 22.904 34.0298 23.256 33.7418 23.96C33.4698 24.664 33.3098 25.48 33.2618 26.408C34.1098 26.232 34.8458 26.064 35.4698 25.904C35.4698 23.904 35.2138 22.904 34.7018 22.904ZM41.2823 32.696L38.7383 31.952C39.4743 30.24 40.4023 28.432 41.5223 26.528C40.5623 24.752 39.8903 22.776 39.5063 20.6L42.1703 20.864C42.3943 21.984 42.7223 23.136 43.1543 24.32C44.1143 22.784 44.8103 21.368 45.2423 20.072L47.3063 21.08C46.7463 22.824 45.7623 24.608 44.3543 26.432C45.0583 28.08 45.9543 29.544 47.0423 30.824L45.2423 32.528C44.3303 31.344 43.5383 30.048 42.8663 28.64C42.0823 30.512 41.5543 31.864 41.2823 32.696ZM54.2463 21.968V24.248C53.4783 24.248 52.8863 24.256 52.4703 24.272C52.4223 25.872 52.3983 28.56 52.3983 32.336L49.5663 32.072C49.5663 29.272 49.5903 26.736 49.6383 24.464C49.3983 24.464 48.9423 24.504 48.2703 24.584L47.9103 22.616C48.2943 22.536 48.8943 22.432 49.7103 22.304C49.7423 21.12 49.8063 19.392 49.9023 17.12L52.7583 17.384C52.6623 18.968 52.5903 20.504 52.5423 21.992C52.9423 21.976 53.5103 21.968 54.2463 21.968Z" fill="white"/>
<path d="M76.9159 21.868L72.1586 17.1107C71.7869 16.739 71.5938 16.2848 71.5938 15.7653C71.5938 15.2458 71.7869 14.7917 72.1586 14.4199L72.164 14.4145L72.1696 14.4094C72.5433 14.0668 72.994 13.8937 73.504 13.8937C74.0143 13.8937 74.4585 14.0675 74.8109 14.4199L74.5658 14.665L74.8109 14.4199L82.8237 22.4328C83.0093 22.6183 83.1494 22.8283 83.2333 23.0634C83.312 23.2837 83.35 23.5164 83.35 23.7589C83.35 24.0014 83.312 24.2342 83.2333 24.4545C83.1494 24.6896 83.0093 24.8995 82.8237 25.0851L74.3486 33.5602C73.9767 33.9321 73.5254 34.1216 73.0115 34.1055C72.5153 34.09 72.0761 33.9087 71.7073 33.5707L71.7017 33.5655L71.6963 33.5602C71.3293 33.1932 71.1283 32.7506 71.1125 32.2449C71.0964 31.7311 71.2859 31.2798 71.6578 30.9079L76.9159 25.6499H64.0409C63.5162 25.6499 63.0598 25.4686 62.6955 25.1043C62.3313 24.7401 62.15 24.2837 62.15 23.7589C62.15 23.2342 62.3313 22.7778 62.6955 22.4135C63.0598 22.0493 63.5162 21.868 64.0409 21.868H76.9159Z" fill="white" stroke="white" stroke-width="0.7"/>
<defs>
<linearGradient id="paint0_linear_2016_32927" x1="116.681" y1="9.6" x2="77.2128" y2="61.5553" gradientUnits="userSpaceOnUse">
<stop stop-color="#1E88E5"/>
<stop offset="0.948" stop-color="#0D47A1"/>
</linearGradient>
</defs>
</svg>
