<svg width="206" height="100" viewBox="0 0 206 100" fill="none" xmlns="http://www.w3.org/2000/svg">
<path d="M50.7183 100C24.153 100 2.54028 78.3873 2.54028 51.8228C2.54028 25.2574 24.153 3.64471 50.7183 3.64471H157.572C184.137 3.64471 205.75 25.2574 205.75 51.8228C205.75 78.3882 184.137 100 157.572 100H50.7183Z" fill="#B8DBD6"/>
<path d="M48.4285 97.7103C21.8632 97.7103 0.250488 76.0976 0.250488 49.5331C0.250488 22.9677 21.8632 1.35504 48.4285 1.35504H155.282C181.847 1.35504 203.46 22.9677 203.46 49.5331C203.46 76.0985 181.847 97.7103 155.282 97.7103H48.4285Z" fill="white"/>
<path d="M48.4285 93.6825C24.0836 93.6825 4.2782 73.8771 4.2782 49.533C4.2782 25.1881 24.0836 5.38269 48.4285 5.38269H155.282C179.627 5.38269 199.432 25.1881 199.432 49.533C199.432 73.8771 179.627 93.6825 155.282 93.6825H48.4285Z" fill="#006F94"/>
<path d="M155.283 89.6549H48.4285C26.2694 89.6549 8.30676 71.6914 8.30676 49.5323C8.30676 27.3731 26.2702 9.41052 48.4285 9.41052H155.283C177.442 9.41052 195.405 27.374 195.405 49.5323C195.405 71.6914 177.442 89.6549 155.283 89.6549Z" fill="#3AB4CF"/>
<path opacity="0.45" d="M152.319 40.725C153.041 38.9631 153.717 37.0963 154.383 35.0313L154.584 34.4093C156.367 28.7085 158.898 18.3082 159.198 9.60147C158.664 9.54994 158.128 9.50995 157.588 9.47885C157.289 18.1172 154.692 28.6676 153.05 33.9197L152.85 34.5346C152.16 36.6769 151.459 38.5979 150.707 40.4078L150.581 40.709L150.701 41.0129C154.22 49.9311 158.89 62.6958 161.151 72.8659C162.274 77.9164 162.57 83.4235 162.078 89.0684C162.628 88.9742 163.176 88.8729 163.718 88.7574C164.171 83.1054 163.851 77.5903 162.724 72.5167C160.466 62.3599 155.846 49.6814 152.319 40.725ZM145.6 40.1546C146.27 38.517 146.901 36.7764 147.524 34.8456L147.712 34.2627C149.494 28.5654 152.072 17.8533 152.054 9.41043H150.44C150.448 17.7262 147.811 28.5494 146.178 33.774L145.99 34.3498C145.342 36.3597 144.688 38.1554 143.988 39.84L143.862 40.1413L143.982 40.4451C147.273 48.7858 151.64 60.7241 153.754 70.2297C155.085 76.2211 155.182 82.8993 154.091 89.6566H155.283C155.429 89.6566 155.573 89.6468 155.72 89.645C156.799 82.7758 156.684 75.9865 155.327 69.8796C153.216 60.3847 148.899 48.5335 145.6 40.1546ZM159.039 41.2972C159.809 39.4198 160.531 37.4268 161.242 35.2197L161.457 34.5577C163.168 29.0861 165.532 19.5433 166.213 10.9298C165.686 10.7806 165.153 10.6411 164.617 10.5131C163.956 19.1763 161.517 28.9671 159.922 34.0681L159.708 34.7239C158.972 37.0092 158.226 39.0564 157.426 40.9809L157.301 41.2821L157.421 41.586C161.167 51.0791 166.139 64.671 168.548 75.5076C169.354 79.1328 169.76 82.9801 169.781 86.943C170.319 86.7342 170.853 86.5156 171.38 86.2846C171.32 82.4355 170.908 78.6947 170.122 75.1584C167.714 64.3342 162.792 50.8294 159.039 41.2972ZM132.163 39.0119C132.734 37.6143 133.272 36.1251 133.807 34.4706L133.969 33.9677C135.735 28.3167 138.41 16.9532 137.547 9.41043H135.926C136.829 16.6946 134.056 28.2935 132.435 33.479L132.273 33.9748C131.714 35.7084 131.151 37.2526 130.55 38.6965L130.425 38.9977L130.545 39.3016C133.379 46.4836 137.139 56.7622 138.959 64.9491C140.63 72.4661 140.043 81.2404 137.309 89.6495L137.307 89.6548H138.993C141.679 81.1204 142.231 72.2431 140.533 64.599C138.714 56.4245 135.003 46.2313 132.163 39.0119ZM138.881 39.5824C139.503 38.0603 140.088 36.445 140.665 34.6572L140.84 34.1152C142.61 28.4517 145.227 17.4694 144.845 9.41043H143.231C143.619 17.2917 140.928 28.433 139.305 33.6265L139.131 34.1623C138.53 36.0282 137.92 37.6978 137.269 39.2669L137.143 39.5681L137.262 39.872C140.325 47.6343 144.388 58.7445 146.355 67.5881C147.855 74.3409 147.667 82.0312 145.868 89.6548H147.525C149.298 81.9139 149.456 74.1134 147.928 67.2389C145.965 58.4068 141.95 47.3837 138.881 39.5824ZM181.821 35.7821L182.074 35.0011C183.007 32.0174 184.179 27.6938 185.227 22.8388C184.793 22.351 184.347 21.8748 183.888 21.4092C182.795 26.6418 181.529 31.343 180.538 34.5124L180.287 35.2872C179.414 37.9954 178.53 40.4185 177.583 42.6958L177.458 42.997L177.578 43.3009C180.847 51.5856 184.901 62.5056 187.95 72.8126C188.352 72.2484 188.741 71.6735 189.114 71.088C186.135 61.2279 182.322 50.9494 179.195 43.0121C180.113 40.7801 180.973 38.4113 181.821 35.7821ZM165.758 41.8686C166.575 39.8765 167.344 37.7582 168.102 35.4063L168.328 34.7052C169.792 30.0235 171.912 21.6784 172.949 13.5057C172.446 13.2587 171.935 13.025 171.419 12.7984C170.425 20.9951 168.269 29.4975 166.793 34.2174L166.569 34.9113C165.784 37.3406 164.992 39.5131 164.144 41.5522L164.019 41.8535L164.139 42.1573C168.115 52.2342 173.391 66.6578 175.946 78.1474C176.323 79.8454 176.61 81.5931 176.824 83.3737C177.332 83.0494 177.832 82.7153 178.323 82.3697C178.114 80.8174 177.85 79.2891 177.518 77.7982C174.967 66.3201 169.741 51.9836 165.758 41.8686ZM188.679 35.9687L188.945 35.1486C189.388 33.7323 189.882 32.0263 190.393 30.1133C190.027 29.4522 189.64 28.8054 189.238 28.1683C188.595 30.6766 187.962 32.8962 187.41 34.659L187.146 35.4729C186.228 38.3233 185.297 40.8725 184.302 43.2662L184.177 43.5674L184.296 43.8713C186.73 50.0386 189.577 57.5974 192.17 65.3294C192.498 64.5644 192.801 63.786 193.082 62.997C190.691 55.9989 188.137 49.2256 185.915 43.5825C186.881 41.2359 187.786 38.7409 188.679 35.9687ZM125.444 38.4397C125.969 37.1496 126.462 35.7857 126.947 34.2814L127.097 33.8193C128.764 28.4873 131.322 17.6098 130.331 10.6704C130.281 10.323 130.205 9.89557 130.106 9.40955H128.462C128.586 9.99331 128.679 10.5007 128.736 10.8978C129.688 17.5663 127.075 28.4926 125.562 33.3307L125.414 33.7865C124.905 35.3663 124.387 36.7853 123.831 38.1243L123.706 38.4255L123.826 38.7285C126.432 45.333 129.889 54.7852 131.562 62.3066C133.097 69.2096 132.557 77.2686 130.046 84.9909L129.869 85.5178C129.551 86.457 129.24 87.3011 128.917 88.0981C128.818 88.3424 128.733 88.537 128.652 88.7272L128.605 88.8347C128.481 89.1226 128.364 89.3918 128.248 89.6539H130.007C130.033 89.5926 130.058 89.5366 130.085 89.4744L130.13 89.3687C130.216 89.1688 130.306 88.9617 130.411 88.7032C130.745 87.8768 131.067 87.0052 131.396 86.034L131.577 85.4964C134.177 77.497 134.731 69.1377 133.137 61.9574C131.465 54.4493 128.056 45.0833 125.444 38.4397ZM174.961 35.5937L175.201 34.8527C176.45 30.8561 178.153 24.3325 179.339 17.4206C178.863 17.0634 178.377 16.7195 177.886 16.3836C176.712 23.4786 174.947 30.2688 173.666 34.364L173.428 35.0979C172.601 37.664 171.763 39.9618 170.865 42.1227L170.74 42.4239L170.859 42.7278C174.822 52.7718 180.004 66.8986 182.85 78.6681C183.304 78.238 183.749 77.7982 184.182 77.3477C181.302 65.8012 176.337 52.2431 172.477 42.439C173.345 40.3252 174.159 38.0816 174.961 35.5937ZM14.5221 65.293C14.395 65.1588 14.1214 64.8523 14.116 64.846C13.9525 64.6657 13.7677 64.4595 13.5847 64.2454C13.4576 64.0961 13.3075 63.9149 13.1573 63.7309C13.0027 63.5417 12.865 63.3702 12.7282 63.1951C12.5736 62.997 12.4163 62.79 12.2661 62.5892L11.9302 62.1245C11.765 61.8934 11.6006 61.658 11.4442 61.4261L11.2701 61.1604C10.6072 60.143 10.0492 59.1674 9.56053 58.1714L9.47257 57.9955C9.28953 57.6098 9.1509 57.2979 9.02206 56.9923L9.00075 56.9417C9.39881 59.0724 9.9586 61.1462 10.6792 63.1445L10.968 63.5434C11.1323 63.7647 11.2967 63.9815 11.4584 64.1876C11.6015 64.3707 11.7472 64.5502 11.9089 64.7501C12.068 64.9447 12.2252 65.1366 12.3612 65.2948C12.5549 65.5213 12.7504 65.739 12.9183 65.9238C12.9183 65.9238 13.2142 66.2553 13.3501 66.4001C13.5385 66.6 13.7269 66.7937 13.9143 66.9803C13.726 67.7436 13.574 68.4784 13.4541 69.1883C13.8797 69.9445 14.3293 70.6846 14.802 71.4096C14.9033 70.0582 15.1627 68.5654 15.5883 66.9332L15.7074 66.4774L15.368 66.1504C15.0916 65.8821 14.8064 65.5942 14.5221 65.293ZM86.9003 68.1612C86.7643 66.3885 86.3067 64.5928 85.5382 62.8193C85.5835 62.7491 85.6279 62.6771 85.6732 62.6034C85.7736 62.439 85.874 62.2746 85.9771 62.0978C86.1646 61.7726 86.344 61.4367 86.56 61.0182C86.631 60.8796 86.7021 60.7401 86.7457 60.6486C86.9314 60.2648 87.1037 59.8729 87.301 59.4144C87.3401 59.322 87.3818 59.227 87.4307 59.1079C87.6013 58.6841 87.7595 58.2531 87.9079 57.8142L87.9949 57.5538C89.2567 53.6745 89.5241 49.6139 88.7484 46.1202C87.9594 42.575 86.368 38.1794 85.1267 35.0126C85.356 34.4395 85.5746 33.83 85.7887 33.1618L85.8625 32.9352C86.6675 30.3603 87.9008 25.101 87.4174 21.7237C87.1624 19.9387 85.5968 14.1223 81.9183 9.41132H79.8267C83.8721 13.934 85.5639 20.1457 85.8216 21.9521C86.265 25.0513 85.0361 30.1781 84.328 32.4457L84.256 32.6651C84.0152 33.4133 83.7726 34.0788 83.515 34.6972L83.3888 34.9993L83.5087 35.3032C84.7438 38.4344 86.3831 42.9135 87.1739 46.4703C87.8883 49.6868 87.6351 53.4462 86.464 57.0483L86.3796 57.2997C86.241 57.7085 86.0944 58.111 85.9353 58.5046L85.7887 58.8476C85.6305 59.2154 85.4679 59.5859 85.2911 59.9538C85.2503 60.0391 85.188 60.1608 85.1259 60.2817C84.9233 60.6735 84.7562 60.9889 84.5812 61.291C84.4861 61.4545 84.3928 61.6082 84.3013 61.7575C84.1831 61.9459 84.0676 62.128 83.9512 62.304L83.7024 62.678L83.8908 63.0859C84.6887 64.8185 85.1596 66.5671 85.292 68.2847C85.4422 70.251 85.1161 72.2546 84.3217 74.2396C83.9254 75.233 83.4066 76.2193 82.7837 77.1638L82.6397 77.3797C82.0329 78.2691 81.3345 79.1274 80.5659 79.9245L80.3633 80.1324C80.1172 80.382 79.8417 80.6468 79.553 80.909L79.2269 81.2057L79.3406 81.8828C79.3788 82.1289 79.4108 82.3626 79.4419 82.6043C79.4597 82.7411 79.4748 82.8655 79.4872 82.9899C79.521 83.3213 79.545 83.6838 79.5601 84.0535C79.5698 84.249 79.5707 84.3653 79.5734 84.4809C79.5787 84.7963 79.5779 85.2086 79.5592 85.6208L79.545 85.8705C79.5121 86.3983 79.4659 86.8524 79.4037 87.2842L79.369 87.4983C79.2989 87.9355 79.2073 88.3842 79.0972 88.8338L79.0678 88.9573C79.0048 89.199 78.939 89.4282 78.8697 89.6548H80.5446C80.573 89.5517 80.6041 89.4549 80.6317 89.3482L80.6636 89.2141C80.7836 88.7254 80.8831 88.234 80.9604 87.7551L80.9977 87.5276C81.0679 87.0372 81.1177 86.5431 81.1532 85.9647L81.1683 85.7026C81.1897 85.2459 81.1905 84.7972 81.1852 84.4515C81.1825 84.3227 81.1799 84.1947 81.1701 83.9833C81.1532 83.5834 81.1275 83.188 81.0901 82.8237C81.075 82.6825 81.059 82.5447 81.0395 82.3964C81.0137 82.1982 80.988 82.0027 80.9578 81.8019C81.1532 81.618 81.3389 81.435 81.5131 81.259L81.7219 81.0458C82.558 80.1786 83.3141 79.2501 83.9752 78.2798L84.1263 78.0541C84.8122 77.0127 85.3809 75.9296 85.818 74.8358C86.7057 72.6216 87.0691 70.3754 86.9003 68.1612ZM31.4229 84.3662C31.1599 84.1592 30.9004 83.9468 30.6428 83.7247C30.3575 83.4812 30.0759 83.2147 29.7827 82.9135C29.684 82.8113 29.6058 82.7242 29.5214 82.6292C29.3464 82.4355 29.1767 82.2426 29.0176 82.0445C28.9323 81.9388 28.847 81.8286 28.7671 81.7246C28.6151 81.5203 28.4961 81.355 28.3868 81.1933C28.2793 81.0324 28.1931 80.9054 28.1149 80.7783C28.0269 80.6362 27.9407 80.4904 27.8554 80.3429C27.7746 80.2034 27.6902 80.056 27.612 79.9094C27.5569 79.8045 27.508 79.7059 27.4556 79.5966C26.7963 78.2691 26.3369 76.8155 26.0917 75.2748L26.0482 75.002L25.6741 74.6483C25.5399 74.5195 25.4395 74.4218 25.3347 74.3151C25.244 74.2227 25.1445 74.1161 25.0459 74.0095L24.774 73.7127C24.6345 73.5572 24.5163 73.4168 24.3973 73.2756L24.2187 73.0623C24.0845 72.8979 23.9592 72.7389 23.8375 72.5789L23.6731 72.3604C23.5816 72.2386 23.4572 72.0672 23.3426 71.9028L23.2146 71.7135C22.0657 70.036 21.3398 68.3993 21.0582 66.8497C20.7569 65.1917 20.9382 63.0716 21.5966 60.5473L21.7157 60.0915L21.3762 59.7645C21.1532 59.5477 20.9204 59.314 20.693 59.0732C20.589 58.9631 20.3669 58.7134 20.3598 58.7054C20.2283 58.5606 20.0781 58.3953 19.9288 58.2194C19.8249 58.0994 19.7058 57.9519 19.5832 57.8026C19.4579 57.6489 19.3459 57.5112 19.2358 57.3681C19.1087 57.2073 18.9816 57.0385 18.8617 56.8777L18.5871 56.4992C18.4539 56.3108 18.3197 56.1198 18.1944 55.9341L18.0522 55.7172C17.5147 54.8927 17.0615 54.101 16.6644 53.2907L16.5933 53.1494C16.4449 52.8366 16.3329 52.5834 16.2281 52.3364L16.1099 52.0503C16.006 51.7935 15.9064 51.5296 15.8185 51.2755L15.7465 51.0596C15.6407 50.7344 15.551 50.4438 15.4764 50.1586C15.1094 48.736 15.0001 47.3899 15.1547 46.1549C15.2702 45.2326 15.623 42.4275 20.4602 35.7608L20.7569 35.3521L20.5188 34.9069C19.2784 32.5905 18.9061 30.0173 19.4437 27.4672C19.9448 25.0851 21.147 21.5958 23.148 18.3846C21.9378 19.3673 20.7889 20.4211 19.7023 21.5371C18.7951 23.619 18.1909 25.5951 17.8665 27.1349C17.2854 29.8965 17.6311 32.6794 18.867 35.2152C14.0618 41.9308 13.6957 44.8443 13.5562 45.9558C13.3768 47.3917 13.4985 48.9413 13.917 50.5629C13.9996 50.8783 14.0974 51.1991 14.2155 51.5616L14.292 51.7917C14.3915 52.0814 14.5016 52.371 14.6172 52.6589L14.7407 52.9575C14.8562 53.2302 14.9779 53.5021 15.1432 53.8531L15.2196 54.005C15.6425 54.8687 16.1277 55.7164 16.7017 56.5978L16.8509 56.8253C16.9904 57.0314 17.1317 57.2331 17.2765 57.4375L17.5618 57.8311C17.6968 58.0123 17.8328 58.1909 17.9634 58.3589C18.0807 58.5099 18.2006 58.6574 18.3339 58.8209C18.4645 58.9817 18.5951 59.1408 18.7035 59.2669C18.8617 59.4526 19.0225 59.6312 19.1629 59.785C19.1629 59.785 19.4055 60.056 19.5201 60.1777C19.6543 60.3199 19.7893 60.4585 19.9226 60.5935C19.2997 63.1525 19.1478 65.3525 19.473 67.1376C19.7946 68.912 20.6068 70.7575 21.8818 72.6207L22.0151 72.8162C22.1493 73.009 22.2861 73.1983 22.3812 73.3235L22.5562 73.5563C22.6904 73.7314 22.8263 73.9038 22.9774 74.0886L23.1631 74.3098C23.2928 74.4653 23.4225 74.619 23.5807 74.795L23.8606 75.1006C23.9734 75.2232 24.0872 75.3441 24.1849 75.4436C24.2933 75.5546 24.4026 75.6613 24.5465 75.8008C24.8273 77.4028 25.3196 78.9195 26.0091 80.3056C26.065 80.422 26.1228 80.5384 26.1885 80.6628C26.2765 80.8299 26.3716 80.996 26.4613 81.1524C26.5546 81.3141 26.6497 81.4741 26.7474 81.6322C26.8363 81.7735 26.9296 81.9148 27.0531 82.0978C27.1784 82.2817 27.3099 82.4648 27.4822 82.6967C27.5764 82.8202 27.6715 82.9437 27.7648 83.0583C27.9407 83.2778 28.1309 83.4955 28.3219 83.7061C28.4125 83.8091 28.5049 83.9095 28.6231 84.033C28.9554 84.3751 29.2735 84.6754 29.5961 84.9509C29.6085 84.9615 29.621 84.9704 29.6325 84.9811C32.5656 86.5396 35.7154 87.7409 39.0243 88.5361C38.3695 88.3087 36.9069 87.7551 35.1521 86.8035C33.8104 86.0749 32.5558 85.2548 31.4229 84.3662ZM118.725 37.8684C119.201 36.6991 119.647 35.4605 120.088 34.0966L120.226 33.6718C121.749 28.7982 124.085 18.8564 123.18 12.5123C123.077 11.7935 122.862 10.7272 122.52 9.40955H120.858C121.239 10.8339 121.477 11.9872 121.584 12.7407C122.452 18.812 120.069 28.7725 118.691 33.1823L118.555 33.5999C118.091 35.042 117.619 36.3348 117.113 37.553L116.988 37.8542L117.108 38.1581C119.485 44.1841 122.64 52.8082 124.165 59.6686C125.562 65.9549 125.072 73.2969 122.785 80.3341L122.622 80.8165C122.334 81.6678 122.05 82.4372 121.753 83.1685C121.666 83.3862 121.589 83.5612 121.517 83.73L121.47 83.8376C121.161 84.5528 120.845 85.2734 120.505 85.9789C120.424 86.1495 120.3 86.3912 120.177 86.6329C119.747 87.4681 119.429 88.0572 119.115 88.6001C118.929 88.9182 118.749 89.2176 118.566 89.5153C118.536 89.5633 118.506 89.6068 118.476 89.6548H120.361C120.41 89.5713 120.459 89.494 120.509 89.4078C120.837 88.8391 121.167 88.2296 121.61 87.3695C121.741 87.1127 121.872 86.8568 121.957 86.6773C122.307 85.9532 122.633 85.2112 122.95 84.4755L122.995 84.3698C123.074 84.1894 123.155 84.0028 123.247 83.7718C123.555 83.0121 123.85 82.2142 124.149 81.3319L124.315 80.8405C126.692 73.5261 127.198 65.883 125.739 59.3194C124.213 52.4705 121.108 43.9326 118.725 37.8684ZM192.634 44.153C193.188 42.8077 193.722 41.4101 194.245 39.952C194.02 39.0359 193.766 38.1323 193.48 37.242C192.686 39.5992 191.878 41.7762 191.021 43.8367L190.896 44.1379L191.016 44.4418C192.277 47.636 193.643 51.1893 195.032 54.9407C195.197 53.7181 195.31 52.4794 195.363 51.2239C194.423 48.7378 193.504 46.3601 192.634 44.153ZM14.5221 36.1135L14.284 35.6684C13.5074 34.2174 13.0063 32.6865 12.785 31.1182C12.3843 31.8921 12.0058 32.6794 11.6557 33.4817C11.9063 34.3311 12.2288 35.1664 12.6313 35.9785C11.1626 38.0257 10.0323 39.7832 9.15802 41.2901C8.80705 42.9712 8.57069 44.6941 8.43652 46.4454C9.20066 44.4027 10.7929 41.2528 14.2253 36.5223L14.5221 36.1135ZM79.8444 61.5034C79.7333 60.0622 79.3664 58.605 78.7506 57.1647C78.7737 57.1282 78.796 57.0918 78.8199 57.0545C78.9035 56.9185 78.9861 56.7826 79.0705 56.6369C79.226 56.3685 79.3753 56.0913 79.5485 55.751C79.6081 55.6346 79.6676 55.5191 79.7022 55.4471C79.8577 55.1299 80.0017 54.8038 80.1314 54.4929C80.1741 54.3978 80.2141 54.3027 80.2674 54.1721C80.4069 53.8238 80.5375 53.471 80.6601 53.1094L80.732 52.8961C81.7707 49.7019 81.9902 46.3574 81.3514 43.4804C80.709 40.5953 79.4206 37.0269 78.4085 34.4404C78.5898 33.9828 78.7613 33.4995 78.9319 32.9726L78.9914 32.7877C79.6534 30.673 80.6654 26.3512 80.2674 23.5657C79.9226 21.1542 77.6826 13.6301 72.0564 9.97998C72.0804 9.78628 72.1044 9.5988 72.1293 9.41132H70.505C70.4686 9.70098 70.4313 9.99687 70.3957 10.2981L70.3336 10.8188L70.7849 11.0862C76.293 14.3498 78.4077 21.9388 78.6724 23.7931C79.0305 26.2988 78.0318 30.458 77.4569 32.2982L77.3983 32.4768C77.2037 33.081 77.0073 33.6203 76.7967 34.1259L76.6715 34.4271L76.7905 34.731C77.7981 37.2828 79.1345 40.9329 79.7778 43.8296C80.3562 46.4303 80.1501 49.4726 79.202 52.3906L79.1336 52.5941C79.0216 52.9264 78.8999 53.2533 78.7746 53.5688C78.7311 53.6754 78.6955 53.758 78.6538 53.8549C78.5294 54.1508 78.3979 54.4484 78.2522 54.7479C78.2202 54.8154 78.1704 54.9131 78.118 55.0135C77.9563 55.3299 77.8195 55.584 77.6782 55.8292C77.6009 55.9607 77.5262 56.0851 77.4498 56.2077C77.3556 56.3605 77.2623 56.5054 77.1682 56.6475L76.9194 57.0216L77.1077 57.4303C77.7519 58.8289 78.1331 60.2408 78.2388 61.626C78.3597 63.2085 78.0967 64.8229 77.456 66.4232C77.1353 67.2264 76.7168 68.0225 76.2139 68.7849L76.0975 68.9591C75.607 69.6788 75.041 70.3736 74.4208 71.0169L74.2529 71.1875C74.0547 71.3892 73.8317 71.6033 73.598 71.8148L73.2844 72.172L73.3777 72.7442C73.4079 72.9424 73.4354 73.1298 73.4603 73.3315C73.4754 73.4399 73.4861 73.5377 73.4967 73.6407C73.5243 73.9091 73.5438 74.2023 73.5563 74.4973C73.5625 74.6528 73.566 74.7443 73.5669 74.8554C73.5749 75.1077 73.5705 75.4374 73.5563 75.7643L73.5447 75.9687C73.5198 76.3748 73.4843 76.7462 73.4319 77.1078L73.4034 77.2828C73.3466 77.6338 73.2737 77.9955 73.1831 78.3642L73.16 78.4602C73.0454 78.9 72.9227 79.2971 72.7744 79.7005L72.6811 79.9484C72.5265 80.3474 72.3487 80.7446 72.1586 81.1178L72.0298 81.3586C71.813 81.7691 71.5695 82.1698 71.3092 82.551C70.1043 84.3129 68.0918 85.1019 65.4422 85.7435C64.838 85.8892 64.1743 86.0331 63.459 86.1726C62.7801 86.3059 62.0515 86.4365 61.2901 86.5645C59.2829 86.8995 56.8536 87.2389 54.0716 87.573L52.8454 87.7178C47.0318 88.3886 41.7841 88.8107 41.203 88.8569L40.6867 88.8978C43.1933 89.3882 45.7807 89.6521 48.4303 89.6521H50.0057C50.9822 89.549 51.9969 89.438 53.032 89.318L54.2627 89.1732C57.0722 88.8356 59.5254 88.4926 61.5557 88.154C62.3341 88.0243 63.076 87.8902 63.7691 87.7542C64.5075 87.6094 65.1952 87.4601 65.8207 87.3091C68.8319 86.5796 71.1439 85.6457 72.6393 83.4599C72.9343 83.0299 73.208 82.5758 73.4523 82.1147L73.5865 81.8624C73.8086 81.427 74.0094 80.9783 74.1862 80.5224L74.2858 80.2603C74.4537 79.7992 74.5923 79.3558 74.7238 78.8484L74.7495 78.7418C74.8491 78.3349 74.9317 77.9297 74.9939 77.5396L75.0241 77.3513C75.0845 76.9328 75.1245 76.5196 75.153 76.0629L75.1654 75.8461C75.1832 75.4658 75.1867 75.0926 75.1787 74.8243C75.1778 74.7159 75.1752 74.6092 75.1672 74.428C75.1529 74.0992 75.1316 73.7731 75.1014 73.4773C75.0899 73.3582 75.0757 73.2427 75.0605 73.1263C75.0428 72.9868 75.0241 72.8491 75.0037 72.7087C75.1441 72.5754 75.2783 72.443 75.4044 72.3151L75.5777 72.1391C76.2654 71.4248 76.8883 70.6597 77.4338 69.8591L77.5573 69.6743C78.1233 68.8169 78.5925 67.9239 78.9541 67.0194C79.6836 65.1908 79.9839 63.3338 79.8444 61.5034ZM118.34 56.6786C116.962 50.4838 114.16 42.7775 112.005 37.2971C112.429 36.2539 112.83 35.1415 113.228 33.9082L113.353 33.5244C114.734 29.1101 116.849 20.1048 116.027 14.3542C115.883 13.3493 115.496 11.5944 114.819 9.41043H113.141C113.872 11.7055 114.285 13.5528 114.431 14.5826C115.214 20.0595 113.062 29.0541 111.817 33.0357L111.695 33.4124C111.272 34.7248 110.846 35.8923 110.393 36.9816L110.267 37.2837L110.386 37.5876C112.534 43.0308 115.386 50.8223 116.767 57.0296C118.027 62.702 117.583 69.3278 115.519 75.6773L115.372 76.1127C115.111 76.8848 114.854 77.5787 114.59 78.2345C114.51 78.4335 114.44 78.5917 114.374 78.7463L114.334 78.8387C114.055 79.4846 113.769 80.1359 113.463 80.7721C113.388 80.9258 113.276 81.1444 113.164 81.363C112.811 82.0516 112.515 82.6052 112.206 83.1392C112.04 83.4253 111.877 83.6945 111.71 83.9637C111.505 84.296 111.303 84.6133 111.097 84.9234L110.848 85.2974L111.036 85.7053C111.641 87.0185 112.132 88.3371 112.523 89.6548H114.2C113.807 88.2474 113.306 86.8399 112.684 85.4396C112.815 85.2352 112.947 85.0264 113.079 84.8114C113.254 84.5288 113.425 84.2472 113.598 83.9468C113.92 83.3906 114.228 82.8157 114.597 82.0996C114.716 81.8677 114.834 81.6358 114.912 81.4723C115.229 80.8165 115.524 80.1439 115.811 79.4784L115.85 79.3878C115.922 79.2225 115.996 79.0519 116.081 78.8387C116.36 78.1536 116.626 77.4303 116.898 76.628L117.047 76.1828C119.203 69.5553 119.661 62.6291 118.34 56.6786ZM110.942 54.0397C109.712 48.5095 107.212 41.6304 105.286 36.7266C105.664 35.791 106.02 34.8047 106.369 33.7225L106.481 33.3777C107.717 29.422 109.612 21.3523 108.875 16.1971C108.699 14.9584 108.109 12.451 106.996 9.41043H105.294C106.48 12.5514 107.101 15.169 107.28 16.4245C107.977 21.3043 106.056 29.3331 104.945 32.8873L104.835 33.2258C104.461 34.3853 104.082 35.4276 103.672 36.4112L103.547 36.7124L103.667 37.0163C105.587 41.8828 108.135 48.8471 109.367 54.3889C110.492 59.4473 110.095 65.3561 108.253 71.0196L108.123 71.4096C107.892 72.0938 107.663 72.7131 107.424 73.304C107.361 73.4595 107.305 73.5883 107.252 73.7109L107.196 73.8407C106.946 74.4173 106.692 74.9984 106.42 75.5653C106.353 75.7021 106.253 75.8976 106.154 76.0922C105.838 76.7062 105.575 77.2002 105.299 77.6756C105.151 77.9315 105.005 78.1714 104.856 78.4131C104.673 78.7089 104.492 78.9924 104.309 79.2678L104.061 79.6419L104.249 80.0506C105.507 82.7811 106.25 85.5427 106.46 88.2589C106.495 88.7227 106.508 89.1883 106.51 89.6539H108.121C108.119 89.1465 108.105 88.6401 108.066 88.1354C107.853 85.3632 107.122 82.5554 105.896 79.7832C106.006 79.6126 106.116 79.4375 106.227 79.2589C106.383 79.0066 106.535 78.7543 106.692 78.4841C106.981 77.9857 107.256 77.4703 107.587 76.8288C107.694 76.6209 107.799 76.413 107.871 76.2655C108.155 75.6773 108.419 75.0757 108.677 74.4769L108.732 74.3498C108.79 74.2156 108.851 74.0752 108.919 73.9064C109.17 73.288 109.41 72.6394 109.651 71.9232L109.785 71.5243C111.717 65.5844 112.127 59.3745 110.942 54.0397ZM91.8467 35.5831C92.1266 34.8874 92.3914 34.1516 92.6517 33.3449L92.7361 33.0819C93.6851 30.0484 95.1396 23.8544 94.5719 19.8809C94.3409 18.27 93.2053 13.8726 90.7405 9.41043H88.911C91.5491 13.8842 92.745 18.4886 92.9769 20.1093C93.5047 23.8056 92.0449 29.8974 91.2008 32.5949L91.1181 32.8517C90.8347 33.7349 90.545 34.5257 90.2367 35.2685L90.1105 35.5706L90.2305 35.8745C91.6939 39.5806 93.6345 44.886 94.5736 49.111C95.4257 52.9388 95.1245 57.4152 93.7304 61.7051L93.63 62.0027C93.4656 62.4888 93.2906 62.9677 93.0996 63.4386C93.0489 63.5666 93.0027 63.6705 92.9592 63.77L92.9263 63.8464C92.7379 64.2836 92.5451 64.7252 92.3372 65.157C92.2874 65.2592 92.2128 65.4058 92.1364 65.5533C91.8974 66.0189 91.6975 66.393 91.4887 66.7537C91.3749 66.9483 91.2647 67.1305 91.1546 67.3108C91.0151 67.5356 90.8791 67.7498 90.7396 67.9586L90.4891 68.3335L90.6783 68.7423C91.629 70.8063 92.1915 72.8935 92.3487 74.9451C92.5291 77.2926 92.1391 79.6854 91.1901 82.0569C90.7165 83.2422 90.099 84.4178 89.3553 85.5444L89.1847 85.8003C88.4632 86.8595 87.6306 87.8813 86.7145 88.832L86.4729 89.079C86.2889 89.2665 86.0881 89.4611 85.8802 89.6574H88.1344C89.0088 88.7209 89.8155 87.7347 90.5193 86.7031L90.697 86.4374C91.5038 85.2139 92.1719 83.9415 92.6855 82.6558C93.726 80.0542 94.1534 77.4188 93.9543 74.8225C93.7926 72.7158 93.2444 70.5833 92.3239 68.4775C92.3896 68.3735 92.4571 68.2669 92.5247 68.1585C92.6437 67.9648 92.761 67.7711 92.881 67.5641C93.1031 67.1811 93.3155 66.7848 93.5678 66.2926C93.6513 66.1309 93.734 65.97 93.7882 65.8563C94.005 65.4049 94.2084 64.9429 94.4359 64.4124C94.4848 64.3014 94.5346 64.1859 94.5914 64.0437C94.7931 63.5452 94.9779 63.037 95.1539 62.5207L95.2578 62.2133C96.7426 57.6445 97.058 52.8677 96.1455 48.7627C95.2098 44.5475 93.3164 39.3265 91.8467 35.5831ZM103.544 51.399C102.461 46.5298 100.264 40.4789 98.5658 36.1544C98.8928 35.3441 99.2029 34.4831 99.5086 33.5332L99.6072 33.2294C100.7 29.7356 102.375 22.6052 101.723 18.0381C101.518 16.6022 100.687 13.2391 99.0047 9.40955H97.2579C99.0465 13.3147 99.9199 16.8181 100.127 18.2656C100.74 22.5563 99.0492 29.6148 98.0718 32.7398L97.9749 33.0365C97.6435 34.0646 97.3094 34.9806 96.9522 35.8381L96.827 36.1393L96.9469 36.4432C98.6387 40.7312 100.884 46.8666 101.97 51.7473C102.957 56.1908 102.609 61.3825 100.992 66.3592L100.875 66.7031C100.685 67.2664 100.481 67.8217 100.261 68.3682C100.209 68.4997 100.161 68.6081 100.116 68.712L100.061 68.84C99.8418 69.3473 99.6179 69.8591 99.3788 70.3549C99.3202 70.4749 99.2322 70.6482 99.1451 70.8188C98.8661 71.359 98.6351 71.7935 98.3934 72.2111C98.2628 72.4359 98.1349 72.6474 98.0051 72.8579C97.8443 73.1183 97.6862 73.3671 97.5245 73.6096L97.2748 73.9846L97.4632 74.3933C98.5676 76.7915 99.2207 79.2154 99.4037 81.5993C99.6072 84.2587 99.178 86.967 98.1367 89.653H99.8542C100.824 86.9314 101.217 84.185 101.01 81.4767C100.823 79.0377 100.183 76.5676 99.1105 74.1277C99.1976 73.9908 99.2855 73.8504 99.3744 73.7074C99.513 73.4844 99.6472 73.2604 99.7876 73.0205C100.042 72.5798 100.285 72.124 100.577 71.5562C100.672 71.3723 100.765 71.1893 100.829 71.0578C101.079 70.538 101.312 70.0066 101.542 69.4753L101.595 69.3518C101.645 69.2372 101.696 69.1154 101.755 68.9715C101.973 68.4322 102.185 67.86 102.402 67.2193L102.522 66.8657C104.23 61.6127 104.594 56.1189 103.544 51.399Z" fill="white"/>
<path d="M93.9344 49.4386C92.302 49.4161 90.8679 49.0697 89.6322 48.3996C88.4169 47.7297 87.4705 46.7982 86.793 45.6051C86.136 44.4123 85.8182 43.0405 85.8396 41.4897L85.9262 35.215C85.9476 33.6642 86.303 32.3119 86.9924 31.1581C87.7026 29.9841 88.6743 29.0791 89.9076 28.443C91.1614 27.8073 92.6045 27.5006 94.2369 27.5231C95.8489 27.5454 97.2729 27.8814 98.5089 28.5311C99.7452 29.1605 100.693 30.0205 101.351 31.1113C102.03 32.2024 102.36 33.4009 102.342 34.7068L102.34 34.8599C102.339 34.9619 102.297 35.0532 102.214 35.1337C102.152 35.194 102.07 35.2235 101.968 35.2221L97.6215 35.1621C97.5194 35.1607 97.428 35.1288 97.3473 35.0665C97.2872 34.984 97.2578 34.8918 97.2592 34.7898C97.2702 33.994 96.9938 33.3166 96.4301 32.7578C95.887 32.1788 95.136 31.8827 94.1769 31.8695C93.2383 31.8566 92.479 32.1522 91.8992 32.7565C91.3194 33.3608 91.0228 34.1526 91.0093 35.1321L90.9184 41.7129C90.9049 42.6923 91.2102 43.4925 91.8343 44.1134C92.4585 44.7343 93.25 45.0513 94.2091 45.0646C95.1069 45.077 95.8346 44.8523 96.392 44.3906C96.9497 43.9085 97.2345 43.2389 97.2463 42.3819L97.2581 41.5248C97.2595 41.4228 97.2092 41.3711 97.1072 41.3697L94.0464 41.3274C93.9443 41.326 93.8529 41.2941 93.7722 41.2318C93.7121 41.1493 93.6827 41.0571 93.6841 40.9551L93.7306 37.5882C93.732 37.4861 93.7638 37.4049 93.8258 37.3446C93.9086 37.2641 94.001 37.2245 94.103 37.2259L101.939 37.3341C102.041 37.3355 102.122 37.3774 102.182 37.4599C102.263 37.5222 102.302 37.6044 102.301 37.7064L102.243 41.8692C102.222 43.3996 101.857 44.7415 101.147 45.8951C100.458 47.0489 99.4861 47.9335 98.2327 48.5489C96.9996 49.1646 95.5669 49.4611 93.9344 49.4386ZM116.291 49.5022C116.087 49.4994 115.945 49.4056 115.866 49.2208L112.367 41.0292C112.327 40.947 112.267 40.9054 112.185 40.9043L110.165 40.8764C110.063 40.875 110.011 40.9253 110.01 41.0273L109.899 49.0466C109.898 49.1487 109.856 49.2399 109.773 49.3204C109.711 49.3808 109.629 49.4103 109.527 49.4089L105.18 49.3489C105.078 49.3475 104.987 49.3156 104.906 49.2533C104.846 49.1708 104.817 49.0786 104.818 48.9765L105.104 28.2854C105.105 28.1834 105.137 28.1022 105.199 28.0418C105.282 27.9613 105.374 27.9218 105.476 27.9232L114.567 28.0486C115.913 28.0672 117.093 28.359 118.106 28.9241C119.118 29.4891 119.893 30.2855 120.43 31.3134C120.988 32.3212 121.257 33.478 121.239 34.784C121.221 36.1511 120.868 37.33 120.18 38.3206C119.493 39.3111 118.545 40.0226 117.334 40.4549C117.232 40.4943 117.2 40.5653 117.24 40.6679L121.164 49.1409C121.203 49.2231 121.223 49.2846 121.222 49.3254C121.22 49.4886 121.107 49.5687 120.882 49.5656L116.291 49.5022ZM110.283 32.3367C110.181 32.3353 110.129 32.3856 110.128 32.4876L110.068 36.834C110.066 36.936 110.117 36.9877 110.219 36.9891L113.616 37.036C114.371 37.0465 114.986 36.8508 115.461 36.4492C115.936 36.0272 116.179 35.4693 116.188 34.7755C116.198 34.0613 115.971 33.4867 115.508 33.0517C115.044 32.6167 114.435 32.394 113.68 32.3836L110.283 32.3367ZM139.067 32.3666C139.066 32.4686 139.024 32.5599 138.941 32.6404C138.879 32.7008 138.797 32.7302 138.695 32.7288L129.084 32.5962C128.982 32.5948 128.93 32.6451 128.929 32.7471L128.877 36.5119C128.876 36.6139 128.926 36.6657 129.028 36.6671L135.18 36.752C135.282 36.7534 135.363 36.7953 135.423 36.8778C135.504 36.9401 135.544 37.0223 135.542 37.1243L135.493 40.7055C135.492 40.8075 135.449 40.8988 135.367 40.9793C135.305 41.0397 135.223 41.0691 135.121 41.0677L128.968 40.9828C128.866 40.9814 128.815 41.0317 128.813 41.1338L128.757 45.174C128.756 45.2761 128.806 45.3278 128.908 45.3292L138.519 45.4618C138.621 45.4632 138.702 45.5052 138.762 45.5876C138.843 45.65 138.883 45.7322 138.882 45.8342L138.832 49.446C138.83 49.548 138.788 49.6392 138.705 49.7197C138.643 49.7801 138.561 49.8096 138.459 49.8082L123.982 49.6084C123.88 49.607 123.788 49.5751 123.707 49.5128C123.647 49.4303 123.618 49.338 123.619 49.236L123.905 28.5449C123.906 28.4429 123.938 28.3617 124 28.3013C124.083 28.2208 124.175 28.1813 124.277 28.1827L138.755 28.3825C138.857 28.3839 138.938 28.4258 138.998 28.5083C139.079 28.5706 139.119 28.6528 139.117 28.7548L139.067 32.3666ZM155.268 50.0402C155.043 50.0371 154.902 49.9331 154.843 49.7282L154.085 46.9931C154.046 46.9109 153.995 46.8694 153.934 46.8685L146.955 46.7722C146.894 46.7714 146.842 46.8115 146.8 46.8925L145.967 49.6057C145.903 49.8089 145.759 49.9089 145.534 49.9058L140.851 49.8412C140.729 49.8395 140.637 49.8076 140.577 49.7456C140.517 49.6631 140.508 49.5507 140.551 49.4085L147.387 28.8077C147.451 28.6045 147.585 28.5043 147.789 28.5072L153.574 28.587C153.778 28.5898 153.909 28.6937 153.968 28.8986L160.263 49.6805C160.283 49.7216 160.292 49.7728 160.291 49.834C160.289 50.0176 160.175 50.1079 159.951 50.1048L155.268 50.0402ZM148.083 42.6855C148.061 42.8076 148.101 42.8694 148.203 42.8708L152.764 42.9338C152.886 42.9355 152.928 42.8748 152.889 42.7518L150.671 34.8534C150.652 34.7715 150.621 34.7405 150.58 34.7603C150.54 34.7598 150.509 34.7899 150.487 34.8509L148.083 42.6855ZM175.476 28.8893C175.578 28.8907 175.659 28.9326 175.719 29.0151C175.8 29.0774 175.84 29.1596 175.838 29.2616L175.788 32.904C175.787 33.006 175.744 33.0973 175.662 33.1778C175.6 33.2382 175.518 33.2676 175.416 33.2662L170.059 33.1923C169.957 33.1909 169.905 33.2412 169.904 33.3432L169.676 49.8717C169.674 49.9737 169.632 50.0649 169.55 50.1454C169.488 50.2058 169.406 50.2353 169.303 50.2339L164.957 50.1739C164.855 50.1725 164.764 50.1406 164.683 50.0783C164.623 49.9958 164.593 49.9036 164.595 49.8015L164.823 33.2731C164.824 33.1711 164.774 33.1194 164.672 33.118L159.499 33.0466C159.397 33.0452 159.306 33.0133 159.225 32.9509C159.165 32.8685 159.136 32.7762 159.137 32.6742L159.187 29.0318C159.189 28.9298 159.22 28.8486 159.283 28.7882C159.365 28.7077 159.458 28.6682 159.56 28.6696L175.476 28.8893Z" fill="#A8A8A8"/>
<path d="M106.423 76.1966C104.832 76.1746 103.438 75.8594 102.242 75.251C101.046 74.6427 100.13 73.7932 99.4916 72.7027C98.8538 71.5918 98.5446 70.3324 98.564 68.9244L98.589 67.1185C98.5904 67.0165 98.6221 66.9353 98.6842 66.8749C98.7669 66.7944 98.8593 66.7549 98.9613 66.7563L103.308 66.8163C103.41 66.8177 103.491 66.8596 103.551 66.9421C103.632 67.0044 103.671 67.0866 103.67 67.1887L103.645 68.9639C103.634 69.821 103.879 70.5183 104.382 71.0558C104.885 71.573 105.585 71.8378 106.483 71.8502C107.34 71.862 108.048 71.6167 108.606 71.1141C109.164 70.5912 109.449 69.9012 109.461 69.0442L109.656 54.9338C109.657 54.8318 109.689 54.7506 109.751 54.6902C109.834 54.6097 109.926 54.5702 110.028 54.5716L114.344 54.6312C114.446 54.6326 114.527 54.6745 114.587 54.757C114.668 54.8193 114.707 54.9015 114.706 55.0035L114.511 69.1445C114.491 70.5525 114.138 71.7926 113.449 72.8648C112.761 73.937 111.8 74.7707 110.568 75.3659C109.356 75.9411 107.974 76.218 106.423 76.1966ZM125.308 76.549C123.655 76.5262 122.201 76.1796 120.945 75.5092C119.709 74.8186 118.753 73.8666 118.076 72.6531C117.399 71.4396 117.071 70.037 117.093 68.4454L117.178 62.3238C117.199 60.773 117.565 59.4106 118.275 58.2366C118.985 57.0423 119.967 56.1272 121.221 55.4914C122.496 54.8355 123.959 54.519 125.612 54.5418C127.265 54.5646 128.719 54.9214 129.975 55.6122C131.231 56.2827 132.198 57.2246 132.875 58.4381C133.552 59.6312 133.88 61.0032 133.859 62.554L133.775 68.6756C133.753 70.2673 133.386 71.6602 132.676 72.8546C131.966 74.0489 130.973 74.9741 129.699 75.63C128.425 76.2655 126.961 76.5718 125.308 76.549ZM125.368 72.2027C126.348 72.2162 127.138 71.9108 127.738 71.2864C128.359 70.6622 128.677 69.8196 128.691 68.7585L128.779 62.4227C128.793 61.382 128.499 60.5411 127.895 59.9001C127.313 59.239 126.531 58.9016 125.552 58.8881C124.593 58.8749 123.803 59.1905 123.182 59.8351C122.581 60.4595 122.274 61.292 122.259 62.3327L122.172 68.6686C122.157 69.7297 122.441 70.5806 123.025 71.2213C123.628 71.8623 124.409 72.1894 125.368 72.2027ZM149.864 65.4077C149.741 65.4672 149.74 65.5284 149.862 65.5913C151.705 66.5964 152.611 68.2417 152.579 70.5271C152.551 72.5676 151.826 74.0781 150.405 75.0586C148.983 76.039 147.129 76.5134 144.844 76.4819L136.702 76.3695C136.6 76.3681 136.509 76.3362 136.428 76.2739C136.368 76.1914 136.338 76.0992 136.34 75.9972L136.625 55.306C136.627 55.204 136.658 55.1228 136.721 55.0624C136.803 54.982 136.896 54.9424 136.998 54.9438L144.895 55.0528C147.384 55.0872 149.255 55.5824 150.507 56.5385C151.78 57.4949 152.401 59.024 152.372 61.1257C152.345 63.1255 151.509 64.5528 149.864 65.4077ZM141.804 59.3573C141.702 59.3559 141.651 59.4062 141.649 59.5083L141.596 63.3649C141.595 63.4669 141.645 63.5186 141.747 63.5201L144.777 63.5619C145.614 63.5734 146.259 63.4088 146.713 63.0681C147.167 62.707 147.398 62.2 147.407 61.547C147.416 60.8737 147.199 60.3502 146.755 59.9767C146.311 59.6032 145.671 59.4107 144.835 59.3992L141.804 59.3573ZM144.904 72.1049C145.72 72.1162 146.356 71.9413 146.809 71.5802C147.264 71.1987 147.496 70.6508 147.506 69.9366C147.515 69.2428 147.298 68.7092 146.854 68.3357C146.431 67.9421 145.801 67.7395 144.965 67.728L141.69 67.6828C141.587 67.6814 141.536 67.7317 141.534 67.8337L141.478 71.9046C141.477 72.0066 141.527 72.0583 141.629 72.0597L144.904 72.1049ZM157.594 69.1881C157.492 69.1866 157.4 69.1548 157.32 69.0924C157.259 69.01 157.23 68.9177 157.232 68.8157L156.894 55.5858C156.897 55.3409 157.021 55.2202 157.266 55.2235L161.612 55.2835C161.857 55.2869 161.978 55.411 161.975 55.6559L161.272 68.8714C161.27 68.9735 161.228 69.0647 161.146 69.1452C161.084 69.2056 161.001 69.2351 160.899 69.2337L157.594 69.1881ZM158.93 76.6457C158.154 76.635 157.515 76.3813 157.012 75.8845C156.529 75.3676 156.293 74.7214 156.304 73.946C156.314 73.1706 156.568 72.5414 157.064 72.0585C157.581 71.5758 158.227 71.3398 159.003 71.3505C159.778 71.3612 160.407 71.6148 160.89 72.1113C161.394 72.608 161.64 73.2441 161.629 74.0195C161.619 74.7745 161.355 75.4036 160.838 75.9067C160.341 76.4101 159.705 76.6564 158.93 76.6457Z" fill="#A8A8A8"/>
<path d="M93.9344 46.9451C92.302 46.9226 90.8679 46.5763 89.6322 45.9061C88.4169 45.2362 87.4705 44.3047 86.793 43.1117C86.136 41.9188 85.8182 40.547 85.8396 38.9962L85.9262 32.7215C85.9476 31.1707 86.303 29.8184 86.9924 28.6646C87.7026 27.4907 88.6743 26.5857 89.9076 25.9496C91.1614 25.3138 92.6045 25.0072 94.2369 25.0297C95.8489 25.0519 97.2729 25.3879 98.5089 26.0377C99.7452 26.667 100.693 27.5271 101.351 28.6179C102.03 29.7089 102.36 30.9074 102.342 32.2134L102.34 32.3664C102.339 32.4684 102.297 32.5597 102.214 32.6402C102.152 32.7006 102.07 32.7301 101.968 32.7286L97.6215 32.6687C97.5194 32.6673 97.428 32.6354 97.3473 32.573C97.2872 32.4906 97.2578 32.3983 97.2592 32.2963C97.2702 31.5005 96.9938 30.8232 96.4301 30.2643C95.887 29.6854 95.136 29.3893 94.1769 29.376C93.2383 29.3631 92.479 29.6587 91.8992 30.263C91.3194 30.8673 91.0228 31.6592 91.0093 32.6386L90.9184 39.2194C90.9049 40.1988 91.2102 40.999 91.8343 41.6199C92.4585 42.2408 93.25 42.5579 94.2091 42.5711C95.1069 42.5835 95.8346 42.3588 96.392 41.8971C96.9497 41.415 97.2345 40.7454 97.2463 39.8884L97.2581 39.0314C97.2595 38.9293 97.2092 38.8776 97.1072 38.8762L94.0464 38.834C93.9443 38.8326 93.8529 38.8007 93.7722 38.7383C93.7121 38.6559 93.6827 38.5636 93.6841 38.4616L93.7306 35.0947C93.732 34.9927 93.7638 34.9115 93.8258 34.8511C93.9086 34.7706 94.001 34.7311 94.103 34.7325L101.939 34.8406C102.041 34.842 102.122 34.884 102.182 34.9664C102.263 35.0288 102.302 35.111 102.301 35.213L102.243 39.3757C102.222 40.9061 101.857 42.2481 101.147 43.4016C100.458 44.5554 99.4861 45.44 98.2327 46.0554C96.9996 46.6711 95.5669 46.9677 93.9344 46.9451ZM116.291 47.0088C116.087 47.006 115.945 46.9122 115.866 46.7274L112.367 38.5358C112.327 38.4536 112.267 38.4119 112.185 38.4108L110.165 38.3829C110.063 38.3815 110.011 38.4318 110.01 38.5338L109.899 46.5532C109.898 46.6552 109.856 46.7465 109.773 46.827C109.711 46.8873 109.629 46.9168 109.527 46.9154L105.18 46.8554C105.078 46.854 104.987 46.8221 104.906 46.7598C104.846 46.6773 104.817 46.5851 104.818 46.4831L105.104 25.7919C105.105 25.6899 105.137 25.6087 105.199 25.5483C105.282 25.4678 105.374 25.4283 105.476 25.4297L114.567 25.5552C115.913 25.5738 117.093 25.8656 118.106 26.4306C119.118 26.9956 119.893 27.7921 120.43 28.8199C120.988 29.8277 121.257 30.9846 121.239 32.2905C121.221 33.6577 120.868 34.8365 120.18 35.8271C119.493 36.8177 118.545 37.5291 117.334 37.9614C117.232 38.0008 117.2 38.0718 117.24 38.1744L121.164 46.6474C121.203 46.7296 121.223 46.7911 121.222 46.8319C121.22 46.9952 121.107 47.0752 120.882 47.0721L116.291 47.0088ZM110.283 29.8432C110.181 29.8418 110.129 29.8921 110.128 29.9942L110.068 34.3405C110.066 34.4425 110.117 34.4943 110.219 34.4957L113.616 34.5426C114.371 34.553 114.986 34.3574 115.461 33.9557C115.936 33.5337 116.179 32.9758 116.188 32.282C116.198 31.5678 115.971 30.9932 115.508 30.5582C115.044 30.1233 114.435 29.9005 113.68 29.8901L110.283 29.8432ZM139.067 29.8731C139.066 29.9752 139.024 30.0664 138.941 30.1469C138.879 30.2073 138.797 30.2368 138.695 30.2354L129.084 30.1027C128.982 30.1013 128.93 30.1516 128.929 30.2536L128.877 34.0185C128.876 34.1205 128.926 34.1722 129.028 34.1736L135.18 34.2585C135.282 34.2599 135.363 34.3019 135.423 34.3843C135.504 34.4467 135.544 34.5289 135.542 34.6309L135.493 38.212C135.492 38.3141 135.449 38.4053 135.367 38.4858C135.305 38.5462 135.223 38.5757 135.121 38.5743L128.968 38.4894C128.866 38.4879 128.815 38.5383 128.813 38.6403L128.757 42.6806C128.756 42.7826 128.806 42.8343 128.908 42.8357L138.519 42.9684C138.621 42.9698 138.702 43.0117 138.762 43.0942C138.843 43.1565 138.883 43.2387 138.882 43.3407L138.832 46.9525C138.83 47.0545 138.788 47.1458 138.705 47.2263C138.643 47.2866 138.561 47.3161 138.459 47.3147L123.982 47.1149C123.88 47.1135 123.788 47.0816 123.707 47.0193C123.647 46.9368 123.618 46.8446 123.619 46.7425L123.905 26.0514C123.906 25.9494 123.938 25.8682 124 25.8078C124.083 25.7273 124.175 25.6878 124.277 25.6892L138.755 25.889C138.857 25.8904 138.938 25.9323 138.998 26.0148C139.079 26.0772 139.119 26.1593 139.117 26.2614L139.067 29.8731ZM155.268 47.5467C155.043 47.5436 154.902 47.4396 154.843 47.2347L154.085 44.4996C154.046 44.4174 153.995 44.3759 153.934 44.375L146.955 44.2787C146.894 44.2779 146.842 44.318 146.8 44.3991L145.967 47.1122C145.903 47.3154 145.759 47.4155 145.534 47.4124L140.851 47.3477C140.729 47.346 140.637 47.3142 140.577 47.2521C140.517 47.1696 140.508 47.0573 140.551 46.915L147.387 26.3143C147.451 26.1111 147.585 26.0109 147.789 26.0137L153.574 26.0935C153.778 26.0963 153.909 26.2002 153.968 26.4051L160.263 47.187C160.283 47.2281 160.292 47.2793 160.291 47.3405C160.289 47.5242 160.175 47.6144 159.951 47.6113L155.268 47.5467ZM148.083 40.192C148.061 40.3142 148.101 40.376 148.203 40.3774L152.764 40.4403C152.886 40.442 152.928 40.3813 152.889 40.2583L150.671 32.3599C150.652 32.278 150.621 32.247 150.58 32.2669C150.54 32.2663 150.509 32.2965 150.487 32.3574L148.083 40.192ZM175.476 26.3958C175.578 26.3972 175.659 26.4391 175.719 26.5216C175.8 26.584 175.84 26.6661 175.838 26.7682L175.788 30.4105C175.787 30.5126 175.744 30.6038 175.662 30.6843C175.6 30.7447 175.518 30.7742 175.416 30.7728L170.059 30.6988C169.957 30.6974 169.905 30.7477 169.904 30.8498L169.676 47.3782C169.674 47.4802 169.632 47.5715 169.55 47.652C169.488 47.7123 169.406 47.7418 169.303 47.7404L164.957 47.6804C164.855 47.679 164.764 47.6471 164.683 47.5848C164.623 47.5023 164.593 47.4101 164.595 47.3081L164.823 30.7796C164.824 30.6776 164.774 30.6259 164.672 30.6245L159.499 30.5531C159.397 30.5517 159.306 30.5198 159.225 30.4575C159.165 30.375 159.136 30.2828 159.137 30.1807L159.187 26.5384C159.189 26.4363 159.22 26.3551 159.283 26.2948C159.365 26.2143 159.458 26.1747 159.56 26.1761L175.476 26.3958Z" fill="white"/>
<path d="M106.423 73.7031C104.832 73.6811 103.438 73.366 102.242 72.7576C101.046 72.1492 100.13 71.2998 99.4916 70.2093C98.8538 69.0984 98.5446 67.8389 98.564 66.4309L98.589 64.6251C98.5904 64.523 98.6221 64.4418 98.6842 64.3815C98.7669 64.301 98.8593 64.2614 98.9613 64.2628L103.308 64.3228C103.41 64.3242 103.491 64.3662 103.551 64.4486C103.632 64.511 103.671 64.5932 103.67 64.6952L103.645 66.4705C103.634 67.3275 103.879 68.0248 104.382 68.5624C104.885 69.0796 105.585 69.3443 106.483 69.3567C107.34 69.3686 108.048 69.1232 108.606 68.6207C109.164 68.0977 109.449 67.4078 109.461 66.5507L109.656 52.4404C109.657 52.3383 109.689 52.2571 109.751 52.1968C109.834 52.1163 109.926 52.0767 110.028 52.0781L114.344 52.1377C114.446 52.1391 114.527 52.181 114.587 52.2635C114.668 52.3258 114.707 52.408 114.706 52.5101L114.511 66.651C114.491 68.059 114.138 69.2991 113.449 70.3713C112.761 71.4435 111.8 72.2772 110.568 72.8725C109.356 73.4476 107.974 73.7245 106.423 73.7031ZM125.308 74.0556C123.655 74.0328 122.201 73.6861 120.945 73.0157C119.709 72.3251 118.753 71.3731 118.076 70.1596C117.399 68.9461 117.071 67.5436 117.093 65.9519L117.178 59.8303C117.199 58.2795 117.565 56.9171 118.275 55.7432C118.985 54.5488 119.967 53.6338 121.221 52.998C122.496 52.342 123.959 52.0255 125.612 52.0483C127.265 52.0711 128.719 52.4279 129.975 53.1188C131.231 53.7892 132.198 54.7312 132.875 55.9447C133.552 57.1378 133.88 58.5097 133.859 60.0605L133.775 66.1822C133.753 67.7738 133.386 69.1668 132.676 70.3611C131.966 71.5555 130.973 72.4806 129.699 73.1365C128.425 73.772 126.961 74.0784 125.308 74.0556ZM125.368 69.7092C126.348 69.7227 127.138 69.4173 127.738 68.7929C128.359 68.1688 128.677 67.3262 128.691 66.2651L128.779 59.9292C128.793 58.8885 128.499 58.0477 127.895 57.4066C127.313 56.7455 126.531 56.4082 125.552 56.3947C124.593 56.3814 123.803 56.6971 123.182 57.3416C122.581 57.966 122.274 58.7985 122.259 59.8392L122.172 66.1751C122.157 67.2362 122.441 68.0871 123.025 68.7278C123.628 69.3688 124.409 69.696 125.368 69.7092ZM149.864 62.9142C149.741 62.9738 149.74 63.035 149.862 63.0979C151.705 64.103 152.611 65.7482 152.579 68.0336C152.551 70.0742 151.826 71.5847 150.405 72.5651C148.983 73.5455 147.129 74.02 144.844 73.9884L136.702 73.8761C136.6 73.8747 136.509 73.8428 136.428 73.7804C136.368 73.698 136.338 73.6057 136.34 73.5037L136.625 52.8126C136.627 52.7105 136.658 52.6293 136.721 52.569C136.803 52.4885 136.896 52.4489 136.998 52.4503L144.895 52.5593C147.384 52.5937 149.255 53.0889 150.507 54.045C151.78 55.0014 152.401 56.5305 152.372 58.6323C152.345 60.632 151.509 62.0593 149.864 62.9142ZM141.804 56.8639C141.702 56.8625 141.651 56.9128 141.649 57.0148L141.596 60.8714C141.595 60.9735 141.645 61.0252 141.747 61.0266L144.777 61.0684C145.614 61.08 146.259 60.9154 146.713 60.5747C147.167 60.2136 147.398 59.7065 147.407 59.0536C147.416 58.3802 147.199 57.8567 146.755 57.4833C146.311 57.1098 145.671 56.9172 144.835 56.9057L141.804 56.8639ZM144.904 69.6115C145.72 69.6227 146.356 69.4478 146.809 69.0867C147.264 68.7052 147.496 68.1574 147.506 67.4432C147.515 66.7494 147.298 66.2157 146.854 65.8422C146.431 65.4486 145.801 65.246 144.965 65.2345L141.69 65.1893C141.587 65.1879 141.536 65.2382 141.534 65.3402L141.478 69.4111C141.477 69.5131 141.527 69.5649 141.629 69.5663L144.904 69.6115ZM157.594 66.6946C157.492 66.6932 157.4 66.6613 157.32 66.599C157.259 66.5165 157.23 66.4242 157.232 66.3222L156.894 53.0923C156.897 52.8474 157.021 52.7267 157.266 52.7301L161.612 52.7901C161.857 52.7934 161.978 52.9176 161.975 53.1624L161.272 66.378C161.27 66.48 161.228 66.5713 161.146 66.6518C161.084 66.7121 161.001 66.7416 160.899 66.7402L157.594 66.6946ZM158.93 74.1522C158.154 74.1415 157.515 73.8878 157.012 73.391C156.529 72.8741 156.293 72.228 156.304 71.4526C156.314 70.6772 156.568 70.048 157.064 69.565C157.581 69.0823 158.227 68.8463 159.003 68.857C159.778 68.8677 160.407 69.1213 160.89 69.6178C161.394 70.1146 161.64 70.7507 161.629 71.5261C161.619 72.2811 161.355 72.9101 160.838 73.4132C160.341 73.9166 159.705 74.1629 158.93 74.1522Z" fill="white"/>
<path d="M20.6139 19.9494L41.8232 50.0546L54.8428 39.9325L32.3736 0L20.6139 19.9494Z" fill="#781C42"/>
<path d="M72.9024 2.96503L44.9731 34.6484L56.5232 49.2754L77.784 25.8288L72.9024 2.96503Z" fill="#781C42"/>
<path d="M20.6139 19.9494L77.7839 25.8288L72.9023 2.96503L32.3736 0L20.6139 19.9494Z" fill="#C7212D"/>
<path d="M30.2181 3.65631L28.8489 5.98071L74.2512 9.28251L73.7252 6.82126L30.2181 3.65631Z" fill="#E0982A"/>
<path d="M76.6715 20.6184L76.1446 18.1518L24.1281 13.9882L22.7633 16.3028L76.6715 20.6184Z" fill="#E0982A"/>
<path d="M77.235 63.7144C80.368 47.5165 69.7768 31.8458 53.5789 28.7128C37.3811 25.5798 21.7103 36.1709 18.5773 52.3688C15.4443 68.5667 26.0355 84.2374 42.2334 87.3704C58.4312 90.5034 74.102 79.9122 77.235 63.7144Z" fill="#FFC960"/>
<path d="M29.9719 36.1971C43.3221 26.5041 62.0026 29.4682 71.6956 42.8184C76.3578 49.239 78.0842 56.8919 77.1424 64.1859C78.8146 56.2175 77.2428 47.5987 72.0821 40.4914C62.3891 27.1411 43.7086 24.1761 30.3584 33.87C23.4287 38.9018 19.305 46.3548 18.2894 54.2272C19.7582 47.2282 23.729 40.7295 29.9719 36.1971Z" fill="white"/>
<path d="M65.1801 45.5036C72.1053 55.042 69.9871 68.3887 60.4495 75.3139C50.9111 82.2392 37.5645 80.1209 30.6392 70.5834C23.714 61.045 25.8323 47.6983 35.3698 40.7731C44.9082 33.8469 58.2549 35.9652 65.1801 45.5036Z" fill="#E0982A"/>
<path d="M44.3111 50.7753L48.4641 44.2339C48.9386 43.4867 50.0644 43.6075 50.3691 44.4392L53.0347 51.7145C53.1556 52.0441 53.431 52.2938 53.7722 52.3818L61.2768 54.3099C62.1342 54.5302 62.367 55.6382 61.6704 56.1847L55.575 60.9677C55.2987 61.1845 55.1468 61.5239 55.1681 61.8749L55.6532 69.6078C55.7083 70.4919 54.7265 71.0552 53.9917 70.5621L47.5587 66.2429C47.2673 66.0465 46.8967 66.0074 46.5697 66.1363L39.3655 68.9867C38.5427 69.3128 37.7031 68.5531 37.9448 67.701L40.0639 60.248C40.1599 59.9094 40.0835 59.546 39.8595 59.275L34.922 53.3041C34.3578 52.6217 34.8207 51.5883 35.7057 51.5554L43.4483 51.2684C43.8002 51.2578 44.1227 51.0721 44.3111 50.7753Z" fill="#FFC960"/>
<path d="M61.2759 54.3099L53.7713 52.3818C53.431 52.2938 53.1547 52.045 53.0339 51.7145L50.3683 44.4392C50.0635 43.6075 48.9377 43.4867 48.4632 44.2339L44.3102 50.7753C44.1218 51.0721 43.7993 51.2569 43.4483 51.2702L35.7057 51.5572C34.8207 51.5901 34.3578 52.6235 34.922 53.3059L35.1237 53.5502C35.2436 53.4969 35.3716 53.4569 35.5173 53.4516L43.26 53.1646C43.6118 53.1512 43.9335 52.9664 44.1227 52.6697L48.2757 46.1283C48.7502 45.381 49.876 45.5019 50.1808 46.3335L52.8464 53.6088C52.9672 53.9394 53.2426 54.1882 53.5838 54.2761L61.0884 56.2042C61.2208 56.238 61.3327 56.2993 61.4349 56.3704L61.6713 56.1856C62.3661 55.6383 62.1342 54.5302 61.2759 54.3099Z" fill="white"/>
</svg>
