<svg width="23" height="15" viewBox="0 0 23 15" fill="none" xmlns="http://www.w3.org/2000/svg">
<rect x="1.14404" y="0.701996" width="21.5" height="13.5" fill="#46181D" stroke="black" stroke-width="0.5"/>
<path d="M10.6935 3.976C10.5335 5.288 10.4535 6.628 10.4535 7.996C10.4535 9.356 10.5095 10.58 10.6215 11.668L9.01354 11.512C8.95754 10.576 8.92954 9.664 8.92954 8.776C8.92954 7.88 8.96154 7.032 9.02554 6.232L8.35354 7.132L7.44154 6.364C7.94554 5.628 8.47754 4.724 9.03754 3.652L10.6935 3.976ZM13.758 5.056C13.478 5.056 13.25 5.404 13.074 6.1C12.898 6.796 12.81 7.504 12.81 8.224C12.81 8.936 12.89 9.468 13.05 9.82C13.218 10.172 13.442 10.348 13.722 10.348C13.938 10.348 14.138 10.072 14.322 9.52C14.514 8.96 14.61 8.332 14.61 7.636C14.61 5.916 14.326 5.056 13.758 5.056ZM11.25 8.428C11.25 7.668 11.342 6.94 11.526 6.244C11.718 5.54 12.01 4.948 12.402 4.468C12.794 3.98 13.258 3.736 13.794 3.736C14.33 3.736 14.782 3.916 15.15 4.276C15.83 4.956 16.17 6.076 16.17 7.636C16.17 8.316 16.05 8.972 15.81 9.604C15.57 10.228 15.262 10.728 14.886 11.104C14.51 11.48 14.122 11.668 13.722 11.668C12.954 11.668 12.35 11.372 11.91 10.78C11.47 10.188 11.25 9.404 11.25 8.428Z" fill="white"/>
</svg>
