<svg width="23" height="26" viewBox="0 0 23 26" fill="none" xmlns="http://www.w3.org/2000/svg">
<path d="M16.894 12.202H22.644V25.702H1.14404V12.202H6.89404H7.14404V11.952V1.20197H11.894H16.644V11.952V12.202H16.894Z" fill="#46181D"/>
<path d="M16.894 12.202H22.644V25.702H1.14404V12.202H6.89404H7.14404V11.952V1.20197H11.894H16.644V11.952V12.202H16.894Z" fill="black" fill-opacity="0.2"/>
<path d="M16.894 12.202H22.644V25.702H1.14404V12.202H6.89404H7.14404V11.952V1.20197H11.894H16.644V11.952V12.202H16.894Z" stroke="black" stroke-width="0.5"/>
<path d="M11.528 14.9834C11.368 16.2954 11.288 17.6354 11.288 19.0034C11.288 20.3634 11.344 21.5874 11.456 22.6754L9.84795 22.5194C9.79195 21.5834 9.76395 20.6714 9.76395 19.7834C9.76395 18.8874 9.79596 18.0394 9.85996 17.2394L9.18795 18.1394L8.27595 17.3714C8.77995 16.6354 9.31195 15.7314 9.87196 14.6594L11.528 14.9834ZM14.5925 16.0633C14.3125 16.0633 14.0845 16.4114 13.9085 17.1074C13.7325 17.8034 13.6445 18.5114 13.6445 19.2314C13.6445 19.9434 13.7245 20.4754 13.8845 20.8274C14.0525 21.1794 14.2765 21.3554 14.5565 21.3554C14.7725 21.3554 14.9725 21.0794 15.1565 20.5274C15.3485 19.9674 15.4445 19.3394 15.4445 18.6434C15.4445 16.9234 15.1605 16.0633 14.5925 16.0633ZM12.0845 19.4354C12.0845 18.6754 12.1765 17.9474 12.3605 17.2514C12.5525 16.5474 12.8445 15.9554 13.2365 15.4754C13.6285 14.9874 14.0925 14.7434 14.6285 14.7434C15.1645 14.7434 15.6165 14.9234 15.9845 15.2833C16.6645 15.9634 17.0045 17.0834 17.0045 18.6434C17.0045 19.3234 16.8845 19.9794 16.6445 20.6114C16.4045 21.2354 16.0965 21.7354 15.7205 22.1114C15.3445 22.4874 14.9565 22.6754 14.5565 22.6754C13.7885 22.6754 13.1845 22.3794 12.7445 21.7874C12.3045 21.1954 12.0845 20.4114 12.0845 19.4354Z" fill="white"/>
</svg>
