<svg width="11" height="13" viewBox="0 0 11 13" fill="none" xmlns="http://www.w3.org/2000/svg">
<rect x="1.14404" y="0.701996" width="9.5" height="11.5" fill="#F0BCA5" stroke="black" stroke-width="0.5"/>
<path d="M5.73354 2.976C5.57354 4.288 5.49354 5.628 5.49354 6.996C5.49354 8.356 5.54954 9.58 5.66154 10.668L4.05354 10.512C3.99754 9.576 3.96954 8.664 3.96954 7.776C3.96954 6.88 4.00154 6.032 4.06554 5.232L3.39354 6.132L2.48154 5.364C2.98554 4.628 3.51754 3.724 4.07754 2.652L5.73354 2.976ZM9.02604 2.976C8.86604 4.288 8.78604 5.628 8.78604 6.996C8.78604 8.356 8.84204 9.58 8.95404 10.668L7.34604 10.512C7.29004 9.576 7.26204 8.664 7.26204 7.776C7.26204 6.88 7.29404 6.032 7.35804 5.232L6.68604 6.132L5.77404 5.364C6.27804 4.628 6.81004 3.724 7.37004 2.652L9.02604 2.976Z" fill="#46181D"/>
</svg>
