<svg width="111" height="45" viewBox="0 0 111 45" fill="none" xmlns="http://www.w3.org/2000/svg">
<rect x="0.25" y="-0.25" width="109.599" height="44.0033" transform="matrix(1 0 0 -1 0.587738 44.5074)" fill="#46181D" stroke="black" stroke-width="0.5"/>
<path d="M56.1495 17.7204C56.7815 17.7204 57.2655 17.9204 57.6015 18.3204C57.9455 18.7204 58.1175 19.2244 58.1175 19.8324C58.1175 20.2404 57.8935 20.8324 57.4455 21.6084C56.9975 22.3764 56.4295 23.1524 55.7415 23.9364C55.9175 23.8724 56.2775 23.8404 56.8215 23.8404C57.3735 23.8404 57.7975 23.8684 58.0935 23.9244L57.9495 25.2804C57.4535 25.2404 57.0375 25.2204 56.7015 25.2204C55.7815 25.2204 54.7575 25.4124 53.6295 25.7964L53.1135 24.7524C53.9855 24.0244 54.7975 23.1324 55.5495 22.0764C56.3015 21.0204 56.6775 20.2724 56.6775 19.8324C56.6775 19.3844 56.5015 19.1604 56.1495 19.1604C55.8615 19.1604 55.5615 19.3284 55.2495 19.6644C54.9455 19.9924 54.6175 20.4524 54.2655 21.0444L53.0655 20.2044C54.1055 18.5484 55.1335 17.7204 56.1495 17.7204Z" fill="white"/>
</svg>
