<svg width="142" height="31" viewBox="0 0 142 31" fill="none" xmlns="http://www.w3.org/2000/svg">
<path d="M103.765 0.939514L140.874 30.572H1.02905L38.2976 0.939517L71.9941 0.939514H103.765Z" fill="#F0BCA5" stroke="black" stroke-width="0.5"/>
<path d="M69.1507 10.0703C69.6307 9.72631 70.0627 9.47831 70.4467 9.32631C70.8387 9.16631 71.2787 9.08631 71.7667 9.08631C72.2547 9.08631 72.6787 9.25031 73.0387 9.57831C73.3987 9.90631 73.5787 10.3663 73.5787 10.9583C73.5787 11.5423 73.1147 12.1583 72.1867 12.8063C72.9867 13.2223 73.3867 13.7863 73.3867 14.4983C73.3867 15.2023 73.1227 15.7823 72.5947 16.2383C72.0667 16.6943 71.5387 16.9223 71.0107 16.9223C70.4827 16.9223 69.9987 16.8383 69.5587 16.6703L69.3427 15.3503C69.6227 15.4383 69.9667 15.4823 70.3747 15.4823C70.7827 15.4823 71.1467 15.3943 71.4667 15.2183C71.7867 15.0343 71.9467 14.8223 71.9467 14.5823C71.9467 14.3343 71.8467 14.1303 71.6467 13.9703C71.4467 13.8023 71.1907 13.7183 70.8787 13.7183C70.5667 13.7183 70.2307 13.7743 69.8707 13.8863L69.4627 12.6503C70.3027 12.3703 70.9467 12.0743 71.3947 11.7623C71.8507 11.4423 72.0787 11.1543 72.0787 10.8983C72.0787 10.6103 71.9227 10.4663 71.6107 10.4663C71.1947 10.4663 70.6307 10.7143 69.9187 11.2103L69.1507 10.0703Z" fill="#46181D"/>
</svg>
