<svg width="67" height="14" viewBox="0 0 67 14" fill="none" xmlns="http://www.w3.org/2000/svg">
<rect x="0.763245" y="0.312012" width="65.096" height="12.9437" fill="#46181D" stroke="black" stroke-width="0.5"/>
<path d="M33.883 9.6625C33.603 9.6625 33.055 9.7105 32.239 9.8065L30.811 8.8345C30.811 8.6425 31.187 7.8745 31.939 6.5305C32.699 5.1785 33.295 4.2665 33.727 3.7945L35.707 3.9865C35.515 5.4905 35.395 6.9425 35.347 8.3425L36.115 8.4145L35.947 9.6745H35.323C35.323 10.5865 35.343 11.3545 35.383 11.9785L33.943 11.8585C33.903 11.2905 33.883 10.5585 33.883 9.6625ZM32.599 8.4145C32.999 8.3585 33.431 8.3305 33.895 8.3305C33.951 7.2745 34.047 6.2865 34.183 5.3665C33.503 6.5425 32.975 7.5585 32.599 8.4145Z" fill="white"/>
</svg>
