<svg width="108" height="22" viewBox="0 0 108 22" fill="none" xmlns="http://www.w3.org/2000/svg">
<path d="M78.7762 0.31369L106.762 21.2541H1.65374L30.178 0.313692L55.6514 0.31369H78.7762Z" fill="#F0BCA5" stroke="black" stroke-width="0.5"/>
<path d="M56.0725 6.30858V7.62858C55.4325 7.62858 54.7325 7.68858 53.9725 7.80858C53.9645 7.88858 53.8805 8.44058 53.7205 9.46458C54.5365 9.46458 55.1845 9.63658 55.6645 9.98058C56.1445 10.3166 56.3845 10.7966 56.3845 11.4206C56.3845 12.8446 55.0685 13.8366 52.4365 14.3966L52.1005 13.1006C53.9165 12.7006 54.8245 12.1806 54.8245 11.5406C54.8245 11.3166 54.7045 11.1326 54.4645 10.9886C54.2325 10.8446 53.9485 10.7726 53.6125 10.7726C53.5085 10.7726 53.2085 10.8246 52.7125 10.9286L52.0165 10.3766L52.6885 6.74058C54.0245 6.45258 55.1525 6.30858 56.0725 6.30858Z" fill="#46181D"/>
</svg>
