<svg width="50" height="13" viewBox="0 0 50 13" fill="none" xmlns="http://www.w3.org/2000/svg">
<rect x="0.796387" y="0.94281" width="48.4073" height="11.0894" fill="#46181D" stroke="black" stroke-width="0.5"/>
<path d="M25.2281 4.62311C25.7241 4.62311 26.1601 4.80311 26.5361 5.16311C26.9121 5.52311 27.1001 6.07511 27.1001 6.81911C27.1001 7.56311 26.8601 8.22311 26.3801 8.79911C25.9081 9.36711 25.3281 9.65111 24.6401 9.65111C23.9521 9.65111 23.4001 9.37511 22.9841 8.82311C22.5761 8.27111 22.3721 7.54311 22.3721 6.63911C22.3721 5.63111 22.5801 4.71111 22.9961 3.87911C23.2201 3.42311 23.4241 3.04311 23.6081 2.73911C23.8001 2.43511 24.0761 2.01911 24.4361 1.49111L26.2841 1.64711C25.2041 2.77511 24.4841 3.84311 24.1241 4.85111C24.5081 4.69911 24.8761 4.62311 25.2281 4.62311ZM23.8841 6.30311L23.8721 6.63911C23.8721 7.14311 23.9481 7.55111 24.1001 7.86311C24.2521 8.17511 24.4481 8.33111 24.6881 8.33111C24.9361 8.33111 25.1481 8.19511 25.3241 7.92311C25.5081 7.65111 25.6001 7.33911 25.6001 6.98711C25.6001 6.62711 25.5321 6.36311 25.3961 6.19511C25.2681 6.02711 25.0921 5.94311 24.8681 5.94311C24.6441 5.94311 24.3161 6.06311 23.8841 6.30311Z" fill="white"/>
</svg>
