<svg width="33" height="9" viewBox="0 0 33 9" fill="none" xmlns="http://www.w3.org/2000/svg">
<rect x="0.362579" y="0.41391" width="31.9503" height="8.07616" fill="#46181D" stroke="black" stroke-width="0.5"/>
<path d="M16.2423 8.64115C15.5943 8.64115 15.0343 8.42915 14.5623 8.00515C14.0903 7.58115 13.8543 7.02915 13.8543 6.34915C13.8543 5.66915 14.1743 5.04115 14.8143 4.46515C14.2943 3.98515 14.0343 3.42115 14.0343 2.77315C14.0343 2.12515 14.2783 1.55315 14.7663 1.05715C15.2543 0.561147 15.8263 0.313148 16.4823 0.313148C17.1383 0.313148 17.6623 0.553148 18.0543 1.03315C18.4543 1.50515 18.6543 1.98915 18.6543 2.48515C18.6543 3.25315 18.2823 3.92115 17.5383 4.48915C17.8663 4.67315 18.1303 4.92115 18.3303 5.23315C18.5383 5.54515 18.6423 5.89715 18.6423 6.28915C18.6423 6.86515 18.4063 7.40115 17.9343 7.89715C17.4623 8.39315 16.8983 8.64115 16.2423 8.64115ZM16.2543 7.32115C16.5103 7.32115 16.7303 7.24115 16.9143 7.08115C17.1063 6.92115 17.2023 6.72115 17.2023 6.48115C17.2023 6.23315 17.1383 6.02115 17.0103 5.84515C16.8823 5.66915 16.7543 5.53715 16.6263 5.44915C16.4983 5.35315 16.3263 5.24515 16.1103 5.12515C15.5663 5.48515 15.2943 5.90115 15.2943 6.37315C15.2943 6.65315 15.3903 6.88115 15.5823 7.05715C15.7743 7.23315 15.9983 7.32115 16.2543 7.32115ZM16.3983 1.63315C16.1503 1.63315 15.9343 1.73315 15.7503 1.93315C15.5663 2.12515 15.4743 2.33715 15.4743 2.56915C15.4743 2.80115 15.5383 3.02915 15.6663 3.25315C15.8023 3.47715 15.9543 3.64115 16.1223 3.74515C16.4663 3.53715 16.7343 3.33715 16.9263 3.14515C17.1183 2.95315 17.2143 2.75315 17.2143 2.54515C17.2143 2.32915 17.1383 2.12515 16.9863 1.93315C16.8423 1.73315 16.6463 1.63315 16.3983 1.63315Z" fill="white"/>
</svg>
