<svg width="69" height="19" viewBox="0 0 69 19" fill="none" xmlns="http://www.w3.org/2000/svg">
<path d="M45.802 0.242615L67.4334 18.6614H1.59152L23.9837 0.242615H34.9096H45.802Z" fill="#F0BCA5" stroke="black" stroke-width="0.5"/>
<path d="M45.802 0.242615L67.4334 18.6614H1.59152L23.9837 0.242615H34.9096H45.802Z" fill="#F0BCA5" stroke="black" stroke-width="0.5"/>
<path d="M34.6278 10.4726C34.0118 10.4726 33.5038 10.2486 33.1038 9.80061C32.7118 9.34461 32.5158 8.80461 32.5158 8.18061C32.5158 7.41261 32.7878 6.71661 33.3318 6.09261C33.8758 5.46861 34.4918 5.15661 35.1798 5.15661C35.7318 5.15661 36.2398 5.37661 36.7038 5.81661C36.9438 6.04861 37.1358 6.38061 37.2798 6.81261C37.4318 7.23661 37.5078 7.73661 37.5078 8.31261C37.5078 9.58461 36.5998 11.3486 34.7838 13.6046L33.6438 12.8006C34.3398 12.0086 34.9678 11.1646 35.5278 10.2686C35.1518 10.4046 34.8518 10.4726 34.6278 10.4726ZM34.7478 9.15261C35.1238 9.15261 35.5478 8.97261 36.0198 8.61261C36.0518 8.42061 36.0678 8.28061 36.0678 8.19261C36.0678 7.59261 35.9758 7.15661 35.7918 6.88461C35.6158 6.61261 35.3918 6.47661 35.1198 6.47661C34.8478 6.47661 34.5838 6.65261 34.3278 7.00461C34.0798 7.35661 33.9558 7.74861 33.9558 8.18061C33.9558 8.44461 34.0278 8.67261 34.1718 8.86461C34.3238 9.05661 34.5158 9.15261 34.7478 9.15261Z" fill="#46181D"/>
</svg>
