<svg width="69" height="29" viewBox="0 0 69 29" fill="none" xmlns="http://www.w3.org/2000/svg">
<path d="M45.7954 9.83862L67.4267 28.2574H1.58489L23.977 9.83862H34.903H45.7954Z" fill="#F0BCA5" stroke="black" stroke-width="0.5"/>
<path d="M45.729 9.782L67.4267 28.2574H1.58489L24.0456 9.78222L24.0462 9.7817L34.9028 0.911639L45.7253 9.77897L45.729 9.782Z" fill="#F0BCA5" stroke="black" stroke-width="0.5"/>
<path d="M34.6212 20.0686C34.0052 20.0686 33.4972 19.8446 33.0972 19.3966C32.7052 18.9406 32.5092 18.4006 32.5092 17.7766C32.5092 17.0086 32.7812 16.3126 33.3252 15.6886C33.8692 15.0646 34.4852 14.7526 35.1732 14.7526C35.7252 14.7526 36.2332 14.9726 36.6972 15.4126C36.9372 15.6446 37.1292 15.9766 37.2732 16.4086C37.4252 16.8326 37.5012 17.3326 37.5012 17.9086C37.5012 19.1806 36.5932 20.9446 34.7772 23.2006L33.6372 22.3966C34.3332 21.6046 34.9612 20.7606 35.5212 19.8646C35.1452 20.0006 34.8452 20.0686 34.6212 20.0686ZM34.7412 18.7486C35.1172 18.7486 35.5412 18.5686 36.0132 18.2086C36.0452 18.0166 36.0612 17.8766 36.0612 17.7886C36.0612 17.1886 35.9692 16.7526 35.7852 16.4806C35.6092 16.2086 35.3852 16.0726 35.1132 16.0726C34.8412 16.0726 34.5772 16.2486 34.3212 16.6006C34.0732 16.9526 33.9492 17.3446 33.9492 17.7766C33.9492 18.0406 34.0212 18.2686 34.1652 18.4606C34.3172 18.6526 34.5092 18.7486 34.7412 18.7486Z" fill="#46181D"/>
</svg>
