<svg width="50" height="50" viewBox="0 0 50 50" fill="none" xmlns="http://www.w3.org/2000/svg">
<g clip-path="url(#clip0_2058_20285)">
<rect width="50" height="50" rx="25" fill="white"/>
<path opacity="0.4" d="M25.1141 27.8941L30.3588 0.771729L26.9657 28.1873L40.3351 4.01305L28.6359 29.0384L48.8212 10.1787L29.9615 30.364L54.9869 18.6649L30.8126 32.0343L58.2282 28.6412L31.1058 33.8858L58.2282 39.1307L30.8126 35.7374L54.9869 49.1068L29.9615 37.4077L48.8212 57.593L28.6359 38.7332L40.3351 63.7586L26.9657 39.5843L30.3588 67L25.1141 39.8775L19.8693 67L23.2626 39.5843L9.89315 63.7586L21.5923 38.7332L1.40698 57.593L20.2667 37.4077L-4.75868 49.1068L19.4156 35.7374L-8 39.1307L19.1224 33.8858L-8 28.6412L19.4156 32.0343L-4.75868 18.6649L20.2667 30.364L1.40698 10.1787L21.5923 29.0384L9.89315 4.01305L23.2626 28.1873L19.8693 0.771729L25.1141 27.8941Z" fill="#EBEBEB"/>
<path d="M5.36169 34.3152L6.41118 34.1212L6.64591 33.0146L6.88047 34.1212L7.92996 34.3158L6.88487 34.571L6.64591 35.6161L6.40679 34.571L5.36169 34.3152Z" fill="#DBDBDB"/>
<path d="M17.5658 6.08434C17.7207 6.08434 17.7209 5.84375 17.5658 5.84375C17.4109 5.84375 17.4108 6.08434 17.5658 6.08434Z" fill="#DBDBDB"/>
<path d="M38.0185 38.857C38.1734 38.857 38.1735 38.6165 38.0185 38.6165C37.8636 38.6165 37.8634 38.857 38.0185 38.857Z" fill="#DBDBDB"/>
<path d="M5.92972 29.2228C6.08446 29.2228 6.08479 28.9822 5.92972 28.9822C5.77481 28.9822 5.77465 29.2228 5.92972 29.2228Z" fill="#DBDBDB"/>
<path d="M45.7289 33.5908C46.1485 33.5908 46.1492 32.9387 45.7289 32.9387C45.3093 32.9387 45.3085 33.5908 45.7289 33.5908Z" fill="#DBDBDB"/>
<path d="M9.91858 21.5716C10.3382 21.5716 10.3388 20.9194 9.91858 20.9194C9.49898 20.9196 9.49833 21.5716 9.91858 21.5716Z" fill="#DBDBDB"/>
<path d="M2.96857 48.1485C3.38817 48.1485 3.38882 47.4963 2.96857 47.4963C2.54897 47.4963 2.54816 48.1485 2.96857 48.1485Z" fill="#DBDBDB"/>
<path d="M7.30029 9.54855L8.34995 9.35455L8.58451 8.24805L8.81907 9.35455L9.86872 9.54904L8.82346 9.80445L8.58451 10.8495L8.34539 9.80445L7.30029 9.54855Z" fill="#FFC727"/>
<path d="M36.0854 30.8903L37.1349 30.6963L37.3695 29.5898L37.6041 30.6963L38.6537 30.891L37.6086 31.1464L37.3695 32.1915L37.1305 31.1464L36.0854 30.8903Z" fill="#FFC727"/>
<path d="M12.681 27.0968L13.2678 26.9884L13.3989 26.3699L13.53 26.9884L14.1166 27.0972L13.5324 27.2399L13.3989 27.824L13.2653 27.2399L12.681 27.0968Z" fill="#FFC727"/>
<path d="M13.5015 6.69108L14.0882 6.5826L14.2193 5.96411L14.3504 6.5826L14.937 6.69141L14.3529 6.8341L14.2193 7.41822L14.0857 6.8341L13.5015 6.69108Z" fill="#FFC727"/>
<path d="M41.4924 11.1292L42.0792 11.0208L42.2101 10.4023L42.3412 11.0208L42.928 11.1295L42.3438 11.2723L42.2101 11.8564L42.0765 11.2723L41.4924 11.1292Z" fill="#FFC727"/>
<path d="M25.6088 0.726809L26.1955 0.618325L26.3266 0L26.4577 0.618325L27.0443 0.727135L26.4602 0.869825L26.3266 1.45394L26.1929 0.869825L25.6088 0.726809Z" fill="#FFC727"/>
<path d="M11.0273 28.5135C11.2462 28.5135 11.2465 28.1733 11.0273 28.1733C10.8085 28.1735 10.808 28.5135 11.0273 28.5135Z" fill="#FFC727"/>
<path d="M39.4514 29.2963C39.6063 29.2963 39.6065 29.0557 39.4514 29.0557C39.2966 29.0557 39.2963 29.2963 39.4514 29.2963Z" fill="#FFC727"/>
<path d="M11.5985 18.6537C11.7534 18.6537 11.7536 18.4131 11.5985 18.4131C11.4438 18.4129 11.4436 18.6537 11.5985 18.6537Z" fill="#FFC727"/>
<path d="M38.6538 6.81139C38.8087 6.81139 38.8088 6.5708 38.6538 6.5708C38.499 6.5708 38.4987 6.81139 38.6538 6.81139Z" fill="#FFC727"/>
<path d="M10.3897 10.6429C10.5445 10.6429 10.5448 10.4023 10.3897 10.4023C10.235 10.4023 10.2347 10.6429 10.3897 10.6429Z" fill="#FFC727"/>
<path d="M41.3671 18.7738C41.522 18.7738 41.5222 18.5332 41.3671 18.5332C41.2122 18.5332 41.212 18.7738 41.3671 18.7738Z" fill="#FFC727"/>
<path d="M30.1573 1.57433C30.3122 1.57433 30.3123 1.33374 30.1573 1.33374C30.0023 1.33374 30.0022 1.57433 30.1573 1.57433Z" fill="#FFC727"/>
<path d="M39.4219 18.6537C39.8415 18.6537 39.8421 18.0015 39.4219 18.0015C39.0023 18.0015 39.0016 18.6537 39.4219 18.6537Z" fill="#FFC727"/>
<path d="M34.1003 6.89683C34.5199 6.89683 34.5206 6.24463 34.1003 6.24463C33.6807 6.24463 33.6801 6.89683 34.1003 6.89683Z" fill="#FFC727"/>
<path d="M14.6803 23.2958C15.0999 23.2958 15.1006 22.6438 14.6803 22.6438C14.2607 22.6438 14.26 23.2958 14.6803 23.2958Z" fill="#FFC727"/>
<path d="M11.4561 28.2046V36.8436C11.4561 38.4141 12.7286 39.6866 14.2986 39.6866H35.9226C37.4926 39.6866 38.7651 38.4141 38.7651 36.8436V28.2046H11.4561Z" fill="#184F78"/>
<path d="M36.7135 16.0701H13.5075C11.8465 16.0701 10.5 17.4166 10.5 19.0781V27.6366C10.5 27.9506 10.7545 28.2051 11.0685 28.2051H39.152C39.466 28.2051 39.7205 27.9506 39.7205 27.6366V19.0781C39.721 17.4166 38.3745 16.0701 36.7135 16.0701Z" fill="#184F78"/>
<path opacity="0.2" d="M38.7651 28.2046H11.4561V29.2736H38.7651V28.2046Z" fill="black"/>
<path opacity="0.2" d="M15.1375 27.2494C15.1375 26.9354 15.392 26.6809 15.706 26.6809H18.753C19.067 26.6809 19.3215 26.9354 19.3215 27.2494V30.2969C19.3215 30.6109 19.067 30.8654 18.753 30.8654H15.706C15.392 30.8654 15.1375 30.6109 15.1375 30.2969V27.2494Z" fill="black"/>
<path d="M15.1375 26.681C15.1375 26.3665 15.392 26.1125 15.706 26.1125H18.753C19.067 26.1125 19.3215 26.3665 19.3215 26.681V29.7281C19.3215 30.0426 19.067 30.2971 18.753 30.2971H15.706C15.392 30.2971 15.1375 30.0426 15.1375 29.7281V26.681Z" fill="#FDC00F"/>
<path opacity="0.2" d="M30.9 27.2494C30.9 26.9354 31.1545 26.6809 31.4685 26.6809H34.5155C34.8295 26.6809 35.084 26.9354 35.084 27.2494V30.2969C35.084 30.6109 34.8295 30.8654 34.5155 30.8654H31.4685C31.1545 30.8654 30.9 30.6109 30.9 30.2969V27.2494Z" fill="black"/>
<path d="M30.9 26.681C30.9 26.3665 31.1545 26.1125 31.4685 26.1125H34.5155C34.8295 26.1125 35.084 26.3665 35.084 26.681V29.7281C35.084 30.0426 34.8295 30.2971 34.5155 30.2971H31.4685C31.1545 30.2971 30.9 30.0426 30.9 29.7281V26.681Z" fill="#FDC00F"/>
<path d="M32.992 16.07H30.718V13.343C30.718 13.029 30.463 12.774 30.1495 12.774H20.072C19.7585 12.774 19.5035 13.029 19.5035 13.343V16.07H17.2295V13.343C17.2295 11.7755 18.505 10.5 20.0725 10.5H30.1495C31.717 10.5 32.9925 11.7755 32.9925 13.343L32.992 16.07Z" fill="#FDC00F"/>
</g>
<defs>
<clipPath id="clip0_2058_20285">
<rect width="50" height="50" rx="25" fill="white"/>
</clipPath>
</defs>
</svg>
