<svg width="50" height="50" viewBox="0 0 50 50" fill="none" xmlns="http://www.w3.org/2000/svg">
<g clip-path="url(#clip0_2024_191)">
<rect width="50" height="50" rx="25" fill="white"/>
<path opacity="0.4" d="M25.1141 27.8941L30.3588 0.771729L26.9657 28.1873L40.3351 4.01305L28.6359 29.0384L48.8212 10.1787L29.9615 30.364L54.9869 18.6649L30.8126 32.0343L58.2282 28.6412L31.1058 33.8858L58.2282 39.1307L30.8126 35.7374L54.9869 49.1068L29.9615 37.4077L48.8212 57.593L28.6359 38.7332L40.3351 63.7586L26.9657 39.5843L30.3588 67L25.1141 39.8775L19.8693 67L23.2626 39.5843L9.89315 63.7586L21.5923 38.7332L1.40698 57.593L20.2667 37.4077L-4.75868 49.1068L19.4156 35.7374L-8 39.1307L19.1224 33.8858L-8 28.6412L19.4156 32.0343L-4.75868 18.6649L20.2667 30.364L1.40698 10.1787L21.5923 29.0384L9.89315 4.01305L23.2626 28.1873L19.8693 0.771729L25.1141 27.8941Z" fill="#EBEBEB"/>
<path d="M5.36169 34.3152L6.41118 34.1212L6.64591 33.0146L6.88047 34.1212L7.92996 34.3158L6.88487 34.571L6.64591 35.6161L6.40679 34.571L5.36169 34.3152Z" fill="#DBDBDB"/>
<path d="M17.5658 6.08434C17.7207 6.08434 17.7209 5.84375 17.5658 5.84375C17.4109 5.84375 17.4108 6.08434 17.5658 6.08434Z" fill="#DBDBDB"/>
<path d="M38.0185 38.857C38.1734 38.857 38.1735 38.6165 38.0185 38.6165C37.8636 38.6165 37.8634 38.857 38.0185 38.857Z" fill="#DBDBDB"/>
<path d="M5.92972 29.2228C6.08446 29.2228 6.08479 28.9822 5.92972 28.9822C5.77481 28.9822 5.77465 29.2228 5.92972 29.2228Z" fill="#DBDBDB"/>
<path d="M45.7289 33.5908C46.1485 33.5908 46.1492 32.9387 45.7289 32.9387C45.3093 32.9387 45.3085 33.5908 45.7289 33.5908Z" fill="#DBDBDB"/>
<path d="M9.91858 21.5716C10.3382 21.5716 10.3388 20.9194 9.91858 20.9194C9.49898 20.9196 9.49833 21.5716 9.91858 21.5716Z" fill="#DBDBDB"/>
<path d="M2.96857 48.1485C3.38817 48.1485 3.38882 47.4963 2.96857 47.4963C2.54897 47.4963 2.54816 48.1485 2.96857 48.1485Z" fill="#DBDBDB"/>
<path d="M7.30029 9.54855L8.34995 9.35455L8.58451 8.24805L8.81907 9.35455L9.86872 9.54904L8.82346 9.80445L8.58451 10.8495L8.34539 9.80445L7.30029 9.54855Z" fill="#FFC727"/>
<path d="M36.0854 30.8903L37.1349 30.6963L37.3695 29.5898L37.6041 30.6963L38.6537 30.891L37.6086 31.1464L37.3695 32.1915L37.1305 31.1464L36.0854 30.8903Z" fill="#FFC727"/>
<path d="M12.681 27.0968L13.2678 26.9884L13.3989 26.3699L13.53 26.9884L14.1166 27.0972L13.5324 27.2399L13.3989 27.824L13.2653 27.2399L12.681 27.0968Z" fill="#FFC727"/>
<path d="M13.5015 6.69108L14.0882 6.5826L14.2193 5.96411L14.3504 6.5826L14.937 6.69141L14.3529 6.8341L14.2193 7.41822L14.0857 6.8341L13.5015 6.69108Z" fill="#FFC727"/>
<path d="M41.4924 11.1292L42.0792 11.0208L42.2101 10.4023L42.3412 11.0208L42.928 11.1295L42.3438 11.2723L42.2101 11.8564L42.0765 11.2723L41.4924 11.1292Z" fill="#FFC727"/>
<path d="M25.6088 0.726809L26.1955 0.618325L26.3266 0L26.4577 0.618325L27.0443 0.727135L26.4602 0.869825L26.3266 1.45394L26.1929 0.869825L25.6088 0.726809Z" fill="#FFC727"/>
<path d="M11.0273 28.5135C11.2462 28.5135 11.2465 28.1733 11.0273 28.1733C10.8085 28.1735 10.808 28.5135 11.0273 28.5135Z" fill="#FFC727"/>
<path d="M39.4514 29.2963C39.6063 29.2963 39.6065 29.0557 39.4514 29.0557C39.2966 29.0557 39.2963 29.2963 39.4514 29.2963Z" fill="#FFC727"/>
<path d="M11.5985 18.6537C11.7534 18.6537 11.7536 18.4131 11.5985 18.4131C11.4438 18.4129 11.4436 18.6537 11.5985 18.6537Z" fill="#FFC727"/>
<path d="M38.6538 6.81139C38.8087 6.81139 38.8088 6.5708 38.6538 6.5708C38.499 6.5708 38.4987 6.81139 38.6538 6.81139Z" fill="#FFC727"/>
<path d="M10.3897 10.6429C10.5445 10.6429 10.5448 10.4023 10.3897 10.4023C10.235 10.4023 10.2347 10.6429 10.3897 10.6429Z" fill="#FFC727"/>
<path d="M41.3671 18.7738C41.522 18.7738 41.5222 18.5332 41.3671 18.5332C41.2122 18.5332 41.212 18.7738 41.3671 18.7738Z" fill="#FFC727"/>
<path d="M30.1573 1.57433C30.3122 1.57433 30.3123 1.33374 30.1573 1.33374C30.0023 1.33374 30.0022 1.57433 30.1573 1.57433Z" fill="#FFC727"/>
<path d="M39.4219 18.6537C39.8415 18.6537 39.8421 18.0015 39.4219 18.0015C39.0023 18.0015 39.0016 18.6537 39.4219 18.6537Z" fill="#FFC727"/>
<path d="M34.1003 6.89683C34.5199 6.89683 34.5206 6.24463 34.1003 6.24463C33.6807 6.24463 33.6801 6.89683 34.1003 6.89683Z" fill="#FFC727"/>
<path d="M14.6803 23.2958C15.0999 23.2958 15.1006 22.6438 14.6803 22.6438C14.2607 22.6438 14.26 23.2958 14.6803 23.2958Z" fill="#FFC727"/>
<path d="M24.7021 9.3385C24.5775 8.39488 24.5591 7.44752 24.6498 6.5C24.7752 7.44361 24.7918 8.39097 24.7021 9.3385Z" fill="#263238"/>
<path d="M18.2212 11.1469C17.6415 10.3921 17.152 9.58076 16.7567 8.71484C17.3371 9.46934 17.8251 10.2813 18.2212 11.1469Z" fill="#263238"/>
<path d="M13.5128 15.9533C12.6333 15.5894 11.8038 15.1317 11.0286 14.5793C11.9083 14.9424 12.7369 15.4018 13.5128 15.9533Z" fill="#263238"/>
<path d="M11.8385 22.4702C10.8949 22.5948 9.94752 22.6132 9 22.5225C9.94345 22.3971 10.8908 22.3804 11.8385 22.4702Z" fill="#263238"/>
<path d="M13.6467 28.9509C12.8917 29.5306 12.0805 30.0201 11.2146 30.4155C11.9691 29.8349 12.7813 29.3469 13.6467 28.9509Z" fill="#263238"/>
<path d="M36.1592 28.719C37.0386 29.0829 37.8682 29.5406 38.6436 30.093C37.7636 29.7297 36.935 29.2705 36.1592 28.719Z" fill="#263238"/>
<path d="M37.8335 22.2023C38.7771 22.0777 39.7245 22.0594 40.672 22.15C39.7285 22.2756 38.7812 22.292 37.8335 22.2023Z" fill="#263238"/>
<path d="M36.0253 15.7211C36.7801 15.1414 37.5914 14.6519 38.4574 14.2566C37.7029 14.8371 36.8909 15.3251 36.0253 15.7211Z" fill="#263238"/>
<path d="M31.2188 11.0129C31.5826 10.1335 32.0404 9.30391 32.5927 8.52856C32.2296 9.40865 31.7703 10.2373 31.2188 11.0129Z" fill="#263238"/>
<g opacity="0.5">
<path d="M36.3097 23.1807C35.7409 30.3068 29.8037 32.4549 29.8037 32.4549C29.3672 33.5382 28.7982 36.2933 28.7982 36.2933H20.8734C20.8734 36.2933 20.3044 33.5382 19.8678 32.4549C19.8678 32.4549 13.9309 30.3068 13.3619 23.1807C12.9667 18.2294 16.4925 10.9098 24.7926 10.9082H24.8786C33.1791 10.91 36.705 18.2294 36.3097 23.1807Z" fill="#FFC727"/>
</g>
<g opacity="0.7">
<path d="M35.3302 23.2165C34.8099 29.7342 29.3797 31.6991 29.3797 31.6991C28.9805 32.6898 28.46 36.2934 28.46 36.2934H21.2118C21.2118 36.2934 20.6914 32.69 20.2922 31.6991C20.2922 31.6991 14.8621 29.7342 14.3417 23.2165C13.9802 18.6879 17.2049 11.9933 24.7965 11.9917H24.8752C32.4669 11.9933 35.6916 18.6879 35.3302 23.2165Z" fill="#FFC727"/>
</g>
<path d="M22.9096 36.9666L20.58 24.489" stroke="white" stroke-width="0.488666" stroke-miterlimit="10"/>
<path d="M26.7661 36.966L29.0918 24.4878" stroke="white" stroke-width="0.488666" stroke-miterlimit="10"/>
<path d="M20.7793 24.9657C20.7793 24.9657 21.2406 27.409 22.3471 27.4089C23.4534 27.4087 24.4902 23.7665 23.0381 23.7668C21.5859 23.7672 22.9925 28.5382 24.8367 28.538C26.6808 28.5377 27.7403 23.7662 26.4496 23.7664C25.1589 23.7667 25.5669 27.5698 27.3418 27.5695C28.2942 27.5693 28.9742 25.1195 28.9742 25.1195" stroke="white" stroke-width="0.162889" stroke-miterlimit="10"/>
<path d="M29.7998 36.303H19.8721V41.7668H29.7998V36.303Z" fill="#455A64"/>
<path d="M28.6742 41.7666C28.0904 42.8019 26.9708 43.7279 24.8359 43.7279C22.7009 43.7279 21.5814 42.8019 20.9976 41.7666H28.6742Z" fill="#455A64"/>
<path d="M28.6742 41.7666C28.5072 42.0626 28.2971 42.3488 28.0309 42.6068L21.196 42.0824C21.1231 41.9782 21.057 41.8741 20.9976 41.7666H28.6742Z" fill="#37474F"/>
<path d="M30.0902 37.345L19.5818 38.3165V37.8399L30.0902 36.8684V37.345Z" fill="#37474F"/>
<path d="M30.0902 38.7874L19.5818 39.7589V39.2823L30.0902 38.3108V38.7874Z" fill="#37474F"/>
<path d="M30.0902 40.2298L19.5818 41.2014V40.7248L30.0902 39.7532V40.2298Z" fill="#37474F"/>
<g opacity="0.5">
<path d="M15.8633 21.5158C16.2272 21.5767 16.6984 19.6985 18.7184 17.5242C19.6157 16.5583 23.0196 15.35 22.7745 14.2352C22.5292 13.1205 19.4924 14.2666 17.9649 16.0364C15.5065 18.8845 15.5282 21.4598 15.8633 21.5158Z" fill="white"/>
<path d="M33.7732 21.907C34.4426 21.907 34.4438 20.8665 33.7732 20.8665C33.1037 20.8665 33.1025 21.907 33.7732 21.907Z" fill="white"/>
<path d="M30.4971 29.7321C30.8631 30.0109 32.6398 28.3719 33.4409 26.4156C34.1056 24.7923 34.2201 22.7393 33.773 22.6203C33.3259 22.5016 33.0361 25.3178 32.4984 26.3549C31.82 27.664 30.106 29.434 30.4971 29.7321Z" fill="white"/>
</g>
</g>
<defs>
<clipPath id="clip0_2024_191">
<rect width="50" height="50" rx="25" fill="white"/>
</clipPath>
</defs>
</svg>
