<svg width="50" height="50" viewBox="0 0 50 50" fill="none" xmlns="http://www.w3.org/2000/svg">
<g clip-path="url(#clip0_2024_193)">
<rect width="50" height="50" rx="25" fill="white"/>
<path opacity="0.4" d="M25.1141 27.8941L30.3588 0.771729L26.9657 28.1873L40.3351 4.01305L28.6359 29.0384L48.8212 10.1787L29.9615 30.364L54.9869 18.6649L30.8126 32.0343L58.2282 28.6412L31.1058 33.8858L58.2282 39.1307L30.8126 35.7374L54.9869 49.1068L29.9615 37.4077L48.8212 57.593L28.6359 38.7332L40.3351 63.7586L26.9657 39.5843L30.3588 67L25.1141 39.8775L19.8693 67L23.2626 39.5843L9.89315 63.7586L21.5923 38.7332L1.40698 57.593L20.2667 37.4077L-4.75868 49.1068L19.4156 35.7374L-8 39.1307L19.1224 33.8858L-8 28.6412L19.4156 32.0343L-4.75868 18.6649L20.2667 30.364L1.40698 10.1787L21.5923 29.0384L9.89315 4.01305L23.2626 28.1873L19.8693 0.771729L25.1141 27.8941Z" fill="#EBEBEB"/>
<path d="M5.36169 34.3152L6.41118 34.1212L6.64591 33.0146L6.88047 34.1212L7.92996 34.3158L6.88487 34.571L6.64591 35.6161L6.40679 34.571L5.36169 34.3152Z" fill="#DBDBDB"/>
<path d="M17.5658 6.08434C17.7207 6.08434 17.7209 5.84375 17.5658 5.84375C17.4109 5.84375 17.4108 6.08434 17.5658 6.08434Z" fill="#DBDBDB"/>
<path d="M38.0185 38.857C38.1734 38.857 38.1735 38.6165 38.0185 38.6165C37.8636 38.6165 37.8634 38.857 38.0185 38.857Z" fill="#DBDBDB"/>
<path d="M5.92972 29.2228C6.08446 29.2228 6.08479 28.9822 5.92972 28.9822C5.77481 28.9822 5.77465 29.2228 5.92972 29.2228Z" fill="#DBDBDB"/>
<path d="M45.7289 33.5908C46.1485 33.5908 46.1492 32.9387 45.7289 32.9387C45.3093 32.9387 45.3085 33.5908 45.7289 33.5908Z" fill="#DBDBDB"/>
<path d="M9.91858 21.5716C10.3382 21.5716 10.3388 20.9194 9.91858 20.9194C9.49898 20.9196 9.49833 21.5716 9.91858 21.5716Z" fill="#DBDBDB"/>
<path d="M2.96857 48.1485C3.38817 48.1485 3.38882 47.4963 2.96857 47.4963C2.54897 47.4963 2.54816 48.1485 2.96857 48.1485Z" fill="#DBDBDB"/>
<path d="M7.30029 9.54855L8.34995 9.35455L8.58451 8.24805L8.81907 9.35455L9.86872 9.54904L8.82346 9.80445L8.58451 10.8495L8.34539 9.80445L7.30029 9.54855Z" fill="#FFC727"/>
<path d="M36.0854 30.8903L37.1349 30.6963L37.3695 29.5898L37.6041 30.6963L38.6537 30.891L37.6086 31.1464L37.3695 32.1915L37.1305 31.1464L36.0854 30.8903Z" fill="#FFC727"/>
<path d="M12.681 27.0968L13.2678 26.9884L13.3989 26.3699L13.53 26.9884L14.1166 27.0972L13.5324 27.2399L13.3989 27.824L13.2653 27.2399L12.681 27.0968Z" fill="#FFC727"/>
<path d="M13.5015 6.69108L14.0882 6.5826L14.2193 5.96411L14.3504 6.5826L14.937 6.69141L14.3529 6.8341L14.2193 7.41822L14.0857 6.8341L13.5015 6.69108Z" fill="#FFC727"/>
<path d="M41.4924 11.1292L42.0792 11.0208L42.2101 10.4023L42.3412 11.0208L42.928 11.1295L42.3438 11.2723L42.2101 11.8564L42.0765 11.2723L41.4924 11.1292Z" fill="#FFC727"/>
<path d="M25.6088 0.726809L26.1955 0.618325L26.3266 0L26.4577 0.618325L27.0443 0.727135L26.4602 0.869825L26.3266 1.45394L26.1929 0.869825L25.6088 0.726809Z" fill="#FFC727"/>
<path d="M11.0273 28.5135C11.2462 28.5135 11.2465 28.1733 11.0273 28.1733C10.8085 28.1735 10.808 28.5135 11.0273 28.5135Z" fill="#FFC727"/>
<path d="M39.4514 29.2963C39.6063 29.2963 39.6065 29.0557 39.4514 29.0557C39.2966 29.0557 39.2963 29.2963 39.4514 29.2963Z" fill="#FFC727"/>
<path d="M11.5985 18.6537C11.7534 18.6537 11.7536 18.4131 11.5985 18.4131C11.4438 18.4129 11.4436 18.6537 11.5985 18.6537Z" fill="#FFC727"/>
<path d="M38.6538 6.81139C38.8087 6.81139 38.8088 6.5708 38.6538 6.5708C38.499 6.5708 38.4987 6.81139 38.6538 6.81139Z" fill="#FFC727"/>
<path d="M10.3897 10.6429C10.5445 10.6429 10.5448 10.4023 10.3897 10.4023C10.235 10.4023 10.2347 10.6429 10.3897 10.6429Z" fill="#FFC727"/>
<path d="M41.3671 18.7738C41.522 18.7738 41.5222 18.5332 41.3671 18.5332C41.2122 18.5332 41.212 18.7738 41.3671 18.7738Z" fill="#FFC727"/>
<path d="M30.1573 1.57433C30.3122 1.57433 30.3123 1.33374 30.1573 1.33374C30.0023 1.33374 30.0022 1.57433 30.1573 1.57433Z" fill="#FFC727"/>
<path d="M39.4219 18.6537C39.8415 18.6537 39.8421 18.0015 39.4219 18.0015C39.0023 18.0015 39.0016 18.6537 39.4219 18.6537Z" fill="#FFC727"/>
<path d="M34.1003 6.89683C34.5199 6.89683 34.5206 6.24463 34.1003 6.24463C33.6807 6.24463 33.6801 6.89683 34.1003 6.89683Z" fill="#FFC727"/>
<path d="M14.6803 23.2958C15.0999 23.2958 15.1006 22.6438 14.6803 22.6438C14.2607 22.6438 14.26 23.2958 14.6803 23.2958Z" fill="#FFC727"/>
<g clip-path="url(#clip1_2024_193)">
<path opacity="0.2" d="M23.9777 40.4998C32.4 40.4998 39.2277 40.2759 39.2277 39.9998C39.2277 39.7236 32.4 39.4998 23.9777 39.4998C15.5553 39.4998 8.72766 39.7236 8.72766 39.9998C8.72766 40.2759 15.5553 40.4998 23.9777 40.4998Z" fill="#20293A"/>
<path d="M28.4541 35.7898H21.9525L21.309 40.0369H29.0977L28.4541 35.7898Z" fill="#99A2B8"/>
<path opacity="0.3" d="M21.8542 36.5496H28.5525L28.4786 35.9785H21.9282L21.8542 36.5496Z" fill="#B3B3B3"/>
<path d="M40.9051 35.9786H9.50164C8.94842 35.9786 8.5 35.5302 8.5 34.977V13.9907C8.5 13.4374 8.94842 12.989 9.50164 12.989H40.9051C41.4584 12.989 41.9068 13.4374 41.9068 13.9907V34.977C41.9068 35.5301 41.4583 35.9786 40.9051 35.9786Z" fill="#464E61"/>
<path d="M40.4127 14.4097H9.99402V31.6734H40.4127V14.4097Z" fill="#20293A"/>
<g opacity="0.04">
<path d="M11.424 12.9888L8.5 15.9128V32.0573L27.5684 12.9888H11.424Z" fill="white"/>
<path d="M30.2346 12.9888L8.5 34.7234V35.0085C8.5 35.5442 8.93424 35.9784 9.46996 35.9784H10.957L33.9466 12.9888H30.2346Z" fill="white"/>
<path d="M40.9367 12.9888H36.6126L13.623 35.9784H29.7676L41.9067 23.8393V13.9588C41.9067 13.4231 41.4724 12.9888 40.9367 12.9888Z" fill="white"/>
<path d="M36.1459 35.9785L41.9068 30.2175V26.5054L32.4337 35.9785H36.1459Z" fill="white"/>
</g>
<path d="M41.9068 35.0085V32.8967H8.5V35.0085C8.5 35.5442 8.93424 35.9784 9.46996 35.9784H40.9367C41.4725 35.9784 41.9068 35.5441 41.9068 35.0085Z" fill="#C7D0E6"/>
<path d="M40.9411 13.0727C41.4274 13.0727 41.823 13.4682 41.823 13.9545V35.0128C41.823 35.4991 41.4274 35.8946 40.9411 35.8946H9.46568C8.9794 35.8946 8.58381 35.4991 8.58381 35.0128V13.9545C8.58381 13.4682 8.9794 13.0727 9.46568 13.0727H40.9411ZM40.9411 12.9888H9.46568C8.93234 12.9888 8.5 13.4211 8.5 13.9545V35.0127C8.5 35.546 8.93234 35.9784 9.46568 35.9784H40.9411C41.4744 35.9784 41.9068 35.546 41.9068 35.0127V13.9545C41.9068 13.4212 41.4744 12.9888 40.9411 12.9888Z" fill="white"/>
<path d="M30.5097 40.0369H19.897C19.8382 40.0369 19.7904 39.9892 19.7904 39.9303V39.8427C19.7904 39.7838 19.8382 39.7361 19.897 39.7361H30.5097C30.5686 39.7361 30.6163 39.7838 30.6163 39.8427V39.9303C30.6163 39.9892 30.5686 40.0369 30.5097 40.0369Z" fill="#464E61"/>
<g opacity="0.12">
<path d="M27.597 30.5051H22.3542C21.8537 30.5051 21.4479 30.0993 21.4479 29.5987V16.9134C21.4479 16.4129 21.8537 16.0071 22.3542 16.0071H27.597C28.0975 16.0071 28.5034 16.4129 28.5034 16.9134V29.5986C28.5034 30.0993 28.0976 30.5051 27.597 30.5051Z" fill="black"/>
<path d="M27.5588 16.1477C27.9916 16.1477 28.3437 16.4998 28.3437 16.9326V29.5791C28.3437 30.0119 27.9916 30.364 27.5588 30.364H22.3926C21.9598 30.364 21.6077 30.0119 21.6077 29.5791V16.9327C21.6077 16.4999 21.9598 16.1478 22.3926 16.1478L27.5588 16.1477Z" fill="black"/>
<path d="M27.5466 16.2966H26.8942C26.8539 16.2966 26.8215 16.3273 26.8161 16.3673C26.7816 16.6215 26.5637 16.8174 26.3001 16.8174H23.6512C23.3876 16.8174 23.1697 16.6215 23.1352 16.3673C23.1298 16.3273 23.0977 16.2966 23.0573 16.2966C22.9323 16.2966 22.6656 16.2966 22.4046 16.2966C22.0376 16.2966 21.7401 16.5942 21.7401 16.9611V29.551C21.7401 29.918 22.0376 30.2155 22.4046 30.2155H27.5466C27.9136 30.2155 28.2112 29.918 28.2112 29.551V16.9612C28.2112 16.5942 27.9136 16.2966 27.5466 16.2966Z" fill="black"/>
<path d="M25.4179 16.4353H24.5039C24.4784 16.4353 24.4576 16.4146 24.4576 16.389C24.4576 16.3635 24.4783 16.3428 24.5039 16.3428H25.4179C25.4434 16.3428 25.4642 16.3634 25.4642 16.389C25.4641 16.4146 25.4434 16.4353 25.4179 16.4353Z" fill="black"/>
<path d="M25.8078 16.4753C25.8555 16.4753 25.8941 16.4366 25.8941 16.389C25.8941 16.3414 25.8555 16.3027 25.8078 16.3027C25.7602 16.3027 25.7216 16.3414 25.7216 16.389C25.7216 16.4366 25.7602 16.4753 25.8078 16.4753Z" fill="black"/>
<path d="M25.8078 16.4555C25.8445 16.4555 25.8742 16.4258 25.8742 16.3891C25.8742 16.3525 25.8445 16.3228 25.8078 16.3228C25.7712 16.3228 25.7415 16.3525 25.7415 16.3891C25.7415 16.4258 25.7712 16.4555 25.8078 16.4555Z" fill="black"/>
<path d="M25.8078 16.4045C25.8163 16.4045 25.8232 16.3976 25.8232 16.3891C25.8232 16.3807 25.8163 16.3738 25.8078 16.3738C25.7994 16.3738 25.7925 16.3807 25.7925 16.3891C25.7925 16.3976 25.7994 16.4045 25.8078 16.4045Z" fill="black"/>
<path d="M24.3187 24.661L24.6244 24.4686L24.4458 24.0143C24.5058 23.9492 24.5562 23.8773 24.5969 23.8009L25.0847 23.8186L25.1648 23.4664L24.7173 23.2714C24.7137 23.1849 24.6993 23.0983 24.6734 23.0137L25.0309 22.6814L24.8385 22.3757L24.3843 22.5542C24.3192 22.4943 24.2473 22.4438 24.1709 22.4032L24.1886 21.9153L23.8364 21.8352L23.6414 22.2828C23.5549 22.2863 23.4683 22.3007 23.3836 22.3266L23.0514 21.9692L22.7457 22.1616L22.9242 22.6158C22.8642 22.6809 22.8138 22.7527 22.7732 22.8292L22.2853 22.8114L22.2052 23.1636L22.6528 23.3586C22.6563 23.4451 22.6707 23.5317 22.6966 23.6164L22.3391 23.9487L22.5316 24.2544L22.9858 24.0758C23.0509 24.1358 23.1227 24.1862 23.1992 24.2269L23.1814 24.7147L23.5336 24.7948L23.7286 24.3473C23.8151 24.3437 23.9017 24.3293 23.9864 24.3034L24.3187 24.661ZM22.9966 23.7484C22.7573 23.3683 22.8715 22.8661 23.2518 22.6268C23.632 22.3875 24.1341 22.5017 24.3734 22.8819C24.6127 23.2621 24.4985 23.7643 24.1183 24.0036C23.738 24.2428 23.2359 24.1286 22.9966 23.7484Z" fill="black"/>
<path d="M27.0418 23.4673L27.3183 23.2349L27.0793 22.8093C27.1297 22.7366 27.1699 22.6585 27.1997 22.5773L27.6854 22.5281L27.7166 22.1684L27.2466 22.0364C27.2312 21.9512 27.2051 21.8674 27.1679 21.787L27.4765 21.4089L27.2442 21.1325L26.8187 21.3715C26.7459 21.321 26.6679 21.2809 26.5866 21.2511L26.5375 20.7653L26.1777 20.7341L26.0457 21.2042C25.9605 21.2195 25.8767 21.2457 25.7964 21.2828L25.4183 20.9742L25.1419 21.2066L25.3809 21.6321C25.3304 21.7048 25.2903 21.7828 25.2605 21.8642L24.7747 21.9133L24.7435 22.2731L25.2136 22.405C25.2289 22.4903 25.2551 22.574 25.2922 22.6544L24.9836 23.0325L25.216 23.3089L25.6416 23.07C25.7143 23.1204 25.7924 23.1606 25.8737 23.1904L25.9228 23.6761L26.2826 23.7073L26.4145 23.2373C26.4998 23.2219 26.5835 23.1957 26.6638 23.1586L27.0418 23.4673ZM25.6073 22.7441C25.3183 22.4002 25.3628 21.8871 25.7067 21.5981C26.0505 21.3091 26.5637 21.3536 26.8526 21.6974C27.1417 22.0413 27.0972 22.5544 26.7533 22.8434C26.4095 23.1325 25.8964 23.0879 25.6073 22.7441Z" fill="black"/>
<path d="M26.9351 25.8588L27.145 25.5649L26.8076 25.2122C26.8384 25.1292 26.8578 25.0437 26.8665 24.9575L27.3247 24.789L27.2654 24.4328L26.7773 24.422C26.7412 24.3433 26.6951 24.2686 26.639 24.2001L26.8437 23.7571L26.5499 23.5472L26.1972 23.8845C26.1142 23.8537 26.0286 23.8343 25.9425 23.8257L25.774 23.3674L25.4177 23.4268L25.407 23.9149C25.3283 23.951 25.2536 23.9971 25.1851 24.0532L24.7421 23.8484L24.5322 24.1423L24.8695 24.4949C24.8387 24.578 24.8193 24.6635 24.8107 24.7497L24.3524 24.9182L24.4117 25.2744L24.8999 25.2852C24.936 25.3638 24.9821 25.4385 25.0382 25.507L24.8334 25.9501L25.1273 26.16L25.4799 25.8226C25.5629 25.8534 25.6485 25.8729 25.7347 25.8815L25.9032 26.3397L26.2594 26.2804L26.2702 25.7923C26.3488 25.7562 26.4235 25.71 26.492 25.654L26.9351 25.8588ZM25.3658 25.5154C25.0003 25.2543 24.9156 24.7463 25.1767 24.3807C25.4378 24.0152 25.9458 23.9306 26.3113 24.1916C26.6769 24.4527 26.7615 24.9607 26.5004 25.3263C26.2393 25.6919 25.7313 25.7765 25.3658 25.5154Z" fill="black"/>
<path d="M21.2855 30.822H28.6659" stroke="black" stroke-width="0.0594096" stroke-miterlimit="10"/>
<path d="M21.0717 15.9128V30.608" stroke="black" stroke-width="0.0594096" stroke-miterlimit="10"/>
<path d="M28.6659 15.699H21.2855" stroke="black" stroke-width="0.0594096" stroke-miterlimit="10"/>
<path d="M28.8798 30.6147V15.9128" stroke="black" stroke-width="0.0594096" stroke-miterlimit="10"/>
<path d="M29.0936 15.4854H28.6659V15.9131H29.0936V15.4854Z" stroke="black" stroke-width="0.0594096" stroke-miterlimit="10"/>
<path d="M21.2855 15.4854H20.8578V15.9131H21.2855V15.4854Z" stroke="black" stroke-width="0.0594096" stroke-miterlimit="10"/>
<path d="M29.0936 30.6082H28.6659V31.0359H29.0936V30.6082Z" stroke="black" stroke-width="0.0594096" stroke-miterlimit="10"/>
<path d="M21.2855 30.6082H20.8578V31.0359H21.2855V30.6082Z" stroke="black" stroke-width="0.0594096" stroke-miterlimit="10"/>
<path d="M33.8304 30.9009H29.8376V30.9394H33.8304V30.9009Z" fill="black"/>
<path d="M29.7412 27.6836H29.7026V30.8043H29.7412V27.6836Z" fill="black"/>
<path d="M33.8304 27.5488H29.8376V27.5874H33.8304V27.5488Z" fill="black"/>
<path d="M33.9653 27.6836H33.9268V30.808H33.9653V27.6836Z" fill="black"/>
<path d="M34.081 27.7029H33.811V27.4329H34.081V27.7029ZM33.8496 27.6643H34.0425V27.4714H33.8496V27.6643Z" fill="black"/>
<path d="M29.8569 27.7029H29.5869V27.4329H29.8569V27.7029ZM29.6255 27.6643H29.8184V27.4714H29.6255V27.6643Z" fill="black"/>
<path d="M34.081 31.0551H33.811V30.7852H34.081V31.0551ZM33.8496 31.0165H34.0425V30.8237H33.8496V31.0165Z" fill="black"/>
<path d="M29.8569 31.0551H29.5869V30.7852H29.8569V31.0551ZM29.6255 31.0165H29.8184V30.8237H29.6255V31.0165Z" fill="black"/>
<path d="M33.6655 27.8079H30.0027V30.6801H33.6655V27.8079Z" fill="black"/>
<path d="M33.5652 27.9102H30.1028V30.578H33.5652V27.9102Z" fill="black"/>
<path d="M30.6058 28.8666C30.6623 28.8607 30.7178 28.8383 30.7559 28.7986C30.7753 28.7783 30.7914 28.7524 30.8179 28.7431C30.8539 28.7305 30.8918 28.754 30.9211 28.7783C30.9015 28.7566 30.8813 28.7342 30.8717 28.7066C30.862 28.679 30.8654 28.6446 30.8876 28.6256C30.9183 28.5993 30.97 28.6165 30.9915 28.6508C30.9819 28.6245 30.982 28.5992 30.9856 28.573C30.9912 28.5312 31.0285 28.4983 31.0663 28.4841C31.0987 28.4719 31.1523 28.4708 31.1891 28.5013C31.238 28.542 31.2452 28.6135 31.2269 28.6473C31.2447 28.6203 31.2859 28.6156 31.3131 28.6328C31.3405 28.6502 31.3539 28.6841 31.3533 28.7164C31.351 28.6787 31.3653 28.6403 31.3917 28.6132C31.4436 28.56 31.5374 28.5605 31.5943 28.6084C31.651 28.6562 31.6691 28.7417 31.6445 28.8117C31.6677 28.7811 31.7173 28.7755 31.7468 28.8001C31.7581 28.8095 31.7661 28.8221 31.7763 28.8326C31.8012 28.8583 31.8281 28.861 31.8743 28.8638C31.8743 28.8638 30.7614 28.8618 30.6058 28.8666Z" fill="black"/>
<path d="M31.8853 28.4033C31.9013 28.4016 31.9173 28.3952 31.9281 28.3839C31.9337 28.3781 31.9382 28.3707 31.9458 28.368C31.956 28.3645 31.9668 28.3711 31.9752 28.3781C31.9696 28.3719 31.9639 28.3655 31.9611 28.3576C31.9584 28.3498 31.9593 28.34 31.9657 28.3345C31.9744 28.327 31.9892 28.3319 31.9954 28.3417C31.9926 28.3342 31.9927 28.327 31.9937 28.3195C31.9953 28.3075 32.006 28.2982 32.0167 28.294C32.026 28.2905 32.0413 28.2902 32.0518 28.2989C32.0658 28.3106 32.0678 28.331 32.0625 28.3406C32.0676 28.3329 32.0794 28.3316 32.0872 28.3365C32.0949 28.3414 32.0988 28.3511 32.0987 28.3603C32.098 28.3496 32.1021 28.3386 32.1096 28.3309C32.1244 28.3157 32.1512 28.3158 32.1674 28.3294C32.1836 28.3431 32.1888 28.3675 32.1817 28.3875C32.1884 28.3788 32.2026 28.3772 32.211 28.3842C32.2141 28.3869 32.2164 28.3904 32.2194 28.3934C32.2264 28.4008 32.2342 28.4015 32.2473 28.4024C32.2473 28.4024 31.9296 28.4018 31.8853 28.4033Z" fill="black"/>
<path d="M32.4663 28.7689C32.4928 28.7662 32.5189 28.7556 32.5368 28.7369C32.5459 28.7274 32.5535 28.7152 32.5659 28.7109C32.5828 28.7049 32.6006 28.7159 32.6144 28.7274C32.6052 28.7173 32.5957 28.7067 32.5911 28.6938C32.5866 28.6808 32.5882 28.6647 32.5986 28.6557C32.613 28.6434 32.6373 28.6515 32.6474 28.6675C32.6429 28.6552 32.643 28.6433 32.6446 28.631C32.6472 28.6114 32.6648 28.5959 32.6826 28.5892C32.6978 28.5835 32.723 28.5829 32.7402 28.5973C32.7633 28.6164 32.7666 28.65 32.758 28.6659C32.7664 28.6532 32.7857 28.651 32.7985 28.6591C32.8114 28.6673 32.8177 28.6832 32.8174 28.6984C32.8163 28.6807 32.823 28.6626 32.8354 28.65C32.8598 28.625 32.9039 28.6252 32.9306 28.6477C32.9573 28.6702 32.9657 28.7102 32.9542 28.7432C32.9651 28.7288 32.9884 28.7262 33.0023 28.7377C33.0075 28.7422 33.0113 28.748 33.0161 28.753C33.0278 28.765 33.0404 28.7663 33.0622 28.7677C33.0622 28.7677 32.5393 28.7667 32.4663 28.7689Z" fill="black"/>
<path d="M33.5652 29.3298H30.1028V30.578H33.5652V29.3298Z" fill="black"/>
<path d="M33.5653 30.1343C33.5653 30.1343 32.568 30.2669 31.8341 30.2669C30.9819 30.2669 30.1029 30.1343 30.1029 30.1343V30.5779H33.5653V30.1343Z" fill="black"/>
<path d="M38.5669 30.9009H34.5742V30.9394H38.5669V30.9009Z" fill="black"/>
<path d="M34.4778 27.6836H34.4393V30.8043H34.4778V27.6836Z" fill="black"/>
<path d="M38.5669 27.5488H34.5742V27.5874H38.5669V27.5488Z" fill="black"/>
<path d="M38.7019 27.6836H38.6635V30.808H38.7019V27.6836Z" fill="black"/>
<path d="M38.8176 27.7029H38.5476V27.4329H38.8176V27.7029ZM38.5862 27.6643H38.7791V27.4714H38.5862V27.6643Z" fill="black"/>
<path d="M34.5936 27.7029H34.3236V27.4329H34.5936V27.7029ZM34.3622 27.6643H34.5551V27.4714H34.3622V27.6643Z" fill="black"/>
<path d="M38.8176 31.0551H38.5476V30.7852H38.8176V31.0551ZM38.5862 31.0165H38.7791V30.8237H38.5862V31.0165Z" fill="black"/>
<path d="M34.5936 31.0551H34.3236V30.7852H34.5936V31.0551ZM34.3622 31.0165H34.5551V30.8237H34.3622V31.0165Z" fill="black"/>
<path d="M38.4019 27.8079H34.7391V30.6801H38.4019V27.8079Z" fill="black"/>
<path d="M38.3017 27.9102H34.8394V30.578H38.3017V27.9102Z" fill="black"/>
<path d="M35.3425 28.8666C35.3989 28.8607 35.4545 28.8383 35.4926 28.7986C35.512 28.7783 35.5281 28.7524 35.5546 28.7431C35.5905 28.7305 35.6285 28.754 35.6578 28.7783C35.6382 28.7566 35.618 28.7342 35.6084 28.7066C35.5987 28.679 35.6021 28.6446 35.6243 28.6256C35.655 28.5993 35.7067 28.6165 35.7282 28.6508C35.7186 28.6245 35.7187 28.5992 35.7223 28.573C35.7279 28.5312 35.7652 28.4983 35.803 28.4841C35.8354 28.4719 35.889 28.4708 35.9258 28.5013C35.9748 28.542 35.9819 28.6135 35.9636 28.6473C35.9814 28.6203 36.0226 28.6156 36.0498 28.6328C36.0771 28.6502 36.0906 28.6841 36.09 28.7164C36.0877 28.6787 36.102 28.6403 36.1284 28.6132C36.1803 28.56 36.2741 28.5605 36.3309 28.6084C36.3877 28.6562 36.4058 28.7417 36.3812 28.8117C36.4044 28.7811 36.454 28.7755 36.4835 28.8001C36.4948 28.8095 36.5028 28.8221 36.513 28.8326C36.5378 28.8583 36.5648 28.861 36.611 28.8638C36.611 28.8638 35.498 28.8618 35.3425 28.8666Z" fill="black"/>
<path d="M36.6218 28.4033C36.6379 28.4016 36.6538 28.3952 36.6647 28.3839C36.6702 28.3781 36.6748 28.3707 36.6823 28.368C36.6926 28.3645 36.7034 28.3711 36.7118 28.3781C36.7062 28.3719 36.7005 28.3655 36.6977 28.3576C36.6949 28.3498 36.6959 28.34 36.7022 28.3345C36.711 28.327 36.7258 28.3319 36.7319 28.3417C36.7292 28.3342 36.7292 28.327 36.7302 28.3195C36.7318 28.3075 36.7425 28.2982 36.7532 28.294C36.7625 28.2905 36.7778 28.2902 36.7883 28.2989C36.8024 28.3106 36.8043 28.331 36.7991 28.3406C36.8042 28.3329 36.816 28.3316 36.8237 28.3365C36.8315 28.3414 36.8354 28.3511 36.8352 28.3603C36.8346 28.3496 36.8386 28.3386 36.8462 28.3309C36.861 28.3157 36.8878 28.3158 36.9041 28.3294C36.9203 28.3431 36.9254 28.3675 36.9184 28.3875C36.9251 28.3788 36.9392 28.3772 36.9476 28.3842C36.9508 28.3869 36.9531 28.3904 36.956 28.3934C36.9632 28.4008 36.9708 28.4015 36.9841 28.4024C36.9841 28.4024 36.6662 28.4018 36.6218 28.4033Z" fill="black"/>
<path d="M37.2029 28.7689C37.2294 28.7662 37.2555 28.7556 37.2734 28.7369C37.2825 28.7274 37.2901 28.7152 37.3025 28.7109C37.3193 28.7049 37.3371 28.7159 37.3509 28.7274C37.3417 28.7173 37.3322 28.7067 37.3277 28.6938C37.3232 28.6808 37.3248 28.6647 37.3352 28.6557C37.3497 28.6434 37.374 28.6515 37.384 28.6675C37.3795 28.6552 37.3796 28.6433 37.3813 28.631C37.3839 28.6114 37.4015 28.5959 37.4192 28.5892C37.4344 28.5835 37.4596 28.5829 37.4769 28.5973C37.4999 28.6164 37.5033 28.65 37.4946 28.6659C37.503 28.6532 37.5223 28.651 37.5352 28.6591C37.548 28.6673 37.5543 28.6832 37.554 28.6984C37.5529 28.6807 37.5597 28.6626 37.5721 28.65C37.5965 28.625 37.6405 28.6252 37.6672 28.6477C37.6939 28.6702 37.7024 28.7102 37.6908 28.7432C37.7018 28.7288 37.7251 28.7262 37.7389 28.7377C37.7441 28.7422 37.7479 28.748 37.7528 28.753C37.7644 28.765 37.7771 28.7663 37.7989 28.7677C37.7987 28.7677 37.2759 28.7667 37.2029 28.7689Z" fill="black"/>
<path d="M38.3017 29.3298H34.8394V30.578H38.3017V29.3298Z" fill="black"/>
<path d="M38.3017 30.1343C38.3017 30.1343 37.3045 30.2669 36.5705 30.2669C35.7183 30.2669 34.8394 30.1343 34.8394 30.1343V30.5779H38.3017V30.1343Z" fill="black"/>
<path d="M37.8844 25.5562H30.5151C30.2293 25.5562 29.9976 25.7879 29.9976 26.0737C29.9976 26.3596 30.2293 26.5913 30.5151 26.5913H37.8844C38.1703 26.5913 38.402 26.3595 38.402 26.0737C38.402 25.7879 38.1703 25.5562 37.8844 25.5562Z" fill="black"/>
<path d="M31.1754 25.8411C31.1123 25.7475 30.9852 25.7228 30.8916 25.786C30.8037 25.8453 30.7766 25.961 30.826 26.0524L30.7767 26.0857C30.7631 26.0792 30.7466 26.0797 30.7332 26.0887L30.362 26.3393C30.3419 26.3528 30.3366 26.3801 30.3502 26.4003C30.3638 26.4204 30.3911 26.4257 30.4112 26.4121L30.7824 26.1615C30.7958 26.1525 30.8024 26.1374 30.8015 26.1223L30.8511 26.0888C30.9178 26.1665 31.0336 26.1836 31.1205 26.125C31.2139 26.0618 31.2387 25.9347 31.1754 25.8411ZM30.8692 26.0478C30.8183 25.9722 30.8382 25.8696 30.9136 25.8187C30.9892 25.7677 31.0918 25.7876 31.1427 25.8631C31.1937 25.9387 31.1738 26.0413 31.0983 26.0922C31.0228 26.1432 30.9202 26.1233 30.8692 26.0478Z" fill="black"/>
<path d="M38.567 26.7729H29.8376V26.8114H38.567V26.7729Z" fill="black"/>
<path d="M29.7412 25.4707H29.7026V26.6763H29.7412V25.4707Z" fill="black"/>
<path d="M38.567 25.3359H29.8376V25.3744H38.567V25.3359Z" fill="black"/>
<path d="M38.7019 25.4707H38.6635V26.68H38.7019V25.4707Z" fill="black"/>
<path d="M38.8176 25.4902H38.5476V25.2202H38.8176V25.4902ZM38.5862 25.4517H38.7791V25.2588H38.5862V25.4517Z" fill="black"/>
<path d="M29.8569 25.4902H29.5869V25.2202H29.8569V25.4902ZM29.6255 25.4517H29.8184V25.2588H29.6255V25.4517Z" fill="black"/>
<path d="M38.8176 26.9272H38.5476V26.6572H38.8176V26.9272ZM38.5862 26.8886H38.7791V26.6958H38.5862V26.8886Z" fill="black"/>
<path d="M29.8569 26.9272H29.5869V26.6572H29.8569V26.9272ZM29.6255 26.8886H29.8184V26.6958H29.6255V26.8886Z" fill="black"/>
<path d="M33.7421 16.3096H30.2593V19.7924H33.7421V16.3096Z" fill="black"/>
<path d="M32.0006 19.2734C32.3112 19.2734 32.598 19.1728 32.8309 19.0028C32.7953 18.7733 32.7129 18.5684 32.598 18.4091C32.5867 18.3934 32.5729 18.3793 32.5567 18.3672C32.4045 18.2533 32.2114 18.1848 32.0007 18.1848C31.79 18.1848 31.5969 18.2533 31.4447 18.3672C31.4286 18.3792 31.4148 18.3934 31.4035 18.4091C31.2885 18.5684 31.2061 18.7733 31.1704 19.0028C31.4033 19.1728 31.6901 19.2734 32.0006 19.2734Z" fill="black"/>
<path d="M32.0007 19.2734C32.2717 19.2734 32.5248 19.1968 32.7397 19.0642C32.714 18.8066 32.6376 18.5764 32.5268 18.401C32.5168 18.3852 32.5047 18.371 32.4905 18.3589C32.3564 18.2445 32.1863 18.1755 32.0007 18.1755C31.8151 18.1755 31.6449 18.2445 31.5109 18.3589C31.4967 18.371 31.4845 18.3852 31.4746 18.401C31.3637 18.5764 31.2874 18.8066 31.2617 19.0642C31.4766 19.1968 31.7297 19.2734 32.0007 19.2734Z" fill="black"/>
<path d="M31.8036 17.8286V18.2229C31.8036 18.2636 31.8918 18.2967 32.0008 18.2967C32.1096 18.2967 32.1979 18.2636 32.1979 18.2229V17.8286H31.8036Z" fill="black"/>
<path d="M32.5629 17.4175C32.5552 17.4073 32.5449 17.4 32.5313 17.398C32.4921 17.392 32.4586 17.4406 32.445 17.4711C32.4439 17.4736 32.4443 17.4758 32.4446 17.4778C32.4119 17.5326 32.3936 17.5868 32.4017 17.6529C32.4032 17.6654 32.4127 17.6715 32.4225 17.6725C32.4418 17.7001 32.4788 17.7204 32.5115 17.7037C32.5347 17.6918 32.5397 17.6676 32.5425 17.6444C32.5512 17.5726 32.6151 17.4874 32.5629 17.4175Z" fill="black"/>
<path d="M31.4589 17.6446C31.4616 17.6679 31.4667 17.6921 31.4898 17.7039C31.5226 17.7206 31.5595 17.7004 31.5789 17.6728C31.5887 17.6717 31.5982 17.6656 31.5997 17.6531C31.6078 17.587 31.5896 17.5328 31.5568 17.4781C31.5572 17.476 31.5576 17.4739 31.5564 17.4713C31.5428 17.4408 31.5093 17.3922 31.4701 17.3982C31.4565 17.4004 31.4462 17.4076 31.4385 17.4178C31.3863 17.4876 31.4502 17.5727 31.4589 17.6446Z" fill="black"/>
<path d="M32.5388 17.1406C32.5382 17.1286 32.5371 17.1167 32.5354 17.1048C32.5315 17.0764 32.5236 17.0484 32.5072 17.0244C32.5031 17.0186 32.4547 16.9668 32.4514 16.971C32.4657 16.9529 32.4736 16.9298 32.472 16.9013C32.4676 16.8182 32.3826 16.7908 32.3136 16.7756C32.1249 16.734 31.9301 16.7558 31.7592 16.8346C31.7454 16.841 31.7232 16.8411 31.7077 16.8449C31.6881 16.8499 31.6686 16.8558 31.6496 16.8628C31.6102 16.8773 31.5718 16.8964 31.5381 16.9216C31.5066 16.9451 31.4789 16.9745 31.4615 17.01C31.44 17.0537 31.441 17.0999 31.4424 17.1475C31.4457 17.2621 31.4767 17.379 31.5034 17.4901C31.508 17.5106 31.5108 17.5738 31.5312 17.5843C31.6294 17.6354 31.7595 17.6319 31.8672 17.6296C32.0338 17.6261 32.2001 17.5976 32.3667 17.6021C32.3864 17.6026 32.4065 17.6029 32.426 17.6051C32.4393 17.6067 32.4558 17.6115 32.4677 17.6027C32.4726 17.5991 32.474 17.5925 32.475 17.5865C32.4992 17.4388 32.5388 17.2911 32.5388 17.1406Z" fill="black"/>
<path d="M32.3955 17.1187H32.3789C32.3474 17.1187 32.3166 17.1262 32.2869 17.1366C32.2397 17.1531 32.1293 17.1647 32.0006 17.1647C31.8719 17.1647 31.7615 17.1531 31.7143 17.1366C31.6845 17.1261 31.6539 17.1187 31.6223 17.1187H31.6057C31.5594 17.1187 31.522 17.1561 31.522 17.2024V17.7175C31.522 17.9955 31.7362 18.2208 32.0006 18.2208C32.2649 18.2208 32.4792 17.9955 32.4792 17.7175V17.2024C32.4793 17.1561 32.4418 17.1187 32.3955 17.1187Z" fill="black"/>
<path d="M33.586 19.6364H30.4152V16.4656H33.586V19.6364ZM30.4344 19.6171H33.5667V16.4848H30.4344V19.6171Z" fill="black"/>
<path d="M37.9837 16.3096H34.5009V19.7924H37.9837V16.3096Z" fill="black"/>
<path d="M36.2593 17.0691H34.9726C34.9066 17.0691 34.8531 17.1226 34.8531 17.1885C34.8531 17.2545 34.9066 17.308 34.9726 17.308H36.2593C36.3253 17.308 36.3788 17.2545 36.3788 17.1885C36.3788 17.1226 36.3253 17.0691 36.2593 17.0691Z" fill="black"/>
<path d="M35.712 17.6521H34.9182C34.8823 17.6521 34.8531 17.6812 34.8531 17.7171V17.7293C34.8531 17.7652 34.8823 17.7944 34.9182 17.7944H35.712C35.7479 17.7944 35.777 17.7653 35.777 17.7293V17.7171C35.7769 17.6812 35.7479 17.6521 35.712 17.6521Z" fill="black"/>
<path d="M35.712 18.6846H34.9182C34.8823 18.6846 34.8531 18.7136 34.8531 18.7496V18.7618C34.8531 18.7977 34.8823 18.8268 34.9182 18.8268H35.712C35.7479 18.8268 35.777 18.7977 35.777 18.7618V18.7496C35.7769 18.7137 35.7479 18.6846 35.712 18.6846Z" fill="black"/>
<path d="M35.2703 17.9963H34.9182C34.8823 17.9963 34.8531 18.0254 34.8531 18.0614V18.0736C34.8531 18.1095 34.8823 18.1386 34.9182 18.1386H35.2703C35.3062 18.1386 35.3353 18.1095 35.3353 18.0736V18.0614C35.3353 18.0254 35.3062 17.9963 35.2703 17.9963Z" fill="black"/>
<path d="M36.8964 18.3406H36.5443C36.5084 18.3406 36.4792 18.3696 36.4792 18.4056V18.4178C36.4792 18.4537 36.5083 18.4828 36.5443 18.4828H36.8964C36.9323 18.4828 36.9614 18.4537 36.9614 18.4178V18.4056C36.9614 18.3696 36.9323 18.3406 36.8964 18.3406Z" fill="black"/>
<path d="M36.2454 18.6846H35.8933C35.8574 18.6846 35.8282 18.7136 35.8282 18.7496V18.7618C35.8282 18.7977 35.8573 18.8268 35.8933 18.8268H36.2454C36.2813 18.8268 36.3104 18.7977 36.3104 18.7618V18.7496C36.3104 18.7137 36.2813 18.6846 36.2454 18.6846Z" fill="black"/>
<path d="M37.3595 17.6521H35.9276C35.8917 17.6521 35.8625 17.6812 35.8625 17.7171V17.7293C35.8625 17.7652 35.8916 17.7944 35.9276 17.7944H37.3595C37.3954 17.7944 37.4245 17.7653 37.4245 17.7293V17.7171C37.4245 17.6812 37.3955 17.6521 37.3595 17.6521Z" fill="black"/>
<path d="M36.3501 18.3406H34.9182C34.8823 18.3406 34.8531 18.3696 34.8531 18.4056V18.4178C34.8531 18.4537 34.8823 18.4828 34.9182 18.4828H36.3501C36.386 18.4828 36.4151 18.4537 36.4151 18.4178V18.4056C36.4151 18.3696 36.386 18.3406 36.3501 18.3406Z" fill="black"/>
<path d="M36.8964 17.9963H35.4644C35.4286 17.9963 35.3994 18.0254 35.3994 18.0614V18.0736C35.3994 18.1095 35.4285 18.1386 35.4644 18.1386H36.8964C36.9323 18.1386 36.9614 18.1095 36.9614 18.0736V18.0614C36.9614 18.0254 36.9323 17.9963 36.8964 17.9963Z" fill="black"/>
<path d="M37.6459 17.6521H37.578C37.5421 17.6521 37.5129 17.6812 37.5129 17.7171V17.7293C37.5129 17.7652 37.542 17.7944 37.578 17.7944H37.6459C37.6817 17.7944 37.7109 17.7653 37.7109 17.7293V17.7171C37.7109 17.6812 37.6818 17.6521 37.6459 17.6521Z" fill="black"/>
<path d="M37.1617 18.3406H37.0938C37.058 18.3406 37.0288 18.3696 37.0288 18.4056V18.4178C37.0288 18.4537 37.0579 18.4828 37.0938 18.4828H37.1617C37.1976 18.4828 37.2268 18.4537 37.2268 18.4178V18.4056C37.2268 18.3696 37.1976 18.3406 37.1617 18.3406Z" fill="black"/>
<path d="M36.5117 18.6846H36.4438C36.4079 18.6846 36.3788 18.7136 36.3788 18.7496V18.7618C36.3788 18.7977 36.4079 18.8268 36.4438 18.8268H36.5117C36.5476 18.8268 36.5767 18.7977 36.5767 18.7618V18.7496C36.5767 18.7137 36.5476 18.6846 36.5117 18.6846Z" fill="black"/>
<path d="M35.2703 19.0288H34.9182C34.8823 19.0288 34.8531 19.0579 34.8531 19.0938V19.106C34.8531 19.1419 34.8823 19.1711 34.9182 19.1711H35.2703C35.3062 19.1711 35.3353 19.142 35.3353 19.106V19.0938C35.3353 19.058 35.3062 19.0288 35.2703 19.0288Z" fill="black"/>
<path d="M35.5366 19.0288H35.4687C35.4328 19.0288 35.4037 19.0579 35.4037 19.0938V19.106C35.4037 19.1419 35.4328 19.1711 35.4687 19.1711H35.5366C35.5725 19.1711 35.6016 19.142 35.6016 19.106V19.0938C35.6016 19.058 35.5726 19.0288 35.5366 19.0288Z" fill="black"/>
<path d="M37.2054 17.0691H36.6921C36.6261 17.0691 36.5726 17.1226 36.5726 17.1885C36.5726 17.2545 36.6261 17.308 36.6921 17.308H37.2054C37.2714 17.308 37.3248 17.2545 37.3248 17.1885C37.3249 17.1226 37.2714 17.0691 37.2054 17.0691Z" fill="black"/>
<path d="M33.7421 20.4883H30.2593V23.9711H33.7421V20.4883Z" fill="black"/>
<path d="M32.5095 23.3015L32.755 23.1471L32.6117 22.7823C32.6598 22.73 32.7003 22.6723 32.7329 22.6109L33.1247 22.6252L33.189 22.3424L32.8296 22.1858C32.8267 22.1163 32.8152 22.0468 32.7943 21.9788L33.0814 21.712L32.9269 21.4665L32.5621 21.6099C32.5099 21.5617 32.4521 21.5212 32.3907 21.4886L32.405 21.0968L32.1222 21.0325L31.9656 21.3919C31.8961 21.3948 31.8266 21.4064 31.7586 21.4272L31.4917 21.1401L31.2463 21.2946L31.3896 21.6594C31.3415 21.7116 31.301 21.7694 31.2684 21.8308L30.8766 21.8165L30.8123 22.0993L31.1717 22.2559C31.1746 22.3254 31.1861 22.3949 31.207 22.4629L30.9199 22.7298L31.0744 22.9752L31.4391 22.8319C31.4914 22.88 31.5492 22.9205 31.6106 22.9531L31.5963 23.3449L31.8791 23.4092L32.0357 23.0498C32.1052 23.0469 32.1747 23.0354 32.2427 23.0145L32.5095 23.3015ZM31.4479 22.5686C31.2557 22.2634 31.3474 21.8601 31.6527 21.6679C31.958 21.4757 32.3613 21.5675 32.5534 21.8728C32.7456 22.1781 32.6539 22.5814 32.3486 22.7736C32.0433 22.9657 31.64 22.8739 31.4479 22.5686Z" fill="black"/>
<path d="M38.7982 15.9891V15.4583H38.2674V15.6948H30.0552V15.4583H29.5244V15.9891H29.7609V24.2014H29.5244V24.7322H30.0552V24.4956H38.2675V24.7322H38.7983V24.2014H38.5618V15.9891H38.7982ZM38.3253 15.516H38.7406V15.9313H38.3253V15.516ZM29.5822 15.516H29.9975V15.9313H29.5822V15.516ZM29.9975 24.6743H29.5822V24.259H29.9975V24.6743ZM38.7405 24.6743H38.3252V24.259H38.7405V24.6743ZM38.504 24.2014H38.2674V24.4379H30.0552V24.2014H29.8187V15.9891H30.0552V15.7525H38.2675V15.9891H38.5041V24.2014H38.504Z" fill="black"/>
<path d="M37.9837 20.4883H34.5009V23.9711H37.9837V20.4883Z" fill="black"/>
<path d="M37.8277 23.8061H34.6569V20.6353H37.8277V23.8061ZM34.6761 23.7868H37.8084V20.6545H34.6761V23.7868Z" fill="black"/>
<path d="M35.5323 22.4362C35.5032 22.4345 35.4751 22.42 35.4569 22.3943C35.4252 22.3495 35.436 22.2874 35.4808 22.2557L36.7515 21.3585C36.7963 21.3268 36.8584 21.3376 36.8901 21.3824C36.9218 21.4272 36.911 21.4893 36.8662 21.521L35.5955 22.4182C35.5764 22.4317 35.554 22.4375 35.5323 22.4362Z" fill="black"/>
<path d="M36.7292 23.1163C36.7145 23.1154 36.6998 23.1112 36.6862 23.1034L35.489 22.4232C35.4412 22.3961 35.4244 22.3354 35.4517 22.2876C35.4788 22.2399 35.5396 22.2231 35.5872 22.2503L36.7844 22.9305C36.8322 22.9576 36.8489 23.0184 36.8217 23.0661C36.8024 23.1003 36.766 23.1185 36.7292 23.1163Z" fill="black"/>
<path d="M35.8724 22.3571C35.8837 22.1725 35.7431 22.0138 35.5585 22.0026C35.3739 21.9913 35.2151 22.1319 35.2039 22.3165C35.1926 22.5011 35.3332 22.6599 35.5178 22.6711C35.7024 22.6823 35.8613 22.5417 35.8724 22.3571Z" fill="black"/>
<path d="M37.1431 21.4599C37.1543 21.2754 37.0137 21.1165 36.8291 21.1054C36.6445 21.0941 36.4858 21.2347 36.4745 21.4193C36.4633 21.6039 36.6039 21.7627 36.7884 21.7739C36.9731 21.7851 37.1318 21.6445 37.1431 21.4599Z" fill="black"/>
<path d="M37.0696 23.0374C37.0808 22.8527 36.9402 22.694 36.7557 22.6828C36.571 22.6715 36.4123 22.8121 36.401 22.9967C36.3898 23.1813 36.5304 23.3401 36.7149 23.3513C36.8997 23.3626 37.0584 23.222 37.0696 23.0374Z" fill="black"/>
<path d="M15.6434 16.9351H11.1671C11.0709 16.9351 10.9928 17.0131 10.9928 17.1094C10.9928 17.2056 11.0708 17.2838 11.1671 17.2838H15.6434C15.7396 17.2838 15.8177 17.2057 15.8177 17.1094C15.8177 17.0131 15.7396 16.9351 15.6434 16.9351Z" fill="black"/>
<path d="M13.8106 17.6768H11.0966C11.0392 17.6768 10.9928 17.7233 10.9928 17.7805C10.9928 17.8379 11.0392 17.8843 11.0966 17.8843H13.8106C13.8679 17.8843 13.9143 17.8378 13.9143 17.7805C13.9144 17.7233 13.8679 17.6768 13.8106 17.6768Z" fill="black"/>
<path d="M13.8106 19.1833H11.0966C11.0392 19.1833 10.9928 19.2298 10.9928 19.2871C10.9928 19.3445 11.0392 19.3909 11.0966 19.3909H13.8106C13.8679 19.3909 13.9143 19.3444 13.9143 19.2871C13.9144 19.2298 13.8679 19.1833 13.8106 19.1833Z" fill="black"/>
<path d="M12.4136 18.179H11.0966C11.0392 18.179 10.9928 18.2255 10.9928 18.2827C10.9928 18.3401 11.0392 18.3865 11.0966 18.3865H12.4136C12.471 18.3865 12.5174 18.34 12.5174 18.2827C12.5175 18.2255 12.471 18.179 12.4136 18.179Z" fill="black"/>
<path d="M17.5563 18.6812H16.2393C16.1819 18.6812 16.1355 18.7277 16.1355 18.7849C16.1355 18.8422 16.182 18.8887 16.2393 18.8887H17.5563C17.6137 18.8887 17.6601 18.8422 17.6601 18.7849C17.6601 18.7276 17.6137 18.6812 17.5563 18.6812Z" fill="black"/>
<path d="M15.4973 19.1833H14.1802C14.1229 19.1833 14.0764 19.2298 14.0764 19.2871C14.0764 19.3445 14.1229 19.3909 14.1802 19.3909H15.4973C15.5545 19.3909 15.601 19.3444 15.601 19.2871C15.601 19.2298 15.5546 19.1833 15.4973 19.1833Z" fill="black"/>
<path d="M15.1751 19.6853H13.858C13.8007 19.6853 13.7543 19.7318 13.7543 19.7891C13.7543 19.8464 13.8008 19.8928 13.858 19.8928H15.1751C15.2325 19.8928 15.2789 19.8463 15.2789 19.7891C15.2789 19.7318 15.2324 19.6853 15.1751 19.6853Z" fill="black"/>
<path d="M19.0208 17.6768H14.2888C14.2316 17.6768 14.1851 17.7233 14.1851 17.7805C14.1851 17.8379 14.2316 17.8843 14.2888 17.8843H19.0208C19.0781 17.8843 19.1245 17.8378 19.1245 17.7805C19.1245 17.7233 19.078 17.6768 19.0208 17.6768Z" fill="black"/>
<path d="M15.8285 18.6812H11.0966C11.0392 18.6812 10.9928 18.7277 10.9928 18.7849C10.9928 18.8422 11.0392 18.8887 11.0966 18.8887H15.8285C15.8858 18.8887 15.9323 18.8422 15.9323 18.7849C15.9323 18.7276 15.8858 18.6812 15.8285 18.6812Z" fill="black"/>
<path d="M17.5563 18.179H12.8243C12.7671 18.179 12.7206 18.2255 12.7206 18.2827C12.7206 18.3401 12.7671 18.3865 12.8243 18.3865H17.5563C17.6136 18.3865 17.66 18.34 17.66 18.2827C17.66 18.2255 17.6136 18.179 17.5563 18.179Z" fill="black"/>
<path d="M19.9263 17.6768H19.5079C19.4506 17.6768 19.4042 17.7233 19.4042 17.7805C19.4042 17.8379 19.4507 17.8843 19.5079 17.8843H19.9263C19.9836 17.8843 20.03 17.8378 20.03 17.7805C20.0301 17.7233 19.9836 17.6768 19.9263 17.6768Z" fill="black"/>
<path d="M18.3955 18.6812H17.9772C17.9198 18.6812 17.8734 18.7277 17.8734 18.7849C17.8734 18.8422 17.9199 18.8887 17.9772 18.8887H18.3955C18.4528 18.8887 18.4993 18.8422 18.4993 18.7849C18.4993 18.7276 18.4528 18.6812 18.3955 18.6812Z" fill="black"/>
<path d="M15.8285 20.0891H11.0966C11.0392 20.0891 10.9928 20.1355 10.9928 20.1929C10.9928 20.2502 11.0392 20.2966 11.0966 20.2966H15.8285C15.8858 20.2966 15.9323 20.2502 15.9323 20.1929C15.9323 20.1356 15.8858 20.0891 15.8285 20.0891Z" fill="black"/>
<path d="M16.6527 20.0891H16.2344C16.177 20.0891 16.1306 20.1355 16.1306 20.1929C16.1306 20.2502 16.1771 20.2966 16.2344 20.2966H16.6527C16.7101 20.2966 16.7565 20.2502 16.7565 20.1929C16.7565 20.1356 16.7101 20.0891 16.6527 20.0891Z" fill="black"/>
<path d="M16.3397 19.1833H15.9214C15.864 19.1833 15.8176 19.2298 15.8176 19.2871C15.8176 19.3445 15.8641 19.3909 15.9214 19.3909H16.3397C16.3971 19.3909 16.4435 19.3444 16.4435 19.2871C16.4436 19.2298 16.3971 19.1833 16.3397 19.1833Z" fill="black"/>
<path d="M12.4136 19.6853H11.0966C11.0392 19.6853 10.9928 19.7318 10.9928 19.7891C10.9928 19.8464 11.0392 19.8928 11.0966 19.8928H12.4136C12.471 19.8928 12.5174 19.8463 12.5174 19.7891C12.5175 19.7318 12.471 19.6853 12.4136 19.6853Z" fill="black"/>
<path d="M13.2561 19.6853H12.8378C12.7804 19.6853 12.734 19.7318 12.734 19.7891C12.734 19.8464 12.7804 19.8928 12.8378 19.8928H13.2561C13.3135 19.8928 13.3599 19.8463 13.3599 19.7891C13.3599 19.7318 13.3135 19.6853 13.2561 19.6853Z" fill="black"/>
<path d="M18.6352 16.9351H16.6048C16.5085 16.9351 16.4304 17.0131 16.4304 17.1094C16.4304 17.2056 16.5084 17.2838 16.6048 17.2838H18.6352C18.7315 17.2838 18.8096 17.2057 18.8096 17.1094C18.8096 17.0131 18.7315 16.9351 18.6352 16.9351Z" fill="black"/>
<path d="M15.6434 21.7368H11.1671C11.0709 21.7368 10.9928 21.8148 10.9928 21.9112C10.9928 22.0074 11.0708 22.0855 11.1671 22.0855H15.6434C15.7396 22.0855 15.8177 22.0075 15.8177 21.9112C15.8177 21.8148 15.7396 21.7368 15.6434 21.7368Z" fill="black"/>
<path d="M13.8106 22.4785H11.0966C11.0392 22.4785 10.9928 22.525 10.9928 22.5823C10.9928 22.6396 11.0392 22.6861 11.0966 22.6861H13.8106C13.8679 22.6861 13.9143 22.6396 13.9143 22.5823C13.9144 22.525 13.8679 22.4785 13.8106 22.4785Z" fill="black"/>
<path d="M13.8106 23.9849H11.0966C11.0392 23.9849 10.9928 24.0314 10.9928 24.0886C10.9928 24.1459 11.0392 24.1924 11.0966 24.1924H13.8106C13.8679 24.1924 13.9143 24.1459 13.9143 24.0886C13.9144 24.0314 13.8679 23.9849 13.8106 23.9849Z" fill="black"/>
<path d="M12.4136 22.9807H11.0966C11.0392 22.9807 10.9928 23.0272 10.9928 23.0845C10.9928 23.1418 11.0392 23.1882 11.0966 23.1882H12.4136C12.471 23.1882 12.5174 23.1418 12.5174 23.0845C12.5175 23.0271 12.471 22.9807 12.4136 22.9807Z" fill="black"/>
<path d="M17.5563 23.4827H16.2393C16.1819 23.4827 16.1355 23.5292 16.1355 23.5864C16.1355 23.6438 16.182 23.6902 16.2393 23.6902H17.5563C17.6137 23.6902 17.6601 23.6437 17.6601 23.5864C17.6601 23.5291 17.6137 23.4827 17.5563 23.4827Z" fill="black"/>
<path d="M15.4973 23.9849H14.1802C14.1229 23.9849 14.0764 24.0314 14.0764 24.0886C14.0764 24.1459 14.1229 24.1924 14.1802 24.1924H15.4973C15.5545 24.1924 15.601 24.1459 15.601 24.0886C15.601 24.0314 15.5546 23.9849 15.4973 23.9849Z" fill="black"/>
<path d="M15.1751 24.4868H13.858C13.8007 24.4868 13.7543 24.5333 13.7543 24.5906C13.7543 24.6479 13.8008 24.6944 13.858 24.6944H15.1751C15.2325 24.6944 15.2789 24.6479 15.2789 24.5906C15.2789 24.5333 15.2324 24.4868 15.1751 24.4868Z" fill="black"/>
<path d="M19.0208 22.4785H14.2888C14.2316 22.4785 14.1851 22.525 14.1851 22.5823C14.1851 22.6396 14.2316 22.6861 14.2888 22.6861H19.0208C19.0781 22.6861 19.1245 22.6396 19.1245 22.5823C19.1245 22.525 19.078 22.4785 19.0208 22.4785Z" fill="black"/>
<path d="M15.8285 23.4827H11.0966C11.0392 23.4827 10.9928 23.5292 10.9928 23.5864C10.9928 23.6438 11.0392 23.6902 11.0966 23.6902H15.8285C15.8858 23.6902 15.9323 23.6437 15.9323 23.5864C15.9323 23.5291 15.8858 23.4827 15.8285 23.4827Z" fill="black"/>
<path d="M17.5563 22.9807H12.8243C12.7671 22.9807 12.7206 23.0272 12.7206 23.0845C12.7206 23.1418 12.7671 23.1882 12.8243 23.1882H17.5563C17.6136 23.1882 17.66 23.1418 17.66 23.0845C17.66 23.0271 17.6136 22.9807 17.5563 22.9807Z" fill="black"/>
<path d="M19.9263 22.4785H19.5079C19.4506 22.4785 19.4042 22.525 19.4042 22.5823C19.4042 22.6396 19.4507 22.6861 19.5079 22.6861H19.9263C19.9836 22.6861 20.03 22.6396 20.03 22.5823C20.0301 22.525 19.9836 22.4785 19.9263 22.4785Z" fill="black"/>
<path d="M18.3955 23.4827H17.9772C17.9198 23.4827 17.8734 23.5292 17.8734 23.5864C17.8734 23.6438 17.9199 23.6902 17.9772 23.6902H18.3955C18.4528 23.6902 18.4993 23.6437 18.4993 23.5864C18.4993 23.5291 18.4528 23.4827 18.3955 23.4827Z" fill="black"/>
<path d="M15.8285 24.8909H11.0966C11.0392 24.8909 10.9928 24.9374 10.9928 24.9946C10.9928 25.052 11.0392 25.0984 11.0966 25.0984H15.8285C15.8858 25.0984 15.9323 25.0519 15.9323 24.9946C15.9323 24.9374 15.8858 24.8909 15.8285 24.8909Z" fill="black"/>
<path d="M16.6527 24.8909H16.2344C16.177 24.8909 16.1306 24.9374 16.1306 24.9946C16.1306 25.052 16.1771 25.0984 16.2344 25.0984H16.6527C16.7101 25.0984 16.7565 25.0519 16.7565 24.9946C16.7565 24.9374 16.7101 24.8909 16.6527 24.8909Z" fill="black"/>
<path d="M16.3397 23.9849H15.9214C15.864 23.9849 15.8176 24.0314 15.8176 24.0886C15.8176 24.1459 15.8641 24.1924 15.9214 24.1924H16.3397C16.3971 24.1924 16.4435 24.1459 16.4435 24.0886C16.4436 24.0314 16.3971 23.9849 16.3397 23.9849Z" fill="black"/>
<path d="M12.4136 24.4868H11.0966C11.0392 24.4868 10.9928 24.5333 10.9928 24.5906C10.9928 24.6479 11.0392 24.6944 11.0966 24.6944H12.4136C12.471 24.6944 12.5174 24.6479 12.5174 24.5906C12.5175 24.5333 12.471 24.4868 12.4136 24.4868Z" fill="black"/>
<path d="M13.2561 24.4868H12.8378C12.7804 24.4868 12.734 24.5333 12.734 24.5906C12.734 24.6479 12.7804 24.6944 12.8378 24.6944H13.2561C13.3135 24.6944 13.3599 24.6479 13.3599 24.5906C13.3599 24.5333 13.3135 24.4868 13.2561 24.4868Z" fill="black"/>
<path d="M18.6352 21.7368H16.6048C16.5085 21.7368 16.4304 21.8148 16.4304 21.9112C16.4304 22.0074 16.5084 22.0855 16.6048 22.0855H18.6352C18.7315 22.0855 18.8096 22.0075 18.8096 21.9112C18.8096 21.8148 18.7315 21.7368 18.6352 21.7368Z" fill="black"/>
<path d="M15.6434 26.5383H11.1671C11.0709 26.5383 10.9928 26.6164 10.9928 26.7127C10.9928 26.8089 11.0708 26.887 11.1671 26.887H15.6434C15.7396 26.887 15.8177 26.809 15.8177 26.7127C15.8177 26.6164 15.7396 26.5383 15.6434 26.5383Z" fill="black"/>
<path d="M13.8106 27.28H11.0966C11.0392 27.28 10.9928 27.3265 10.9928 27.3838C10.9928 27.4411 11.0392 27.4876 11.0966 27.4876H13.8106C13.8679 27.4876 13.9143 27.4411 13.9143 27.3838C13.9144 27.3265 13.8679 27.28 13.8106 27.28Z" fill="black"/>
<path d="M13.8106 28.7864H11.0966C11.0392 28.7864 10.9928 28.8329 10.9928 28.8901C10.9928 28.9475 11.0392 28.9939 11.0966 28.9939H13.8106C13.8679 28.9939 13.9143 28.9475 13.9143 28.8901C13.9144 28.8329 13.8679 28.7864 13.8106 28.7864Z" fill="black"/>
<path d="M12.4136 27.7822H11.0966C11.0392 27.7822 10.9928 27.8287 10.9928 27.886C10.9928 27.9433 11.0392 27.9898 11.0966 27.9898H12.4136C12.471 27.9898 12.5174 27.9433 12.5174 27.886C12.5175 27.8286 12.471 27.7822 12.4136 27.7822Z" fill="black"/>
<path d="M17.5563 28.2844H16.2393C16.1819 28.2844 16.1355 28.3308 16.1355 28.3882C16.1355 28.4455 16.182 28.492 16.2393 28.492H17.5563C17.6137 28.492 17.6601 28.4455 17.6601 28.3882C17.6601 28.3308 17.6137 28.2844 17.5563 28.2844Z" fill="black"/>
<path d="M15.4973 28.7864H14.1802C14.1229 28.7864 14.0764 28.8329 14.0764 28.8901C14.0764 28.9475 14.1229 28.9939 14.1802 28.9939H15.4973C15.5545 28.9939 15.601 28.9475 15.601 28.8901C15.601 28.8329 15.5546 28.7864 15.4973 28.7864Z" fill="black"/>
<path d="M15.1751 29.2886H13.858C13.8007 29.2886 13.7543 29.3351 13.7543 29.3923C13.7543 29.4496 13.8008 29.4961 13.858 29.4961H15.1751C15.2325 29.4961 15.2789 29.4496 15.2789 29.3923C15.2789 29.3351 15.2324 29.2886 15.1751 29.2886Z" fill="black"/>
<path d="M19.0208 27.28H14.2888C14.2316 27.28 14.1851 27.3265 14.1851 27.3838C14.1851 27.4411 14.2316 27.4876 14.2888 27.4876H19.0208C19.0781 27.4876 19.1245 27.4411 19.1245 27.3838C19.1245 27.3265 19.078 27.28 19.0208 27.28Z" fill="black"/>
<path d="M15.8285 28.2844H11.0966C11.0392 28.2844 10.9928 28.3308 10.9928 28.3882C10.9928 28.4455 11.0392 28.492 11.0966 28.492H15.8285C15.8858 28.492 15.9323 28.4455 15.9323 28.3882C15.9323 28.3308 15.8858 28.2844 15.8285 28.2844Z" fill="black"/>
<path d="M17.5563 27.7822H12.8243C12.7671 27.7822 12.7206 27.8287 12.7206 27.886C12.7206 27.9433 12.7671 27.9898 12.8243 27.9898H17.5563C17.6136 27.9898 17.66 27.9433 17.66 27.886C17.66 27.8286 17.6136 27.7822 17.5563 27.7822Z" fill="black"/>
<path d="M19.9263 27.28H19.5079C19.4506 27.28 19.4042 27.3265 19.4042 27.3838C19.4042 27.4411 19.4507 27.4876 19.5079 27.4876H19.9263C19.9836 27.4876 20.03 27.4411 20.03 27.3838C20.0301 27.3265 19.9836 27.28 19.9263 27.28Z" fill="black"/>
<path d="M18.3955 28.2844H17.9772C17.9198 28.2844 17.8734 28.3308 17.8734 28.3882C17.8734 28.4455 17.9199 28.492 17.9772 28.492H18.3955C18.4528 28.492 18.4993 28.4455 18.4993 28.3882C18.4993 28.3308 18.4528 28.2844 18.3955 28.2844Z" fill="black"/>
<path d="M15.8285 29.6924H11.0966C11.0392 29.6924 10.9928 29.7389 10.9928 29.7962C10.9928 29.8535 11.0392 29.8999 11.0966 29.8999H15.8285C15.8858 29.8999 15.9323 29.8535 15.9323 29.7962C15.9323 29.7388 15.8858 29.6924 15.8285 29.6924Z" fill="black"/>
<path d="M16.6527 29.6924H16.2344C16.177 29.6924 16.1306 29.7389 16.1306 29.7962C16.1306 29.8535 16.1771 29.8999 16.2344 29.8999H16.6527C16.7101 29.8999 16.7565 29.8535 16.7565 29.7962C16.7565 29.7388 16.7101 29.6924 16.6527 29.6924Z" fill="black"/>
<path d="M16.3397 28.7864H15.9214C15.864 28.7864 15.8176 28.8329 15.8176 28.8901C15.8176 28.9475 15.8641 28.9939 15.9214 28.9939H16.3397C16.3971 28.9939 16.4435 28.9475 16.4435 28.8901C16.4436 28.8329 16.3971 28.7864 16.3397 28.7864Z" fill="black"/>
<path d="M12.4136 29.2886H11.0966C11.0392 29.2886 10.9928 29.3351 10.9928 29.3923C10.9928 29.4496 11.0392 29.4961 11.0966 29.4961H12.4136C12.471 29.4961 12.5174 29.4496 12.5174 29.3923C12.5175 29.3351 12.471 29.2886 12.4136 29.2886Z" fill="black"/>
<path d="M13.2561 29.2886H12.8378C12.7804 29.2886 12.734 29.3351 12.734 29.3923C12.734 29.4496 12.7804 29.4961 12.8378 29.4961H13.2561C13.3135 29.4961 13.3599 29.4496 13.3599 29.3923C13.3599 29.3351 13.3135 29.2886 13.2561 29.2886Z" fill="black"/>
<path d="M18.6352 26.5383H16.6048C16.5085 26.5383 16.4304 26.6164 16.4304 26.7127C16.4304 26.8089 16.5084 26.887 16.6048 26.887H18.6352C18.7315 26.887 18.8096 26.809 18.8096 26.7127C18.8096 26.6164 18.7315 26.5383 18.6352 26.5383Z" fill="black"/>
</g>
<path d="M27.597 30.2675H22.3542C21.8537 30.2675 21.4479 29.8617 21.4479 29.3612V16.6759C21.4479 16.1753 21.8537 15.7695 22.3542 15.7695H27.597C28.0975 15.7695 28.5034 16.1753 28.5034 16.6759V29.3611C28.5034 29.8617 28.0976 30.2675 27.597 30.2675Z" fill="#C7D0E6"/>
<path d="M27.5588 15.9104C27.9916 15.9104 28.3437 16.2625 28.3437 16.6953V29.3418C28.3437 29.7746 27.9916 30.1267 27.5588 30.1267H22.3926C21.9598 30.1267 21.6077 29.7746 21.6077 29.3418V16.6954C21.6077 16.2626 21.9598 15.9105 22.3926 15.9105L27.5588 15.9104Z" fill="#20293A"/>
<path d="M27.5466 16.0591H26.8942C26.8539 16.0591 26.8215 16.0897 26.8161 16.1297C26.7816 16.3839 26.5637 16.5798 26.3001 16.5798H23.6512C23.3876 16.5798 23.1697 16.3839 23.1352 16.1297C23.1298 16.0897 23.0977 16.0591 23.0573 16.0591C22.9323 16.0591 22.6656 16.0591 22.4046 16.0591C22.0376 16.0591 21.7401 16.3566 21.7401 16.7236V29.3134C21.7401 29.6804 22.0376 29.978 22.4046 29.978H27.5466C27.9136 29.978 28.2112 29.6804 28.2112 29.3134V16.7237C28.2112 16.3566 27.9136 16.0591 27.5466 16.0591Z" fill="#181F2B"/>
<path d="M25.4179 16.1977H24.5039C24.4784 16.1977 24.4576 16.1771 24.4576 16.1515C24.4576 16.126 24.4783 16.1052 24.5039 16.1052H25.4179C25.4434 16.1052 25.4642 16.1259 25.4642 16.1515C25.4641 16.1771 25.4434 16.1977 25.4179 16.1977Z" fill="#20293A"/>
<path d="M25.8078 16.238C25.8555 16.238 25.8941 16.1993 25.8941 16.1517C25.8941 16.104 25.8555 16.0654 25.8078 16.0654C25.7602 16.0654 25.7216 16.104 25.7216 16.1517C25.7216 16.1993 25.7602 16.238 25.8078 16.238Z" fill="#20293A"/>
<path d="M25.8078 16.218C25.8445 16.218 25.8742 16.1882 25.8742 16.1516C25.8742 16.1149 25.8445 16.0852 25.8078 16.0852C25.7712 16.0852 25.7415 16.1149 25.7415 16.1516C25.7415 16.1882 25.7712 16.218 25.8078 16.218Z" fill="#181F2B"/>
<path d="M25.8078 16.167C25.8163 16.167 25.8232 16.1601 25.8232 16.1516C25.8232 16.1431 25.8163 16.1362 25.8078 16.1362C25.7994 16.1362 25.7925 16.1431 25.7925 16.1516C25.7925 16.1601 25.7994 16.167 25.8078 16.167Z" fill="#85E8FF"/>
<path d="M24.3187 24.4234L24.6244 24.231L24.4458 23.7767C24.5058 23.7116 24.5562 23.6398 24.5969 23.5633L25.0847 23.5811L25.1648 23.2289L24.7173 23.0339C24.7137 22.9474 24.6993 22.8608 24.6734 22.7761L25.0309 22.4438L24.8385 22.1381L24.3843 22.3167C24.3192 22.2567 24.2473 22.2062 24.1709 22.1656L24.1886 21.6777L23.8364 21.5977L23.6414 22.0452C23.5549 22.0488 23.4683 22.0632 23.3836 22.0891L23.0514 21.7316L22.7457 21.924L22.9242 22.3782C22.8642 22.4433 22.8138 22.5152 22.7732 22.5916L22.2853 22.5739L22.2052 22.9261L22.6528 23.1211C22.6563 23.2076 22.6707 23.2942 22.6966 23.3788L22.3391 23.7111L22.5316 24.0168L22.9858 23.8383C23.0509 23.8982 23.1227 23.9487 23.1992 23.9893L23.1814 24.4772L23.5336 24.5573L23.7286 24.1097C23.8151 24.1062 23.9017 24.0917 23.9864 24.0658L24.3187 24.4234ZM22.9966 23.5109C22.7573 23.1307 22.8715 22.6285 23.2518 22.3892C23.632 22.1499 24.1341 22.2642 24.3734 22.6444C24.6127 23.0245 24.4985 23.5267 24.1183 23.766C23.738 24.0052 23.2359 23.891 22.9966 23.5109Z" fill="#20293A"/>
<path d="M27.0418 23.2297L27.3183 22.9973L27.0793 22.5718C27.1297 22.4991 27.1699 22.421 27.1997 22.3397L27.6854 22.2906L27.7166 21.9308L27.2466 21.7988C27.2312 21.7136 27.2051 21.6299 27.1679 21.5495L27.4765 21.1714L27.2442 20.8949L26.8187 21.1339C26.7459 21.0835 26.6679 21.0433 26.5866 21.0135L26.5375 20.5278L26.1777 20.4966L26.0457 20.9666C25.9605 20.982 25.8767 21.0081 25.7964 21.0453L25.4183 20.7367L25.1419 20.969L25.3809 21.3945C25.3304 21.4673 25.2903 21.5453 25.2605 21.6266L24.7747 21.6757L24.7435 22.0355L25.2136 22.1675C25.2289 22.2527 25.2551 22.3365 25.2922 22.4169L24.9836 22.7949L25.216 23.0714L25.6416 22.8324C25.7143 22.8829 25.7924 22.923 25.8737 22.9528L25.9228 23.4385L26.2826 23.4698L26.4145 22.9997C26.4998 22.9843 26.5835 22.9582 26.6638 22.921L27.0418 23.2297ZM25.6073 22.5065C25.3183 22.1627 25.3628 21.6495 25.7067 21.3606C26.0505 21.0715 26.5637 21.116 26.8526 21.4599C27.1417 21.8038 27.0972 22.3169 26.7533 22.6059C26.4095 22.8949 25.8964 22.8504 25.6073 22.5065Z" fill="#20293A"/>
<path d="M26.9351 25.6212L27.145 25.3273L26.8076 24.9747C26.8384 24.8917 26.8578 24.8061 26.8665 24.7199L27.3247 24.5514L27.2654 24.1952L26.7773 24.1844C26.7412 24.1058 26.6951 24.0311 26.639 23.9626L26.8437 23.5195L26.5499 23.3096L26.1972 23.647C26.1142 23.6162 26.0286 23.5968 25.9425 23.5881L25.774 23.1299L25.4177 23.1892L25.407 23.6773C25.3283 23.7134 25.2536 23.7595 25.1851 23.8156L24.7421 23.6109L24.5322 23.9047L24.8695 24.2574C24.8387 24.3404 24.8193 24.426 24.8107 24.5121L24.3524 24.6806L24.4117 25.0368L24.8999 25.0476C24.936 25.1263 24.9821 25.201 25.0382 25.2695L24.8334 25.7125L25.1273 25.9224L25.4799 25.5851C25.5629 25.6159 25.6485 25.6353 25.7347 25.6439L25.9032 26.1022L26.2594 26.0429L26.2702 25.5547C26.3488 25.5186 26.4235 25.4725 26.492 25.4164L26.9351 25.6212ZM25.3658 25.2778C25.0003 25.0167 24.9156 24.5087 25.1767 24.1432C25.4378 23.7776 25.9458 23.693 26.3113 23.9541C26.6769 24.2152 26.7615 24.7232 26.5004 25.0887C26.2393 25.4543 25.7313 25.539 25.3658 25.2778Z" fill="#20293A"/>
<path d="M21.2855 30.5845H28.6659" stroke="#464E61" stroke-width="0.0594096" stroke-miterlimit="10"/>
<path d="M21.0717 15.6753V30.3704" stroke="#464E61" stroke-width="0.0594096" stroke-miterlimit="10"/>
<path d="M28.6659 15.4614H21.2855" stroke="#464E61" stroke-width="0.0594096" stroke-miterlimit="10"/>
<path d="M28.8798 30.3772V15.6753" stroke="#464E61" stroke-width="0.0594096" stroke-miterlimit="10"/>
<path d="M29.0936 15.2478H28.6659V15.6756H29.0936V15.2478Z" stroke="#464E61" stroke-width="0.0594096" stroke-miterlimit="10"/>
<path d="M21.2855 15.2478H20.8578V15.6756H21.2855V15.2478Z" stroke="#464E61" stroke-width="0.0594096" stroke-miterlimit="10"/>
<path d="M29.0936 30.3706H28.6659V30.7984H29.0936V30.3706Z" stroke="#464E61" stroke-width="0.0594096" stroke-miterlimit="10"/>
<path d="M21.2855 30.3706H20.8578V30.7984H21.2855V30.3706Z" stroke="#464E61" stroke-width="0.0594096" stroke-miterlimit="10"/>
<path d="M33.8304 30.6631H29.8376V30.7016H33.8304V30.6631Z" fill="#464E61"/>
<path d="M29.7412 27.446H29.7026V30.5667H29.7412V27.446Z" fill="#464E61"/>
<path d="M33.8304 27.311H29.8376V27.3496H33.8304V27.311Z" fill="#464E61"/>
<path d="M33.9653 27.446H33.9268V30.5704H33.9653V27.446Z" fill="#464E61"/>
<path d="M34.081 27.4653H33.811V27.1953H34.081V27.4653ZM33.8496 27.4268H34.0425V27.2338H33.8496V27.4268Z" fill="#464E61"/>
<path d="M29.8569 27.4653H29.5869V27.1953H29.8569V27.4653ZM29.6255 27.4268H29.8184V27.2338H29.6255V27.4268Z" fill="#464E61"/>
<path d="M34.081 30.8173H33.811V30.5474H34.081V30.8173ZM33.8496 30.7787H34.0425V30.5859H33.8496V30.7787Z" fill="#464E61"/>
<path d="M29.8569 30.8173H29.5869V30.5474H29.8569V30.8173ZM29.6255 30.7787H29.8184V30.5859H29.6255V30.7787Z" fill="#464E61"/>
<path d="M33.6655 27.5703H30.0027V30.4426H33.6655V27.5703Z" fill="white"/>
<path d="M33.5652 27.6726H30.1028V30.3404H33.5652V27.6726Z" fill="#85E8FF"/>
<path d="M30.6058 28.629C30.6623 28.6232 30.7178 28.6008 30.7559 28.561C30.7753 28.5407 30.7914 28.5149 30.8179 28.5056C30.8539 28.493 30.8918 28.5164 30.9211 28.5407C30.9015 28.5191 30.8813 28.4966 30.8717 28.469C30.862 28.4415 30.8654 28.4071 30.8876 28.3881C30.9183 28.3618 30.97 28.379 30.9915 28.4133C30.9819 28.387 30.982 28.3616 30.9856 28.3355C30.9912 28.2937 31.0285 28.2608 31.0663 28.2465C31.0987 28.2343 31.1523 28.2332 31.1891 28.2637C31.238 28.3044 31.2452 28.376 31.2269 28.4097C31.2447 28.3828 31.2859 28.378 31.3131 28.3953C31.3405 28.4126 31.3539 28.4465 31.3533 28.4789C31.351 28.4412 31.3653 28.4027 31.3917 28.3756C31.4436 28.3225 31.5374 28.323 31.5943 28.3708C31.651 28.4187 31.6691 28.5041 31.6445 28.5742C31.6677 28.5436 31.7173 28.538 31.7468 28.5626C31.7581 28.5719 31.7661 28.5845 31.7763 28.5951C31.8012 28.6207 31.8281 28.6234 31.8743 28.6263C31.8743 28.6263 30.7614 28.6242 30.6058 28.629Z" fill="#FEFEFE"/>
<path d="M31.8853 28.1657C31.9013 28.1641 31.9173 28.1576 31.9281 28.1463C31.9337 28.1405 31.9382 28.1332 31.9458 28.1305C31.956 28.1269 31.9668 28.1336 31.9752 28.1405C31.9696 28.1344 31.9639 28.1279 31.9611 28.1201C31.9584 28.1123 31.9593 28.1024 31.9657 28.097C31.9744 28.0894 31.9892 28.0943 31.9954 28.1042C31.9926 28.0966 31.9927 28.0894 31.9937 28.0819C31.9953 28.07 32.006 28.0606 32.0167 28.0565C32.026 28.053 32.0413 28.0527 32.0518 28.0614C32.0658 28.073 32.0678 28.0935 32.0625 28.1031C32.0676 28.0954 32.0794 28.094 32.0872 28.0989C32.0949 28.1039 32.0988 28.1136 32.0987 28.1228C32.098 28.112 32.1021 28.101 32.1096 28.0933C32.1244 28.0781 32.1512 28.0783 32.1674 28.0919C32.1836 28.1055 32.1888 28.1299 32.1817 28.15C32.1884 28.1412 32.2026 28.1397 32.211 28.1466C32.2141 28.1493 32.2164 28.1529 32.2194 28.1559C32.2264 28.1633 32.2342 28.164 32.2473 28.1648C32.2473 28.1648 31.9296 28.1643 31.8853 28.1657Z" fill="#FEFEFE"/>
<path d="M32.4663 28.5311C32.4928 28.5284 32.5189 28.5178 32.5368 28.4991C32.5459 28.4896 32.5535 28.4774 32.5659 28.4731C32.5828 28.4671 32.6006 28.4781 32.6144 28.4896C32.6052 28.4795 32.5957 28.4689 32.5911 28.456C32.5866 28.443 32.5882 28.4269 32.5986 28.4179C32.613 28.4056 32.6373 28.4137 32.6474 28.4297C32.6429 28.4174 32.643 28.4055 32.6446 28.3932C32.6472 28.3736 32.6648 28.3581 32.6826 28.3514C32.6978 28.3457 32.723 28.3451 32.7402 28.3595C32.7633 28.3787 32.7666 28.4122 32.758 28.4281C32.7664 28.4154 32.7857 28.4132 32.7985 28.4213C32.8114 28.4295 32.8177 28.4454 32.8174 28.4606C32.8163 28.4429 32.823 28.4248 32.8354 28.4122C32.8598 28.3872 32.9039 28.3874 32.9306 28.4099C32.9573 28.4324 32.9657 28.4724 32.9542 28.5054C32.9651 28.4911 32.9884 28.4884 33.0023 28.4999C33.0075 28.5044 33.0113 28.5102 33.0161 28.5152C33.0278 28.5273 33.0404 28.5285 33.0622 28.5299C33.0622 28.5299 32.5393 28.5289 32.4663 28.5311Z" fill="#FEFEFE"/>
<path d="M33.5652 29.092H30.1028V30.3402H33.5652V29.092Z" fill="#71ABFF"/>
<path d="M33.5653 29.8967C33.5653 29.8967 32.568 30.0293 31.8341 30.0293C30.9819 30.0293 30.1029 29.8967 30.1029 29.8967V30.3404H33.5653V29.8967Z" fill="#FFA64D"/>
<path d="M38.5668 30.6631H34.5741V30.7016H38.5668V30.6631Z" fill="#464E61"/>
<path d="M34.4777 27.446H34.4392V30.5667H34.4777V27.446Z" fill="#464E61"/>
<path d="M38.5668 27.311H34.5741V27.3496H38.5668V27.311Z" fill="#464E61"/>
<path d="M38.7018 27.446H38.6633V30.5704H38.7018V27.446Z" fill="#464E61"/>
<path d="M38.8176 27.4653H38.5476V27.1953H38.8176V27.4653ZM38.5862 27.4268H38.7791V27.2338H38.5862V27.4268Z" fill="#464E61"/>
<path d="M34.5934 27.4653H34.3235V27.1953H34.5934V27.4653ZM34.3621 27.4268H34.5549V27.2338H34.3621V27.4268Z" fill="#464E61"/>
<path d="M38.8176 30.8173H38.5476V30.5474H38.8176V30.8173ZM38.5862 30.7787H38.7791V30.5859H38.5862V30.7787Z" fill="#464E61"/>
<path d="M34.5934 30.8173H34.3235V30.5474H34.5934V30.8173ZM34.3621 30.7787H34.5549V30.5859H34.3621V30.7787Z" fill="#464E61"/>
<path d="M38.4019 27.5703H34.7391V30.4426H38.4019V27.5703Z" fill="white"/>
<path d="M38.3017 27.6726H34.8394V30.3404H38.3017V27.6726Z" fill="#85E8FF"/>
<path d="M35.3424 28.629C35.3988 28.6232 35.4544 28.6008 35.4925 28.561C35.5119 28.5407 35.528 28.5149 35.5545 28.5056C35.5904 28.493 35.6284 28.5164 35.6577 28.5407C35.638 28.5191 35.6179 28.4966 35.6082 28.469C35.5986 28.4415 35.602 28.4071 35.6242 28.3881C35.6549 28.3618 35.7065 28.379 35.7281 28.4133C35.7184 28.387 35.7186 28.3616 35.7222 28.3355C35.7278 28.2937 35.7651 28.2608 35.8029 28.2465C35.8353 28.2343 35.8889 28.2332 35.9257 28.2637C35.9747 28.3044 35.9817 28.376 35.9634 28.4097C35.9813 28.3828 36.0224 28.378 36.0497 28.3953C36.0769 28.4126 36.0905 28.4465 36.0899 28.4789C36.0876 28.4412 36.1019 28.4027 36.1283 28.3756C36.1802 28.3225 36.2739 28.323 36.3308 28.3708C36.3876 28.4187 36.4057 28.5041 36.381 28.5742C36.4043 28.5436 36.4539 28.538 36.4834 28.5626C36.4946 28.5719 36.5026 28.5845 36.5129 28.5951C36.5377 28.6207 36.5647 28.6234 36.6109 28.6263C36.6109 28.6263 35.4979 28.6242 35.3424 28.629Z" fill="#FEFEFE"/>
<path d="M36.6217 28.1657C36.6378 28.1641 36.6537 28.1576 36.6646 28.1463C36.6701 28.1405 36.6747 28.1332 36.6822 28.1305C36.6925 28.1269 36.7033 28.1336 36.7117 28.1405C36.7061 28.1344 36.7004 28.1279 36.6976 28.1201C36.6948 28.1123 36.6958 28.1024 36.7021 28.097C36.7109 28.0894 36.7256 28.0943 36.7318 28.1042C36.729 28.0966 36.7291 28.0894 36.7301 28.0819C36.7316 28.07 36.7423 28.0606 36.7531 28.0565C36.7624 28.053 36.7777 28.0527 36.7882 28.0614C36.8022 28.073 36.8042 28.0935 36.799 28.1031C36.804 28.0954 36.8159 28.094 36.8236 28.0989C36.8314 28.1039 36.8353 28.1136 36.8351 28.1228C36.8345 28.112 36.8385 28.101 36.8461 28.0933C36.8609 28.0781 36.8877 28.0783 36.9039 28.0919C36.9202 28.1055 36.9253 28.1299 36.9183 28.15C36.9249 28.1412 36.9391 28.1397 36.9475 28.1466C36.9507 28.1493 36.953 28.1529 36.9559 28.1559C36.963 28.1633 36.9707 28.164 36.9839 28.1648C36.9839 28.1648 36.6661 28.1643 36.6217 28.1657Z" fill="#FEFEFE"/>
<path d="M37.2029 28.5311C37.2294 28.5284 37.2555 28.5178 37.2734 28.4991C37.2825 28.4896 37.2901 28.4774 37.3025 28.4731C37.3193 28.4671 37.3371 28.4781 37.3509 28.4896C37.3417 28.4795 37.3322 28.4689 37.3277 28.456C37.3232 28.443 37.3248 28.4269 37.3352 28.4179C37.3497 28.4056 37.374 28.4137 37.384 28.4297C37.3795 28.4174 37.3796 28.4055 37.3813 28.3932C37.3839 28.3736 37.4015 28.3581 37.4192 28.3514C37.4344 28.3457 37.4596 28.3451 37.4769 28.3595C37.4999 28.3787 37.5033 28.4122 37.4946 28.4281C37.503 28.4154 37.5223 28.4132 37.5352 28.4213C37.548 28.4295 37.5543 28.4454 37.554 28.4606C37.5529 28.4429 37.5597 28.4248 37.5721 28.4122C37.5965 28.3872 37.6405 28.3874 37.6672 28.4099C37.6939 28.4324 37.7024 28.4724 37.6908 28.5054C37.7018 28.4911 37.7251 28.4884 37.7389 28.4999C37.7441 28.5044 37.7479 28.5102 37.7528 28.5152C37.7644 28.5273 37.7771 28.5285 37.7989 28.5299C37.7987 28.5299 37.2759 28.5289 37.2029 28.5311Z" fill="#FEFEFE"/>
<path d="M38.3017 29.092H34.8394V30.3402H38.3017V29.092Z" fill="#71ABFF"/>
<path d="M38.3017 29.8967C38.3017 29.8967 37.3045 30.0293 36.5705 30.0293C35.7183 30.0293 34.8394 29.8967 34.8394 29.8967V30.3404H38.3017V29.8967Z" fill="#FFA64D"/>
<path d="M37.8843 25.3186H30.515C30.2291 25.3186 29.9974 25.5504 29.9974 25.8362C29.9974 26.1221 30.2292 26.3538 30.515 26.3538H37.8843C38.1701 26.3538 38.4018 26.122 38.4018 25.8362C38.4019 25.5504 38.1701 25.3186 37.8843 25.3186Z" fill="#181F2B"/>
<path d="M31.1754 25.6035C31.1123 25.5099 30.9852 25.4853 30.8916 25.5484C30.8037 25.6077 30.7766 25.7235 30.826 25.8149L30.7767 25.8482C30.7631 25.8417 30.7466 25.8421 30.7332 25.8512L30.362 26.1017C30.3419 26.1153 30.3366 26.1426 30.3502 26.1627C30.3638 26.1828 30.3911 26.1881 30.4112 26.1745L30.7824 25.924C30.7958 25.9149 30.8024 25.8998 30.8015 25.8848L30.8511 25.8512C30.9178 25.929 31.0336 25.9461 31.1205 25.8874C31.2139 25.8242 31.2387 25.6972 31.1754 25.6035ZM30.8692 25.8102C30.8183 25.7346 30.8382 25.6321 30.9136 25.5811C30.9892 25.5301 31.0918 25.5501 31.1427 25.6256C31.1937 25.7011 31.1738 25.8037 31.0983 25.8547C31.0228 25.9057 30.9202 25.8858 30.8692 25.8102Z" fill="#99A2B8"/>
<path d="M38.567 26.5354H29.8376V26.5739H38.567V26.5354Z" fill="#464E61"/>
<path d="M29.7412 25.2334H29.7026V26.439H29.7412V25.2334Z" fill="#464E61"/>
<path d="M38.567 25.0984H29.8376V25.1369H38.567V25.0984Z" fill="#464E61"/>
<path d="M38.7018 25.2334H38.6633V26.4427H38.7018V25.2334Z" fill="#464E61"/>
<path d="M38.8176 25.2526H38.5476V24.9827H38.8176V25.2526ZM38.5862 25.2141H38.7791V25.0212H38.5862V25.2141Z" fill="#464E61"/>
<path d="M29.8569 25.2526H29.5869V24.9827H29.8569V25.2526ZM29.6255 25.2141H29.8184V25.0212H29.6255V25.2141Z" fill="#464E61"/>
<path d="M38.8176 26.6896H38.5476V26.4197H38.8176V26.6896ZM38.5862 26.6511H38.7791V26.4583H38.5862V26.6511Z" fill="#464E61"/>
<path d="M29.8569 26.6896H29.5869V26.4197H29.8569V26.6896ZM29.6255 26.6511H29.8184V26.4583H29.6255V26.6511Z" fill="#464E61"/>
<path d="M33.742 16.072H30.2592V19.5548H33.742V16.072Z" fill="#181F2B"/>
<path d="M32.0005 19.0359C32.311 19.0359 32.5979 18.9353 32.8308 18.7652C32.7952 18.5357 32.7128 18.3309 32.5979 18.1715C32.5865 18.1558 32.5727 18.1417 32.5566 18.1296C32.4043 18.0158 32.2113 17.9473 32.0006 17.9473C31.7899 17.9473 31.5968 18.0158 31.4446 18.1296C31.4285 18.1417 31.4147 18.1558 31.4033 18.1715C31.2884 18.3309 31.206 18.5357 31.1703 18.7652C31.4032 18.9353 31.69 19.0359 32.0005 19.0359Z" fill="#464E61"/>
<path d="M32.0006 19.0359C32.2716 19.0359 32.5246 18.9593 32.7395 18.8267C32.7139 18.5691 32.6375 18.3388 32.5267 18.1634C32.5167 18.1477 32.5046 18.1334 32.4903 18.1214C32.3562 18.0069 32.1862 17.938 32.0006 17.938C31.815 17.938 31.6448 18.0069 31.5108 18.1214C31.4966 18.1335 31.4844 18.1477 31.4744 18.1634C31.3636 18.3388 31.2873 18.5691 31.2616 18.8267C31.4765 18.9593 31.7296 19.0359 32.0006 19.0359Z" fill="#464E61"/>
<path d="M31.8035 17.5911V17.9853C31.8035 18.026 31.8917 18.0591 32.0006 18.0591C32.1095 18.0591 32.1978 18.0261 32.1978 17.9853V17.5911H31.8035Z" fill="#464E61"/>
<path d="M32.5626 17.18C32.5549 17.1698 32.5447 17.1625 32.531 17.1604C32.4919 17.1544 32.4584 17.203 32.4448 17.2335C32.4437 17.2361 32.4441 17.2382 32.4444 17.2403C32.4117 17.295 32.3934 17.3493 32.4014 17.4153C32.4029 17.4278 32.4124 17.4339 32.4223 17.435C32.4416 17.4625 32.4785 17.4828 32.5113 17.4661C32.5344 17.4543 32.5395 17.4301 32.5423 17.4069C32.5509 17.335 32.6148 17.2499 32.5626 17.18Z" fill="#464E61"/>
<path d="M31.4588 17.4071C31.4615 17.4303 31.4666 17.4545 31.4897 17.4663C31.5225 17.4831 31.5594 17.4629 31.5788 17.4352C31.5886 17.4342 31.5981 17.428 31.5996 17.4156C31.6077 17.3494 31.5895 17.2952 31.5567 17.2405C31.5571 17.2385 31.5575 17.2363 31.5563 17.2338C31.5426 17.2033 31.5091 17.1546 31.47 17.1607C31.4564 17.1628 31.4461 17.17 31.4384 17.1802C31.3862 17.25 31.4501 17.3352 31.4588 17.4071Z" fill="#464E61"/>
<path d="M32.5387 16.903C32.5381 16.8911 32.537 16.8792 32.5353 16.8673C32.5314 16.8389 32.5234 16.8108 32.507 16.7869C32.503 16.781 32.4546 16.7292 32.4513 16.7334C32.4656 16.7154 32.4735 16.6922 32.4719 16.6637C32.4674 16.5806 32.3824 16.5533 32.3134 16.5381C32.1248 16.4964 31.93 16.5182 31.759 16.5971C31.7453 16.6034 31.7231 16.6036 31.7076 16.6074C31.688 16.6123 31.6685 16.6182 31.6495 16.6252C31.61 16.6398 31.5717 16.6588 31.5379 16.6841C31.5065 16.7076 31.4788 16.737 31.4613 16.7725C31.4399 16.8161 31.4409 16.8624 31.4423 16.91C31.4456 17.0245 31.4766 17.1414 31.5033 17.2525C31.5079 17.2731 31.5107 17.3362 31.5311 17.3468C31.6293 17.3979 31.7593 17.3944 31.8671 17.3921C32.0337 17.3886 32.1999 17.3601 32.3666 17.3645C32.3862 17.3651 32.4064 17.3653 32.4259 17.3676C32.4392 17.3692 32.4556 17.3739 32.4676 17.3651C32.4725 17.3616 32.4738 17.3549 32.4749 17.3489C32.4991 17.2013 32.5387 17.0535 32.5387 16.903Z" fill="#20293A"/>
<path d="M32.3954 16.8811H32.3788C32.3472 16.8811 32.3165 16.8886 32.2867 16.899C32.2396 16.9156 32.1292 16.9271 32.0005 16.9271C31.8717 16.9271 31.7614 16.9156 31.7142 16.899C31.6844 16.8886 31.6537 16.8811 31.6221 16.8811H31.6056C31.5593 16.8811 31.5219 16.9186 31.5219 16.9648V17.48C31.5219 17.7579 31.7361 17.9833 32.0005 17.9833C32.2648 17.9833 32.4791 17.7579 32.4791 17.48V16.9648C32.4791 16.9186 32.4417 16.8811 32.3954 16.8811Z" fill="#464E61"/>
<path d="M33.586 19.3988H30.4152V16.228H33.586V19.3988ZM30.4344 19.3796H33.5667V16.2473H30.4344V19.3796Z" fill="#71ABFF"/>
<path d="M37.9837 16.072H34.5009V19.5548H37.9837V16.072Z" fill="#464E61"/>
<path d="M36.2595 16.8315H34.9727C34.9067 16.8315 34.8533 16.885 34.8533 16.951C34.8533 17.017 34.9067 17.0704 34.9727 17.0704H36.2595C36.3254 17.0704 36.3789 17.017 36.3789 16.951C36.3789 16.885 36.3254 16.8315 36.2595 16.8315Z" fill="#99A2B8"/>
<path d="M35.7121 17.4146H34.9183C34.8824 17.4146 34.8533 17.4436 34.8533 17.4796V17.4918C34.8533 17.5277 34.8824 17.5568 34.9183 17.5568H35.7121C35.748 17.5568 35.7771 17.5277 35.7771 17.4918V17.4796C35.7771 17.4436 35.748 17.4146 35.7121 17.4146Z" fill="#20293A"/>
<path d="M35.7121 18.447H34.9183C34.8824 18.447 34.8533 18.4761 34.8533 18.5121V18.5243C34.8533 18.5601 34.8824 18.5893 34.9183 18.5893H35.7121C35.748 18.5893 35.7771 18.5601 35.7771 18.5243V18.5121C35.7771 18.4762 35.748 18.447 35.7121 18.447Z" fill="#20293A"/>
<path d="M35.2703 17.7588H34.9182C34.8823 17.7588 34.8531 17.7879 34.8531 17.8238V17.836C34.8531 17.8719 34.8823 17.9011 34.9182 17.9011H35.2703C35.3062 17.9011 35.3353 17.8719 35.3353 17.836V17.8238C35.3353 17.7879 35.3062 17.7588 35.2703 17.7588Z" fill="#20293A"/>
<path d="M36.8964 18.103H36.5443C36.5084 18.103 36.4792 18.1321 36.4792 18.1681V18.1803C36.4792 18.2161 36.5083 18.2453 36.5443 18.2453H36.8964C36.9323 18.2453 36.9614 18.2161 36.9614 18.1803V18.1681C36.9614 18.1321 36.9323 18.103 36.8964 18.103Z" fill="#20293A"/>
<path d="M36.2454 18.447H35.8933C35.8574 18.447 35.8282 18.4761 35.8282 18.5121V18.5243C35.8282 18.5601 35.8573 18.5893 35.8933 18.5893H36.2454C36.2813 18.5893 36.3104 18.5601 36.3104 18.5243V18.5121C36.3104 18.4762 36.2813 18.447 36.2454 18.447Z" fill="#20293A"/>
<path d="M37.3595 17.4146H35.9276C35.8917 17.4146 35.8625 17.4436 35.8625 17.4796V17.4918C35.8625 17.5277 35.8916 17.5568 35.9276 17.5568H37.3595C37.3954 17.5568 37.4245 17.5277 37.4245 17.4918V17.4796C37.4245 17.4436 37.3955 17.4146 37.3595 17.4146Z" fill="#20293A"/>
<path d="M36.3501 18.103H34.9182C34.8823 18.103 34.8531 18.1321 34.8531 18.1681V18.1803C34.8531 18.2161 34.8823 18.2453 34.9182 18.2453H36.3501C36.386 18.2453 36.4151 18.2161 36.4151 18.1803V18.1681C36.4151 18.1321 36.386 18.103 36.3501 18.103Z" fill="#20293A"/>
<path d="M36.8965 17.7588H35.4646C35.4287 17.7588 35.3995 17.7879 35.3995 17.8238V17.836C35.3995 17.8719 35.4286 17.9011 35.4646 17.9011H36.8965C36.9324 17.9011 36.9615 17.8719 36.9615 17.836V17.8238C36.9615 17.7879 36.9325 17.7588 36.8965 17.7588Z" fill="#20293A"/>
<path d="M37.6459 17.4146H37.578C37.5421 17.4146 37.5129 17.4436 37.5129 17.4796V17.4918C37.5129 17.5277 37.542 17.5568 37.578 17.5568H37.6459C37.6817 17.5568 37.7109 17.5277 37.7109 17.4918V17.4796C37.7109 17.4436 37.6818 17.4146 37.6459 17.4146Z" fill="#20293A"/>
<path d="M37.1619 18.103H37.094C37.0581 18.103 37.0289 18.1321 37.0289 18.1681V18.1803C37.0289 18.2161 37.058 18.2453 37.094 18.2453H37.1619C37.1977 18.2453 37.2269 18.2161 37.2269 18.1803V18.1681C37.2269 18.1321 37.1977 18.103 37.1619 18.103Z" fill="#20293A"/>
<path d="M36.5118 18.447H36.4439C36.4081 18.447 36.3789 18.4761 36.3789 18.5121V18.5243C36.3789 18.5601 36.408 18.5893 36.4439 18.5893H36.5118C36.5477 18.5893 36.5769 18.5601 36.5769 18.5243V18.5121C36.5769 18.4762 36.5477 18.447 36.5118 18.447Z" fill="#20293A"/>
<path d="M35.2703 18.7913H34.9182C34.8823 18.7913 34.8531 18.8203 34.8531 18.8563V18.8685C34.8531 18.9044 34.8823 18.9335 34.9182 18.9335H35.2703C35.3062 18.9335 35.3353 18.9045 35.3353 18.8685V18.8563C35.3353 18.8204 35.3062 18.7913 35.2703 18.7913Z" fill="#20293A"/>
<path d="M35.5367 18.7913H35.4688C35.433 18.7913 35.4038 18.8203 35.4038 18.8563V18.8685C35.4038 18.9044 35.433 18.9335 35.4688 18.9335H35.5367C35.5726 18.9335 35.6018 18.9045 35.6018 18.8685V18.8563C35.6018 18.8204 35.5727 18.7913 35.5367 18.7913Z" fill="#20293A"/>
<path d="M37.2055 16.8315H36.6922C36.6262 16.8315 36.5728 16.885 36.5728 16.951C36.5728 17.017 36.6262 17.0704 36.6922 17.0704H37.2055C37.2715 17.0704 37.325 17.017 37.325 16.951C37.325 16.885 37.2716 16.8315 37.2055 16.8315Z" fill="#99A2B8"/>
<path d="M33.742 20.2507H30.2592V23.7336H33.742V20.2507Z" fill="#99A2B8"/>
<path d="M32.5094 23.064L32.7549 22.9095L32.6115 22.5447C32.6597 22.4925 32.7002 22.4348 32.7328 22.3734L33.1246 22.3877L33.1889 22.1049L32.8294 21.9483C32.8266 21.8788 32.815 21.8092 32.7942 21.7413L33.0813 21.4744L32.9268 21.2289L32.562 21.3723C32.5097 21.3241 32.452 21.2837 32.3906 21.251L32.4049 20.8592L32.1221 20.7949L31.9655 21.1544C31.896 21.1572 31.8265 21.1688 31.7585 21.1896L31.4916 20.9026L31.2461 21.057L31.3895 21.4218C31.3414 21.4741 31.3009 21.5318 31.2682 21.5932L30.8765 21.579L30.8121 21.8618L31.1716 22.0184C31.1745 22.0878 31.186 22.1574 31.2069 22.2253L30.9198 22.4922L31.0742 22.7377L31.439 22.5943C31.4913 22.6425 31.5491 22.683 31.6104 22.7156L31.5962 23.1074L31.879 23.1717L32.0356 22.8122C32.105 22.8094 32.1746 22.7978 32.2426 22.777L32.5094 23.064ZM31.4477 22.3311C31.2556 22.0258 31.3473 21.6225 31.6526 21.4304C31.9579 21.2382 32.3611 21.3299 32.5533 21.6353C32.7455 21.9406 32.6538 22.3438 32.3485 22.536C32.0432 22.7281 31.6399 22.6364 31.4477 22.3311Z" fill="#464E61"/>
<path d="M38.7982 15.7515V15.2207H38.2674V15.4572H30.0552V15.2207H29.5244V15.7515H29.7609V23.9638H29.5244V24.4946H30.0552V24.2581H38.2675V24.4946H38.7983V23.9638H38.5618V15.7515H38.7982ZM38.3253 15.2784H38.7406V15.6938H38.3253V15.2784ZM29.5822 15.2784H29.9975V15.6938H29.5822V15.2784ZM29.9975 24.4368H29.5822V24.0215H29.9975V24.4368ZM38.7405 24.4368H38.3252V24.0215H38.7405V24.4368ZM38.504 23.9638H38.2674V24.2003H30.0552V23.9638H29.8187V15.7515H30.0552V15.515H38.2675V15.7515H38.5041V23.9638H38.504Z" fill="#464E61"/>
<path d="M37.9837 20.2507H34.5009V23.7336H37.9837V20.2507Z" fill="#181F2B"/>
<path d="M37.8277 23.5688H34.6569V20.3979H37.8277V23.5688ZM34.6761 23.5495H37.8084V20.4172H34.6761V23.5495Z" fill="#C7D0E6"/>
<path d="M35.5323 22.1987C35.5032 22.1969 35.4751 22.1824 35.4569 22.1568C35.4252 22.1119 35.436 22.0498 35.4808 22.0181L36.7515 21.121C36.7963 21.0893 36.8584 21.1001 36.8901 21.1448C36.9218 21.1897 36.911 21.2518 36.8662 21.2834L35.5955 22.1806C35.5764 22.1942 35.554 22.1999 35.5323 22.1987Z" fill="#464E61"/>
<path d="M36.7293 22.879C36.7147 22.8781 36.6999 22.8739 36.6863 22.8661L35.4891 22.1859C35.4413 22.1588 35.4245 22.0981 35.4518 22.0503C35.479 22.0026 35.5397 21.9858 35.5873 22.013L36.7845 22.6932C36.8323 22.7203 36.849 22.7811 36.8218 22.8288C36.8025 22.863 36.7661 22.8812 36.7293 22.879Z" fill="#464E61"/>
<path d="M35.8724 22.1196C35.8837 21.9349 35.7431 21.7762 35.5585 21.765C35.3739 21.7538 35.2151 21.8944 35.2039 22.079C35.1926 22.2636 35.3332 22.4223 35.5178 22.4335C35.7024 22.4448 35.8613 22.3042 35.8724 22.1196Z" fill="#85E8FF"/>
<path d="M37.1431 21.2226C37.1543 21.0381 37.0137 20.8792 36.8291 20.8681C36.6445 20.8568 36.4858 20.9974 36.4745 21.182C36.4633 21.3666 36.6039 21.5254 36.7884 21.5366C36.9731 21.5478 37.1318 21.4072 37.1431 21.2226Z" fill="#FFA64D"/>
<path d="M37.0697 22.7998C37.0809 22.6152 36.9403 22.4565 36.7558 22.4452C36.5711 22.434 36.4124 22.5746 36.4011 22.7591C36.3899 22.9438 36.5305 23.1025 36.7151 23.1138C36.8998 23.125 37.0585 22.9845 37.0697 22.7998Z" fill="#71ABFF"/>
<path d="M15.6434 16.6975H11.1671C11.0709 16.6975 10.9928 16.7755 10.9928 16.8719C10.9928 16.9681 11.0708 17.0462 11.1671 17.0462H15.6434C15.7396 17.0462 15.8177 16.9682 15.8177 16.8719C15.8177 16.7755 15.7396 16.6975 15.6434 16.6975Z" fill="#C7D0E6"/>
<path d="M13.8106 17.4392H11.0966C11.0392 17.4392 10.9928 17.4857 10.9928 17.543C10.9928 17.6003 11.0392 17.6467 11.0966 17.6467H13.8106C13.8679 17.6467 13.9143 17.6002 13.9143 17.543C13.9144 17.4857 13.8679 17.4392 13.8106 17.4392Z" fill="#71ABFF"/>
<path d="M13.8106 18.9456H11.0966C11.0392 18.9456 10.9928 18.9921 10.9928 19.0493C10.9928 19.1067 11.0392 19.1531 11.0966 19.1531H13.8106C13.8679 19.1531 13.9143 19.1066 13.9143 19.0493C13.9144 18.992 13.8679 18.9456 13.8106 18.9456Z" fill="#464E61"/>
<path d="M12.4136 17.9414H11.0966C11.0392 17.9414 10.9928 17.9879 10.9928 18.0452C10.9928 18.1025 11.0392 18.1489 11.0966 18.1489H12.4136C12.471 18.1489 12.5174 18.1024 12.5174 18.0452C12.5175 17.9879 12.471 17.9414 12.4136 17.9414Z" fill="#85E8FF"/>
<path d="M17.5563 18.4434H16.2393C16.1819 18.4434 16.1355 18.4899 16.1355 18.5471C16.1355 18.6044 16.182 18.6509 16.2393 18.6509H17.5563C17.6137 18.6509 17.6601 18.6044 17.6601 18.5471C17.6601 18.4898 17.6137 18.4434 17.5563 18.4434Z" fill="#464E61"/>
<path d="M15.4973 18.9456H14.1802C14.1229 18.9456 14.0764 18.9921 14.0764 19.0493C14.0764 19.1067 14.1229 19.1531 14.1802 19.1531H15.4973C15.5545 19.1531 15.601 19.1066 15.601 19.0493C15.601 18.992 15.5546 18.9456 15.4973 18.9456Z" fill="#464E61"/>
<path d="M15.1751 19.4478H13.858C13.8007 19.4478 13.7543 19.4943 13.7543 19.5515C13.7543 19.6089 13.8008 19.6553 13.858 19.6553H15.1751C15.2325 19.6553 15.2789 19.6088 15.2789 19.5515C15.2789 19.4943 15.2324 19.4478 15.1751 19.4478Z" fill="#464E61"/>
<path d="M19.0208 17.4392H14.2888C14.2316 17.4392 14.1851 17.4857 14.1851 17.543C14.1851 17.6003 14.2316 17.6467 14.2888 17.6467H19.0208C19.0781 17.6467 19.1245 17.6002 19.1245 17.543C19.1245 17.4857 19.078 17.4392 19.0208 17.4392Z" fill="#464E61"/>
<path d="M15.8285 18.4434H11.0966C11.0392 18.4434 10.9928 18.4899 10.9928 18.5471C10.9928 18.6044 11.0392 18.6509 11.0966 18.6509H15.8285C15.8858 18.6509 15.9323 18.6044 15.9323 18.5471C15.9323 18.4898 15.8858 18.4434 15.8285 18.4434Z" fill="#464E61"/>
<path d="M17.5563 17.9414H12.8243C12.7671 17.9414 12.7206 17.9879 12.7206 18.0452C12.7206 18.1025 12.7671 18.1489 12.8243 18.1489H17.5563C17.6136 18.1489 17.66 18.1024 17.66 18.0452C17.66 17.9879 17.6136 17.9414 17.5563 17.9414Z" fill="#71ABFF"/>
<path d="M19.9263 17.4392H19.5079C19.4506 17.4392 19.4042 17.4857 19.4042 17.543C19.4042 17.6003 19.4507 17.6467 19.5079 17.6467H19.9263C19.9836 17.6467 20.03 17.6002 20.03 17.543C20.0301 17.4857 19.9836 17.4392 19.9263 17.4392Z" fill="#464E61"/>
<path d="M18.3955 18.4434H17.9772C17.9198 18.4434 17.8734 18.4899 17.8734 18.5471C17.8734 18.6044 17.9199 18.6509 17.9772 18.6509H18.3955C18.4528 18.6509 18.4993 18.6044 18.4993 18.5471C18.4993 18.4898 18.4528 18.4434 18.3955 18.4434Z" fill="#464E61"/>
<path d="M15.8285 19.8516H11.0966C11.0392 19.8516 10.9928 19.898 10.9928 19.9553C10.9928 20.0127 11.0392 20.0591 11.0966 20.0591H15.8285C15.8858 20.0591 15.9323 20.0126 15.9323 19.9553C15.9323 19.8981 15.8858 19.8516 15.8285 19.8516Z" fill="#464E61"/>
<path d="M16.6527 19.8516H16.2344C16.177 19.8516 16.1306 19.898 16.1306 19.9553C16.1306 20.0127 16.1771 20.0591 16.2344 20.0591H16.6527C16.7101 20.0591 16.7565 20.0126 16.7565 19.9553C16.7565 19.8981 16.7101 19.8516 16.6527 19.8516Z" fill="#464E61"/>
<path d="M16.3397 18.9456H15.9214C15.864 18.9456 15.8176 18.9921 15.8176 19.0493C15.8176 19.1067 15.8641 19.1531 15.9214 19.1531H16.3397C16.3971 19.1531 16.4435 19.1066 16.4435 19.0493C16.4436 18.992 16.3971 18.9456 16.3397 18.9456Z" fill="#464E61"/>
<path d="M12.4136 19.4478H11.0966C11.0392 19.4478 10.9928 19.4943 10.9928 19.5515C10.9928 19.6089 11.0392 19.6553 11.0966 19.6553H12.4136C12.471 19.6553 12.5174 19.6088 12.5174 19.5515C12.5175 19.4943 12.471 19.4478 12.4136 19.4478Z" fill="#FFA64D"/>
<path d="M13.2561 19.4478H12.8378C12.7804 19.4478 12.734 19.4943 12.734 19.5515C12.734 19.6089 12.7804 19.6553 12.8378 19.6553H13.2561C13.3135 19.6553 13.3599 19.6088 13.3599 19.5515C13.3599 19.4943 13.3135 19.4478 13.2561 19.4478Z" fill="#FFA64D"/>
<path d="M18.6352 16.6975H16.6048C16.5085 16.6975 16.4304 16.7755 16.4304 16.8719C16.4304 16.9681 16.5084 17.0462 16.6048 17.0462H18.6352C18.7315 17.0462 18.8096 16.9682 18.8096 16.8719C18.8096 16.7755 18.7315 16.6975 18.6352 16.6975Z" fill="#C7D0E6"/>
<path d="M15.6434 21.4993H11.1671C11.0709 21.4993 10.9928 21.5773 10.9928 21.6736C10.9928 21.7699 11.0708 21.848 11.1671 21.848H15.6434C15.7396 21.848 15.8177 21.7699 15.8177 21.6736C15.8177 21.5773 15.7396 21.4993 15.6434 21.4993Z" fill="#C7D0E6"/>
<path d="M13.8106 22.241H11.0966C11.0392 22.241 10.9928 22.2875 10.9928 22.3447C10.9928 22.4021 11.0392 22.4485 11.0966 22.4485H13.8106C13.8679 22.4485 13.9143 22.402 13.9143 22.3447C13.9144 22.2875 13.8679 22.241 13.8106 22.241Z" fill="#464E61"/>
<path d="M13.8106 23.7473H11.0966C11.0392 23.7473 10.9928 23.7938 10.9928 23.8511C10.9928 23.9084 11.0392 23.9549 11.0966 23.9549H13.8106C13.8679 23.9549 13.9143 23.9084 13.9143 23.8511C13.9144 23.7938 13.8679 23.7473 13.8106 23.7473Z" fill="#71ABFF"/>
<path d="M12.4136 22.7432H11.0966C11.0392 22.7432 10.9928 22.7897 10.9928 22.8469C10.9928 22.9043 11.0392 22.9507 11.0966 22.9507H12.4136C12.471 22.9507 12.5174 22.9042 12.5174 22.8469C12.5175 22.7896 12.471 22.7432 12.4136 22.7432Z" fill="#464E61"/>
<path d="M17.5563 23.2451H16.2393C16.1819 23.2451 16.1355 23.2916 16.1355 23.3489C16.1355 23.4062 16.182 23.4527 16.2393 23.4527H17.5563C17.6137 23.4527 17.6601 23.4062 17.6601 23.3489C17.6601 23.2915 17.6137 23.2451 17.5563 23.2451Z" fill="#464E61"/>
<path d="M15.4973 23.7473H14.1802C14.1229 23.7473 14.0764 23.7938 14.0764 23.8511C14.0764 23.9084 14.1229 23.9549 14.1802 23.9549H15.4973C15.5545 23.9549 15.601 23.9084 15.601 23.8511C15.601 23.7938 15.5546 23.7473 15.4973 23.7473Z" fill="#71ABFF"/>
<path d="M15.1751 24.2495H13.858C13.8007 24.2495 13.7543 24.296 13.7543 24.3533C13.7543 24.4106 13.8008 24.457 13.858 24.457H15.1751C15.2325 24.457 15.2789 24.4106 15.2789 24.3533C15.2789 24.296 15.2324 24.2495 15.1751 24.2495Z" fill="#464E61"/>
<path d="M19.0208 22.241H14.2888C14.2316 22.241 14.1851 22.2875 14.1851 22.3447C14.1851 22.4021 14.2316 22.4485 14.2888 22.4485H19.0208C19.0781 22.4485 19.1245 22.402 19.1245 22.3447C19.1245 22.2875 19.078 22.241 19.0208 22.241Z" fill="#FFA64D"/>
<path d="M15.8285 23.2451H11.0966C11.0392 23.2451 10.9928 23.2916 10.9928 23.3489C10.9928 23.4062 11.0392 23.4527 11.0966 23.4527H15.8285C15.8858 23.4527 15.9323 23.4062 15.9323 23.3489C15.9323 23.2915 15.8858 23.2451 15.8285 23.2451Z" fill="#464E61"/>
<path d="M17.5563 22.7432H12.8243C12.7671 22.7432 12.7206 22.7897 12.7206 22.8469C12.7206 22.9043 12.7671 22.9507 12.8243 22.9507H17.5563C17.6136 22.9507 17.66 22.9042 17.66 22.8469C17.66 22.7896 17.6136 22.7432 17.5563 22.7432Z" fill="#464E61"/>
<path d="M19.9263 22.241H19.5079C19.4506 22.241 19.4042 22.2875 19.4042 22.3447C19.4042 22.4021 19.4507 22.4485 19.5079 22.4485H19.9263C19.9836 22.4485 20.03 22.402 20.03 22.3447C20.0301 22.2875 19.9836 22.241 19.9263 22.241Z" fill="#FFA64D"/>
<path d="M18.3955 23.2451H17.9772C17.9198 23.2451 17.8734 23.2916 17.8734 23.3489C17.8734 23.4062 17.9199 23.4527 17.9772 23.4527H18.3955C18.4528 23.4527 18.4993 23.4062 18.4993 23.3489C18.4993 23.2915 18.4528 23.2451 18.3955 23.2451Z" fill="#464E61"/>
<path d="M15.8285 24.6533H11.0966C11.0392 24.6533 10.9928 24.6998 10.9928 24.7571C10.9928 24.8144 11.0392 24.8609 11.0966 24.8609H15.8285C15.8858 24.8609 15.9323 24.8144 15.9323 24.7571C15.9323 24.6998 15.8858 24.6533 15.8285 24.6533Z" fill="#464E61"/>
<path d="M16.6527 24.6533H16.2344C16.177 24.6533 16.1306 24.6998 16.1306 24.7571C16.1306 24.8144 16.1771 24.8609 16.2344 24.8609H16.6527C16.7101 24.8609 16.7565 24.8144 16.7565 24.7571C16.7565 24.6998 16.7101 24.6533 16.6527 24.6533Z" fill="#464E61"/>
<path d="M16.3397 23.7473H15.9214C15.864 23.7473 15.8176 23.7938 15.8176 23.8511C15.8176 23.9084 15.8641 23.9549 15.9214 23.9549H16.3397C16.3971 23.9549 16.4435 23.9084 16.4435 23.8511C16.4436 23.7938 16.3971 23.7473 16.3397 23.7473Z" fill="#464E61"/>
<path d="M12.4136 24.2495H11.0966C11.0392 24.2495 10.9928 24.296 10.9928 24.3533C10.9928 24.4106 11.0392 24.457 11.0966 24.457H12.4136C12.471 24.457 12.5174 24.4106 12.5174 24.3533C12.5175 24.296 12.471 24.2495 12.4136 24.2495Z" fill="#85E8FF"/>
<path d="M13.2561 24.2495H12.8378C12.7804 24.2495 12.734 24.296 12.734 24.3533C12.734 24.4106 12.7804 24.457 12.8378 24.457H13.2561C13.3135 24.457 13.3599 24.4106 13.3599 24.3533C13.3599 24.296 13.3135 24.2495 13.2561 24.2495Z" fill="#85E8FF"/>
<path d="M18.6352 21.4993H16.6048C16.5085 21.4993 16.4304 21.5773 16.4304 21.6736C16.4304 21.7699 16.5084 21.848 16.6048 21.848H18.6352C18.7315 21.848 18.8096 21.7699 18.8096 21.6736C18.8096 21.5773 18.7315 21.4993 18.6352 21.4993Z" fill="#C7D0E6"/>
<path d="M15.6434 26.3008H11.1671C11.0709 26.3008 10.9928 26.3788 10.9928 26.4751C10.9928 26.5714 11.0708 26.6495 11.1671 26.6495H15.6434C15.7396 26.6495 15.8177 26.5715 15.8177 26.4751C15.8177 26.3788 15.7396 26.3008 15.6434 26.3008Z" fill="#C7D0E6"/>
<path d="M13.8106 27.0425H11.0966C11.0392 27.0425 10.9928 27.089 10.9928 27.1462C10.9928 27.2036 11.0392 27.25 11.0966 27.25H13.8106C13.8679 27.25 13.9143 27.2036 13.9143 27.1462C13.9144 27.089 13.8679 27.0425 13.8106 27.0425Z" fill="#464E61"/>
<path d="M13.8106 28.5488H11.0966C11.0392 28.5488 10.9928 28.5953 10.9928 28.6526C10.9928 28.7099 11.0392 28.7564 11.0966 28.7564H13.8106C13.8679 28.7564 13.9143 28.7099 13.9143 28.6526C13.9144 28.5953 13.8679 28.5488 13.8106 28.5488Z" fill="#464E61"/>
<path d="M12.4136 27.5447H11.0966C11.0392 27.5447 10.9928 27.5912 10.9928 27.6484C10.9928 27.7058 11.0392 27.7522 11.0966 27.7522H12.4136C12.471 27.7522 12.5174 27.7057 12.5174 27.6484C12.5175 27.5911 12.471 27.5447 12.4136 27.5447Z" fill="#464E61"/>
<path d="M17.5563 28.0466H16.2393C16.1819 28.0466 16.1355 28.093 16.1355 28.1504C16.1355 28.2077 16.182 28.2542 16.2393 28.2542H17.5563C17.6137 28.2542 17.6601 28.2077 17.6601 28.1504C17.6601 28.093 17.6137 28.0466 17.5563 28.0466Z" fill="#464E61"/>
<path d="M15.4973 28.5488H14.1802C14.1229 28.5488 14.0764 28.5953 14.0764 28.6526C14.0764 28.7099 14.1229 28.7564 14.1802 28.7564H15.4973C15.5545 28.7564 15.601 28.7099 15.601 28.6526C15.601 28.5953 15.5546 28.5488 15.4973 28.5488Z" fill="#FFA64D"/>
<path d="M15.1751 29.051H13.858C13.8007 29.051 13.7543 29.0975 13.7543 29.1548C13.7543 29.2121 13.8008 29.2586 13.858 29.2586H15.1751C15.2325 29.2586 15.2789 29.2121 15.2789 29.1548C15.2789 29.0975 15.2324 29.051 15.1751 29.051Z" fill="#464E61"/>
<path d="M19.0208 27.0425H14.2888C14.2316 27.0425 14.1851 27.089 14.1851 27.1462C14.1851 27.2036 14.2316 27.25 14.2888 27.25H19.0208C19.0781 27.25 19.1245 27.2036 19.1245 27.1462C19.1245 27.089 19.078 27.0425 19.0208 27.0425Z" fill="#464E61"/>
<path d="M15.8285 28.0469H11.0966C11.0392 28.0469 10.9928 28.0933 10.9928 28.1506C10.9928 28.208 11.0392 28.2544 11.0966 28.2544H15.8285C15.8858 28.2544 15.9323 28.2079 15.9323 28.1506C15.9323 28.0933 15.8858 28.0469 15.8285 28.0469Z" fill="#85E8FF"/>
<path d="M17.5563 27.5447H12.8243C12.7671 27.5447 12.7206 27.5912 12.7206 27.6484C12.7206 27.7058 12.7671 27.7522 12.8243 27.7522H17.5563C17.6136 27.7522 17.66 27.7057 17.66 27.6484C17.66 27.5911 17.6136 27.5447 17.5563 27.5447Z" fill="#85E8FF"/>
<path d="M19.9263 27.0425H19.5079C19.4506 27.0425 19.4042 27.089 19.4042 27.1462C19.4042 27.2036 19.4507 27.25 19.5079 27.25H19.9263C19.9836 27.25 20.03 27.2036 20.03 27.1462C20.0301 27.089 19.9836 27.0425 19.9263 27.0425Z" fill="#464E61"/>
<path d="M18.3955 28.0466H17.9772C17.9198 28.0466 17.8734 28.093 17.8734 28.1504C17.8734 28.2077 17.9199 28.2542 17.9772 28.2542H18.3955C18.4528 28.2542 18.4993 28.2077 18.4993 28.1504C18.4993 28.093 18.4528 28.0466 18.3955 28.0466Z" fill="#464E61"/>
<path d="M15.8285 29.4548H11.0966C11.0392 29.4548 10.9928 29.5013 10.9928 29.5586C10.9928 29.616 11.0392 29.6624 11.0966 29.6624H15.8285C15.8858 29.6624 15.9323 29.616 15.9323 29.5586C15.9323 29.5013 15.8858 29.4548 15.8285 29.4548Z" fill="#71ABFF"/>
<path d="M16.6527 29.4548H16.2344C16.177 29.4548 16.1306 29.5013 16.1306 29.5586C16.1306 29.616 16.1771 29.6624 16.2344 29.6624H16.6527C16.7101 29.6624 16.7565 29.616 16.7565 29.5586C16.7565 29.5013 16.7101 29.4548 16.6527 29.4548Z" fill="#71ABFF"/>
<path d="M16.3397 28.5488H15.9214C15.864 28.5488 15.8176 28.5953 15.8176 28.6526C15.8176 28.7099 15.8641 28.7564 15.9214 28.7564H16.3397C16.3971 28.7564 16.4435 28.7099 16.4435 28.6526C16.4436 28.5953 16.3971 28.5488 16.3397 28.5488Z" fill="#FFA64D"/>
<path d="M12.4136 29.051H11.0966C11.0392 29.051 10.9928 29.0975 10.9928 29.1548C10.9928 29.2121 11.0392 29.2586 11.0966 29.2586H12.4136C12.471 29.2586 12.5174 29.2121 12.5174 29.1548C12.5175 29.0975 12.471 29.051 12.4136 29.051Z" fill="#464E61"/>
<path d="M13.2561 29.051H12.8378C12.7804 29.051 12.734 29.0975 12.734 29.1548C12.734 29.2121 12.7804 29.2586 12.8378 29.2586H13.2561C13.3135 29.2586 13.3599 29.2121 13.3599 29.1548C13.3599 29.0975 13.3135 29.051 13.2561 29.051Z" fill="#464E61"/>
<path d="M18.6352 26.3008H16.6048C16.5085 26.3008 16.4304 26.3788 16.4304 26.4751C16.4304 26.5714 16.5084 26.6495 16.6048 26.6495H18.6352C18.7315 26.6495 18.8096 26.5715 18.8096 26.4751C18.8096 26.3788 18.7315 26.3008 18.6352 26.3008Z" fill="#C7D0E6"/>
</g>
</g>
<defs>
<clipPath id="clip0_2024_193">
<rect width="50" height="50" rx="25" fill="white"/>
</clipPath>
<clipPath id="clip1_2024_193">
<rect width="39" height="28" fill="white" transform="translate(5.5 12.5)"/>
</clipPath>
</defs>
</svg>
