<svg width="17" height="16" viewBox="0 0 17 16" fill="none" xmlns="http://www.w3.org/2000/svg">
<mask id="mask0_2026_3137" style="mask-type:alpha" maskUnits="userSpaceOnUse" x="0" y="0" width="17" height="16">
<rect x="0.5" width="16" height="16" fill="#D9D9D9"/>
</mask>
<g mask="url(#mask0_2026_3137)">
<path d="M5.16666 14C4.79999 14 4.4861 13.8694 4.22499 13.6083C3.96388 13.3472 3.83332 13.0333 3.83332 12.6667V4C3.64443 4 3.4861 3.93611 3.35832 3.80833C3.23055 3.68056 3.16666 3.52222 3.16666 3.33333C3.16666 3.14444 3.23055 2.98611 3.35832 2.85833C3.4861 2.73056 3.64443 2.66667 3.83332 2.66667H6.49999C6.49999 2.47778 6.56388 2.31944 6.69166 2.19167C6.81943 2.06389 6.97777 2 7.16666 2H9.83332C10.0222 2 10.1805 2.06389 10.3083 2.19167C10.4361 2.31944 10.5 2.47778 10.5 2.66667H13.1667C13.3555 2.66667 13.5139 2.73056 13.6417 2.85833C13.7694 2.98611 13.8333 3.14444 13.8333 3.33333C13.8333 3.52222 13.7694 3.68056 13.6417 3.80833C13.5139 3.93611 13.3555 4 13.1667 4V12.6667C13.1667 13.0333 13.0361 13.3472 12.775 13.6083C12.5139 13.8694 12.2 14 11.8333 14H5.16666ZM7.16666 11.3333C7.35555 11.3333 7.51388 11.2694 7.64166 11.1417C7.76943 11.0139 7.83332 10.8556 7.83332 10.6667V6C7.83332 5.81111 7.76943 5.65278 7.64166 5.525C7.51388 5.39722 7.35555 5.33333 7.16666 5.33333C6.97777 5.33333 6.81943 5.39722 6.69166 5.525C6.56388 5.65278 6.49999 5.81111 6.49999 6V10.6667C6.49999 10.8556 6.56388 11.0139 6.69166 11.1417C6.81943 11.2694 6.97777 11.3333 7.16666 11.3333ZM9.83332 11.3333C10.0222 11.3333 10.1805 11.2694 10.3083 11.1417C10.4361 11.0139 10.5 10.8556 10.5 10.6667V6C10.5 5.81111 10.4361 5.65278 10.3083 5.525C10.1805 5.39722 10.0222 5.33333 9.83332 5.33333C9.64443 5.33333 9.4861 5.39722 9.35832 5.525C9.23055 5.65278 9.16666 5.81111 9.16666 6V10.6667C9.16666 10.8556 9.23055 11.0139 9.35832 11.1417C9.4861 11.2694 9.64443 11.3333 9.83332 11.3333Z" fill="#D32F2F"/>
</g>
</svg>
