<svg width="100" height="100" viewBox="0 0 100 100" fill="none" xmlns="http://www.w3.org/2000/svg">
<rect width="100" height="100" rx="50" fill="#1565C0"/>
<path d="M67.5548 31.0223C68.4352 30.1841 69.6068 29.7207 70.8224 29.7299C72.0379 29.7391 73.2024 30.2201 74.07 31.0716C74.9377 31.923 75.4406 33.0782 75.4728 34.2933C75.5049 35.5085 75.0637 36.6887 74.2423 37.5847L49.3048 68.7722C48.876 69.2341 48.3584 69.6047 47.7831 69.862C47.2078 70.1193 46.5865 70.2579 45.9564 70.2696C45.3262 70.2812 44.7002 70.1657 44.1158 69.9299C43.5313 69.6941 43.0004 69.3429 42.5548 68.8972L26.0173 52.3597C25.5568 51.9306 25.1874 51.4131 24.9312 50.8381C24.675 50.2631 24.5372 49.6424 24.5261 49.013C24.515 48.3836 24.6308 47.7584 24.8666 47.1748C25.1023 46.5911 25.4532 46.0609 25.8983 45.6158C26.3434 45.1706 26.8737 44.8197 27.4573 44.584C28.041 44.3482 28.6662 44.2324 29.2956 44.2435C29.925 44.2546 30.5457 44.3924 31.1207 44.6486C31.6957 44.9048 32.2132 45.2742 32.6423 45.7347L45.7298 58.816L67.436 31.1598C67.4751 31.1116 67.5168 31.0657 67.561 31.0223H67.5548Z" fill="white"/>
</svg>
