<svg width="100" height="100" viewBox="0 0 100 100" fill="none" xmlns="http://www.w3.org/2000/svg">
<rect width="100" height="100" rx="50" fill="#E53935"/>
<path fill-rule="evenodd" clip-rule="evenodd" d="M28.5168 26.8058C30.2118 25.1109 33.2347 25.3857 35.2687 27.4197L72.0971 64.2481C74.1311 66.2821 74.4059 69.305 72.7109 71C71.016 72.695 67.993 72.4202 65.9591 70.3862L29.1306 33.5577C27.0966 31.5238 26.8218 28.5008 28.5168 26.8058Z" fill="white"/>
<path fill-rule="evenodd" clip-rule="evenodd" d="M72.711 26.8058C74.4059 28.5008 74.1311 31.5238 72.0972 33.5577L35.2687 70.3862C33.2347 72.4202 30.2118 72.695 28.5168 71C26.8218 69.305 27.0966 66.2821 29.1306 64.2481L65.9591 27.4197C67.9931 25.3857 71.016 25.1109 72.711 26.8058Z" fill="white"/>
</svg>
