<svg width="24" height="24" viewBox="0 0 24 24" fill="none" xmlns="http://www.w3.org/2000/svg">
<mask id="mask0_2014_29583" style="mask-type:alpha" maskUnits="userSpaceOnUse" x="0" y="-1" width="24" height="25">
<rect y="-0.00738525" width="24" height="24" fill="#D9D9D9"/>
</mask>
<g mask="url(#mask0_2014_29583)">
<path d="M19 11.9676C19 10.5843 18.6333 9.32178 17.9 8.18011C17.1667 7.03845 16.1833 6.18428 14.95 5.61761C14.7 5.50095 14.5167 5.32178 14.4 5.08011C14.2833 4.83845 14.2667 4.59261 14.35 4.34261C14.45 4.07595 14.6292 3.88428 14.8875 3.76761C15.1458 3.65095 15.4083 3.65095 15.675 3.76761C17.2917 4.48428 18.5833 5.58011 19.55 7.05511C20.5167 8.53011 21 10.1676 21 11.9676C21 13.7676 20.5167 15.4051 19.55 16.8801C18.5833 18.3551 17.2917 19.4509 15.675 20.1676C15.4083 20.2843 15.1458 20.2843 14.8875 20.1676C14.6292 20.0509 14.45 19.8593 14.35 19.5926C14.2667 19.3426 14.2833 19.0968 14.4 18.8551C14.5167 18.6134 14.7 18.4343 14.95 18.3176C16.1833 17.7509 17.1667 16.8968 17.9 15.7551C18.6333 14.6134 19 13.3509 19 11.9676ZM7 14.9926H4C3.71667 14.9926 3.47917 14.8968 3.2875 14.7051C3.09583 14.5134 3 14.2759 3 13.9926V9.99261C3 9.70928 3.09583 9.47178 3.2875 9.28011C3.47917 9.08845 3.71667 8.99261 4 8.99261H7L10.3 5.69261C10.6167 5.37595 10.9792 5.30511 11.3875 5.48011C11.7958 5.65511 12 5.96761 12 6.41761V17.5676C12 18.0176 11.7958 18.3301 11.3875 18.5051C10.9792 18.6801 10.6167 18.6093 10.3 18.2926L7 14.9926ZM16.5 11.9926C16.5 12.6926 16.3417 13.3551 16.025 13.9801C15.7083 14.6051 15.2917 15.1176 14.775 15.5176C14.6083 15.6176 14.4375 15.6218 14.2625 15.5301C14.0875 15.4384 14 15.2926 14 15.0926V8.84261C14 8.64261 14.0875 8.49678 14.2625 8.40511C14.4375 8.31345 14.6083 8.31762 14.775 8.41761C15.2917 8.83428 15.7083 9.35928 16.025 9.99261C16.3417 10.6259 16.5 11.2926 16.5 11.9926ZM10 8.84261L7.85 10.9926H5V12.9926H7.85L10 15.1426V8.84261Z" fill="white"/>
</g>
</svg>
